<?xml version="1.0" encoding="utf-8"?>
<!-- Generator: Adobe Illustrator 27.0.1, SVG Export Plug-In . SVG Version: 6.00 Build 0)  -->
<svg version="1.1" xmlns="http://www.w3.org/2000/svg" xmlns:xlink="http://www.w3.org/1999/xlink" x="0px" y="0px"
	 viewBox="0 0 750 500" style="enable-background:new 0 0 750 500;" xml:space="preserve">
<style type="text/css">
	.st0{display:none;}
	.st1{display:inline;fill:#EEEEEE;}
	.st2{fill:none;stroke:#DED8D5;stroke-width:1.9678;stroke-miterlimit:10;}
	.st3{fill:#FFB1A5;}
	.st4{fill:#EAD254;}
	.st5{fill:#00857B;}
	.st6{fill:#EDEDED;}
	.st7{fill:#C98BD2;}
	.st8{fill:none;stroke:#FFFFFF;stroke-width:1.6466;stroke-linecap:round;stroke-linejoin:round;stroke-miterlimit:10;}
	.st9{fill:#FFFFFF;}
	.st10{fill:#56DFED;}
	.st11{fill:none;stroke:#FFFFFF;stroke-width:1.1803;stroke-miterlimit:10;}
	.st12{clip-path:url(#SVGID_00000150073694231617056520000008657814708109739425_);}
	.st13{fill:#8E716C;}
	.st14{fill:none;stroke:#282828;stroke-width:1.2333;stroke-linecap:round;stroke-linejoin:round;stroke-miterlimit:10;}
	.st15{fill:#F3978E;}
	.st16{fill:#372F5F;}
	.st17{fill:#261B43;}
	.st18{fill:#E6E6E6;}
	.st19{fill:#282828;}
	.st20{fill:none;stroke:#282828;stroke-width:0.9928;stroke-linecap:round;stroke-linejoin:round;stroke-miterlimit:10;}
	.st21{fill:none;stroke:#282828;stroke-width:1.2316;stroke-linecap:round;stroke-linejoin:round;stroke-miterlimit:10;}
	.st22{fill:none;stroke:#C98BD2;stroke-width:1.3423;stroke-miterlimit:10;}
	.st23{fill:none;stroke:#282828;stroke-width:1.2298;stroke-linecap:round;stroke-linejoin:round;stroke-miterlimit:10;}
	.st24{fill:#005683;}
	.st25{fill:none;stroke:#282828;stroke-width:1.3968;stroke-linecap:round;stroke-linejoin:round;stroke-miterlimit:10;}
	.st26{fill:none;stroke:#282828;stroke-width:1.5317;stroke-linecap:round;stroke-linejoin:round;stroke-miterlimit:10;}
	.st27{fill:none;stroke:#FFFFFF;stroke-width:1.9514;stroke-miterlimit:10;}
</style>
<g id="BACKGROUND" class="st0">
	<rect x="0.22" class="st1" width="750" height="500"/>
</g>
<g id="OBJECTS">
	<g>
		<g>
			<g>
				<g>
					<line class="st2" x1="1159.26" y1="146.72" x2="1658.63" y2="146.72"/>
					<path class="st2" d="M1652.11,422.95h-486.33c-3.6,0-6.52-2.92-6.52-6.52V120.5c0-3.6,2.92-6.52,6.52-6.52h486.33
						c3.6,0,6.52,2.92,6.52,6.52v295.92C1658.63,420.03,1655.71,422.95,1652.11,422.95z"/>
					<g>
						<path class="st3" d="M1192.17,130.68c0,2.52-2.04,4.57-4.57,4.57c-2.52,0-4.57-2.05-4.57-4.57s2.05-4.57,4.57-4.57
							C1190.13,126.11,1192.17,128.16,1192.17,130.68z"/>
						<path class="st4" d="M1209.93,130.68c0,2.52-2.05,4.57-4.57,4.57s-4.57-2.05-4.57-4.57s2.05-4.57,4.57-4.57
							S1209.93,128.16,1209.93,130.68z"/>
						<path class="st5" d="M1227.68,130.68c0,2.52-2.05,4.57-4.57,4.57s-4.57-2.05-4.57-4.57s2.05-4.57,4.57-4.57
							S1227.68,128.16,1227.68,130.68z"/>
					</g>
				</g>
			</g>
			<g>
				<g>
					<g>
						<g>
							<path class="st6" d="M1723.5,256.97h-117.36c-3.31,0-5.99-2.68-5.99-5.99V142.44c0-3.31,2.68-5.99,5.99-5.99h117.36
								c3.31,0,5.99,2.68,5.99,5.99v108.54C1729.49,254.29,1726.81,256.97,1723.5,256.97z"/>
							<path class="st2" d="M1723.5,256.97h-117.36c-3.31,0-5.99-2.68-5.99-5.99V142.44c0-3.31,2.68-5.99,5.99-5.99h117.36
								c3.31,0,5.99,2.68,5.99,5.99v108.54C1729.49,254.29,1726.81,256.97,1723.5,256.97z"/>
						</g>
					</g>
				</g>
				<g>
					<g>
						<g>
							<g>
								<path class="st7" d="M1634.52,225.62h61c3.33,0,6.02-2.7,6.02-6.02v-49.99c0-3.33-2.7-6.02-6.02-6.02h-61
									c-3.33,0-6.02,2.7-6.02,6.02v49.99C1628.49,222.93,1631.19,225.62,1634.52,225.62z"/>
							</g>
						</g>
					</g>
					<g>
						<polygon class="st8" points="1681.68,204.92 1653.13,204.92 1647.97,204.92 1647.97,182.31 1681.68,182.31 1681.68,187.96 
													"/>
						<polyline class="st8" points="1647.97,182.31 1664.82,195.59 1681.68,182.31 						"/>
					</g>
				</g>
			</g>
			<g>
				<g>
					<g>
						<g>
							<path class="st6" d="M1207.04,347.86h-111.93c-3.16,0-5.71-2.56-5.71-5.71v-97.58c0-3.16,2.56-5.71,5.71-5.71h111.93
								c3.16,0,5.71,2.56,5.71,5.71v97.58C1212.75,345.3,1210.19,347.86,1207.04,347.86z"/>
							<path class="st2" d="M1207.04,347.86h-111.93c-3.16,0-5.71-2.56-5.71-5.71v-97.58c0-3.16,2.56-5.71,5.71-5.71h111.93
								c3.16,0,5.71,2.56,5.71,5.71v97.58C1212.75,345.3,1210.19,347.86,1207.04,347.86z"/>
						</g>
					</g>
				</g>
				<g>
					<path class="st3" d="M1179.81,326.86h-58.05c-3.67,0-6.64-2.97-6.64-6.64v-56.06c0-3.67,2.97-6.64,6.64-6.64h58.05
						c3.67,0,6.64,2.97,6.64,6.64v56.06C1186.45,323.89,1183.47,326.86,1179.81,326.86z"/>
					<g>
						<path class="st9" d="M1136.96,278.58c-7.83,7.83-7.83,20.69,0,28.52c7.83,7.83,20.69,7.83,28.52,0
							c7.83-7.83,7.83-20.69,0-28.52C1157.65,270.75,1144.79,270.75,1136.96,278.58z M1165.43,281.48H1159
							c-0.64-2.02-1.47-4.04-2.5-6.06C1160.07,276.51,1163.16,278.65,1165.43,281.48z M1143.81,291.66c0-2.61,0.31-5.21,0.96-7.82
							h12.9c0.64,2.61,0.95,5.21,0.96,7.82H1143.81z M1158.54,294.02c-0.18,2.61-0.65,5.21-1.39,7.82h-11.88
							c-0.74-2.61-1.21-5.21-1.39-7.82H1158.54z M1151.22,274.64c0.97,0,1.92,0.08,2.85,0.22c1.24,2.21,2.2,4.41,2.92,6.62h-11.55
							c0.72-2.21,1.69-4.41,2.92-6.62C1149.3,274.72,1150.25,274.64,1151.22,274.64z M1145.93,275.43c-1.02,2.02-1.85,4.04-2.5,6.06
							H1137C1139.27,278.65,1142.37,276.51,1145.93,275.43z M1135.4,283.84h7.36c-0.65,2.61-0.98,5.21-1.03,7.82h-8.67
							C1133.24,288.83,1134.07,286.17,1135.4,283.84z M1135.4,301.84c-1.33-2.33-2.16-4.99-2.34-7.82h8.7
							c0.13,2.61,0.54,5.21,1.23,7.82H1135.4z M1137,304.19h6.69c0.67,2.04,1.5,4.09,2.49,6.13
							C1142.51,309.27,1139.32,307.09,1137,304.19z M1151.22,311.03c-0.81,0-1.6-0.05-2.38-0.15c-1.11-2.23-2.06-4.45-2.82-6.68
							h10.41c-0.76,2.23-1.71,4.46-2.82,6.68C1152.82,310.98,1152.03,311.03,1151.22,311.03z M1156.26,310.32
							c0.99-2.04,1.82-4.09,2.49-6.13h6.69C1163.11,307.09,1159.92,309.27,1156.26,310.32z M1167.03,301.84h-7.59
							c0.69-2.61,1.1-5.21,1.23-7.82h8.7C1169.19,296.85,1168.36,299.5,1167.03,301.84z M1169.37,291.66h-8.67
							c-0.05-2.61-0.39-5.21-1.03-7.82h7.36C1168.36,286.17,1169.19,288.83,1169.37,291.66z"/>
					</g>
				</g>
			</g>
		</g>
		<g>
			<path class="st7" d="M1200.36,85.47h-101.4c-2.09,0-3.79-1.7-3.79-3.79l0,0c0-2.09,1.7-3.79,3.79-3.79h101.4
				c2.09,0,3.79,1.7,3.79,3.79l0,0C1204.16,83.77,1202.46,85.47,1200.36,85.47z"/>
			<path class="st10" d="M1727.64,333.15h-49.22c-2.09,0-3.79-1.7-3.79-3.79l0,0c0-2.09,1.7-3.79,3.79-3.79h49.22
				c2.09,0,3.79,1.7,3.79,3.79l0,0C1731.43,331.46,1729.73,333.15,1727.64,333.15z"/>
			<path class="st7" d="M1693.17,377.03h-6.01c-1.58,0-2.86-1.28-2.86-2.86v-5.65c0-1.58,1.28-2.86,2.86-2.86h6.01
				c1.58,0,2.86,1.28,2.86,2.86v5.65C1696.03,375.75,1694.75,377.03,1693.17,377.03z"/>
			<path class="st3" d="M1123.12,403.31h-6.01c-1.58,0-2.86-1.28-2.86-2.86v-5.65c0-1.58,1.28-2.86,2.86-2.86h6.01
				c1.58,0,2.86,1.28,2.86,2.86v5.65C1125.98,402.03,1124.7,403.31,1123.12,403.31z"/>
			<g>
				<g>
					<path class="st3" d="M1583.39,81.55h-100.08c-1.66,0-3.01-1.35-3.01-3.01V54.1c0-1.66,1.35-3.01,3.01-3.01h100.08
						c1.66,0,3.01,1.35,3.01,3.01v24.44C1586.41,80.2,1585.06,81.55,1583.39,81.55z"/>
					<g>
						<line class="st11" x1="1494.75" y1="61.95" x2="1565.93" y2="61.95"/>
						<line class="st11" x1="1494.75" y1="69.25" x2="1523.74" y2="69.25"/>
					</g>
				</g>
				<polygon class="st3" points="1491.86,78.11 1491.86,89.98 1506.79,78.11 				"/>
			</g>
			<g>
				<g>
					<g>
						<g>
							<g>
								<g>
									<path class="st10" d="M1337.5,83.36h-48.45c-4.71,0-8.52-3.81-8.52-8.52V29.8c0-3.57,2.89-6.46,6.46-6.46h50.51
										c3.57,0,6.46,2.89,6.46,6.46v47.1C1343.96,80.47,1341.07,83.36,1337.5,83.36z"/>
								</g>
							</g>
						</g>
					</g>
				</g>
				<g>
					<path class="st9" d="M1327.05,57.79l-3.61-3.61c-0.64-0.71-1.48-1.1-2.32-1.1c-0.84,0-1.68,0.39-2.32,1.03l-2.06,2.06
						c-0.13-0.06-0.26-0.13-0.39-0.19c-0.26-0.13-0.45-0.19-0.64-0.32c-1.93-1.23-3.68-2.84-5.35-4.9
						c-0.77-0.97-1.35-1.87-1.68-2.64c0.52-0.45,0.97-0.97,1.42-1.42c0.19-0.19,0.39-0.39,0.58-0.58c0.71-0.71,1.1-1.55,1.1-2.39
						c0-0.84-0.39-1.68-1.1-2.39l-1.81-1.81c-0.19-0.19-0.39-0.39-0.58-0.64c-0.39-0.39-0.84-0.84-1.23-1.23
						c-0.64-0.64-1.48-1.03-2.32-1.03s-1.61,0.32-2.32,1.03l-2.26,2.26c-0.84,0.84-1.35,1.93-1.48,3.16
						c-0.13,1.93,0.39,3.74,0.84,4.9c1.03,2.97,2.64,5.61,5.03,8.45c2.9,3.42,6.32,6.13,10.32,8.06c1.48,0.71,3.55,1.55,5.8,1.74
						c0.13,0,0.26,0,0.45,0c1.55,0,2.84-0.58,3.87-1.68c0,0,0,0,0.06-0.06c0.32-0.39,0.71-0.77,1.16-1.16
						c0.26-0.26,0.58-0.58,0.84-0.84C1328.4,61.08,1328.4,59.15,1327.05,57.79z M1325.57,61.14c-0.26,0.26-0.52,0.52-0.77,0.77
						c-0.45,0.39-0.84,0.84-1.29,1.29c-0.65,0.65-1.35,0.97-2.32,0.97c-0.13,0-0.19,0-0.32,0c-1.93-0.13-3.74-0.9-5.03-1.55
						c-3.68-1.81-6.9-4.32-9.61-7.55c-2.19-2.64-3.68-5.16-4.71-7.8c-0.65-1.55-0.9-2.77-0.77-4c0.06-0.71,0.32-1.35,0.9-1.87
						l2.19-2.19c0.19-0.19,0.52-0.45,0.9-0.45s0.64,0.19,0.9,0.45c0.39,0.39,0.77,0.77,1.16,1.16c0.19,0.19,0.39,0.45,0.65,0.65
						l1.81,1.81c0.19,0.19,0.45,0.58,0.45,0.9c0,0.39-0.26,0.71-0.45,0.9s-0.39,0.39-0.58,0.58c-0.58,0.58-1.1,1.1-1.61,1.61
						c0,0,0,0-0.06,0.06c-0.64,0.64-0.52,1.23-0.39,1.61v0.06c0.45,1.16,1.16,2.19,2.13,3.48c1.81,2.26,3.74,4,5.87,5.35
						c0.26,0.19,0.58,0.32,0.84,0.45c0.26,0.13,0.45,0.19,0.64,0.32l0.06,0.06c0.64,0.32,1.29,0.19,1.81-0.32l2.26-2.26
						c0.19-0.19,0.52-0.45,0.9-0.45c0.32,0,0.64,0.26,0.84,0.45l3.61,3.61C1326.15,59.85,1326.15,60.5,1325.57,61.14z"/>
				</g>
			</g>
		</g>
	</g>
	<g>
		<defs>
			<rect id="SVGID_1_" x="1205.26" y="89.45" width="459.27" height="332.68"/>
		</defs>
		<clipPath id="SVGID_00000075857246694849508590000015523229125155378597_">
			<use xlink:href="#SVGID_1_"  style="overflow:visible;"/>
		</clipPath>
		<g style="clip-path:url(#SVGID_00000075857246694849508590000015523229125155378597_);">
			<g>
				<g>
					<path class="st13" d="M1548.25,310.62l-36.5-4.86l0.29,3.62l-31.21,4.16c0,0-20.12,50.47-2.39,161.46h25.39l9.14-112.55h3.24
						l8.85,112.55h25.39C1568.17,364.01,1548.25,310.62,1548.25,310.62z"/>
					<line class="st14" x1="1501.35" y1="362.46" x2="1527.84" y2="362.46"/>
				</g>
				<g>
					<g>
						<g>
							<g>
								<path class="st3" d="M1569.57,257.38c-3.12-4.98-20.66-4.81-21.59-4.92c-4.74-0.56,3.04,37.18,12.91,70.17
									c1.89,6.32,8.85,9.62,14.93,7.04c0.07-0.03,0.13-0.06,0.2-0.08c4.81-2.04,7.54-7.14,6.58-12.27
									C1577.89,292.42,1573.18,263.14,1569.57,257.38z"/>
							</g>
							<polygon class="st15" points="1573.75,271.02 1551.35,279.71 1549.25,269.09 1572.44,263.3 							"/>
							<path class="st15" d="M1577.98,292.28c0,0-10.61,14.25-10.1,13.59c0.51-0.66,8.32-23.03,8.32-23.03L1577.98,292.28z"/>
						</g>
						<g>
							<path class="st3" d="M1593.15,273.13l-30.41,39.4c-3.99,5.17-2.72,12.65,2.76,16.21h0c5.47,3.55,12.81,1.68,15.92-4.05
								l25.31-46.7L1593.15,273.13z"/>
							<g>
								<path class="st3" d="M1601.02,283.25c-6.59-2.13-10.21-9.2-8.08-15.79c2.13-6.59,9.2-10.21,15.79-8.08
									c6.59,2.13,10.21,9.2,8.08,15.79C1614.68,281.76,1607.61,285.38,1601.02,283.25z"/>
								<path class="st3" d="M1614.02,263.77c0,0,3.43-3.56-2.66-6.06c-6.09-2.5-13.62-1.93-18.43,9.75L1614.02,263.77z"/>
							</g>
							<g>
								<path class="st16" d="M1620.33,238.87l12.73,5.52c0.71,0.31,0.97,1.15,0.58,1.88l-16.75,31.29
									c-0.39,0.73-1.28,1.07-1.99,0.76l-12.73-5.52c-0.71-0.31-0.97-1.15-0.58-1.88l16.75-31.29
									C1618.73,238.9,1619.62,238.56,1620.33,238.87z"/>
								<path class="st17" d="M1619.11,238.31l12.73,5.52c0.71,0.31,0.97,1.15,0.58,1.88L1615.67,277
									c-0.39,0.73-1.28,1.07-1.99,0.76l-12.73-5.52c-0.71-0.31-0.97-1.15-0.58-1.88l16.75-31.29
									C1617.52,238.35,1618.41,238.01,1619.11,238.31z"/>
								<polygon class="st18" points="1617.68,241.5 1628.87,246.35 1615.21,271.85 1604.03,267 								"/>
								<polygon class="st9" points="1628.87,246.35 1604.03,267 1617.68,241.5 								"/>
							</g>
							<path class="st3" d="M1607.71,256.67c0,0,2.84,0.55,5.39,2c1.13,0.64,1.7,1.94,1.39,3.2l0,0c-0.29,1.15-1.25,2-2.42,2.15
								l-6.62,0.83c0,0-3.45,5.95-7.97,6.62l4.14-10.45L1607.71,256.67z"/>
						</g>
					</g>
					<g>
						<g>
							<path class="st10" d="M1523.16,207.76c-0.73,0,46.95,6.6,54.81,60.95l-24.74,3.79l-4.99,41.04h-69.02l-13.7-75.82
								c0,0,15.29-21.91,43.68-29.96H1523.16z"/>
							<line class="st14" x1="1553.24" y1="272.5" x2="1555.38" y2="248.77"/>
						</g>
					</g>
				</g>
				<g>
					<path class="st3" d="M1527.69,208.54v-18.88h-22.13v19.1c-1.13,0.34-3.02,1.02-5.94,2.41l17.26,10.28l17.64-10.28
						C1534.52,211.17,1531.72,209.54,1527.69,208.54z"/>
					<path class="st19" d="M1505.36,191.96c0,0,3.97,10.55,14.58,9.64c9.75-0.84,8.2-15.46,8.2-15.46L1505.36,191.96z"/>
					<g>
						<path class="st15" d="M1495.71,177.93c-3.47,3.15-11.22-8.79-7.87-12.14c3.35-3.35,5.91,1.91,5.91,1.91l1.5,3.56l1.13,4.82
							l0.27,1.26L1495.71,177.93z"/>
						<g>
							<g>
								<path class="st20" d="M1489.46,170.02c0,0,2.63-1.18,4.96,2.62"/>
							</g>
						</g>
					</g>
					<g>
						<path class="st15" d="M1536.73,177.57c3.19,3.43,11.93-7.81,8.87-11.43c-3.06-3.62-6.05,1.4-6.05,1.4l-1.79,3.42l-1.53,4.71
							l-0.37,1.24L1536.73,177.57z"/>
						<g>
							<g>
								<path class="st20" d="M1543.63,170.21c0,0-2.52-1.4-5.16,2.2"/>
							</g>
						</g>
					</g>
					<g>
						<path class="st19" d="M1489.63,154.41c0,15.79,12.04,23.28,26.9,23.28c14.85,0,26.9-7.49,26.9-23.28
							c0-15.79-12.04-26.54-26.9-26.54C1501.67,127.87,1489.63,138.62,1489.63,154.41z"/>
					</g>
					<path class="st3" d="M1493.29,155.51c0,9.7,1.37,18.06,2.74,24c1.34,5.81,5.11,9.88,10.43,13.15l0.97,0.6
						c5.63,3.46,12.91,3.54,18.63,0.21l0,0c5.77-3.36,9.81-7.8,11.05-14.04c2.26-11.35,2.51-23.91,2.51-23.91s2.15-24.48-22.83-24
						C1491.8,131.98,1493.29,155.51,1493.29,155.51z"/>
					<g>
						<path class="st21" d="M1514.93,169.48v3.39c0,0.2,0.04,0.39,0.11,0.57c0.28,0.69,1.08,1.02,1.8,0.83l1.55-0.41"/>
						<path class="st19" d="M1510.96,156.34l-12.42,2.91c0,0,0.56-3.16,5.64-4.31C1509.27,153.8,1510.96,156.34,1510.96,156.34z"/>
						<path class="st19" d="M1521.98,156.34l11.99,2.91c0,0-0.54-3.16-5.45-4.31C1523.62,153.8,1521.98,156.34,1521.98,156.34z"/>
						<ellipse class="st19" cx="1506.24" cy="165.46" rx="2.09" ry="2.09"/>
						<path class="st19" d="M1528.19,165.46c0,1.15-0.94,2.09-2.09,2.09c-1.16,0-2.09-0.93-2.09-2.09s0.94-2.09,2.09-2.09
							C1527.25,163.38,1528.19,164.31,1528.19,165.46z"/>
						<path class="st9" d="M1508.34,178.21h16.15C1524.49,178.21,1517.33,186.92,1508.34,178.21z"/>
						<g>
							
								<ellipse transform="matrix(0.7071 -0.7071 0.7071 0.7071 323.3356 1113.1537)" class="st22" cx="1505.36" cy="166.28" rx="8.9" ry="8.9"/>
							
								<ellipse transform="matrix(0.7071 -0.7071 0.7071 0.7071 329.7429 1128.6222)" class="st22" cx="1527.24" cy="166.28" rx="8.9" ry="8.9"/>
							<path class="st22" d="M1514.27,166.28c0,0,2.11-1.97,4.07,0"/>
							<line class="st22" x1="1496.46" y1="166.28" x2="1493.65" y2="166.21"/>
							<line class="st22" x1="1536.14" y1="166.28" x2="1538.97" y2="166.21"/>
						</g>
					</g>
					<path class="st19" d="M1539.29,163.62c0,0-9.99-13.5-7.69-27.19c0,0,7.41,3.73,9.35,13.36
						C1542.88,159.43,1539.29,163.62,1539.29,163.62z"/>
					<path class="st19" d="M1493.27,164.54c0,0,11.6-15.34,9.3-29.02c0,0-8.05,4.65-9.98,14.28
						C1490.66,159.43,1493.27,164.54,1493.27,164.54z"/>
					<path class="st19" d="M1538.46,141.83c0,0-12.83,14.04-47.92,11.64c0,0,5.37-20.61,22.38-22.8
						C1512.92,130.67,1532.55,128.32,1538.46,141.83z"/>
					
						<ellipse transform="matrix(0.1594 -0.9872 0.9872 0.1594 1168.7352 1623.3353)" class="st19" cx="1537.55" cy="125.41" rx="16.76" ry="16.76"/>
				</g>
			</g>
			<g>
				<path class="st19" d="M1333.01,310.58l-31.21-4.16l0.29-3.62l-36.5,4.86c0,0-19.92,53.39-2.19,164.38h25.39l8.85-112.55h3.24
					l9.14,112.55h25.39C1353.13,361.05,1333.01,310.58,1333.01,310.58z"/>
				<g>
					<path class="st19" d="M1330.52,158.74c-4.22-4.97-7.61-10.77-10.48-18.9c-3.09-8.73-13.19-5.18-13.19-5.18
						s-8.42-10.83-21.09-7.06s-17.07,12.79-17.33,23.51c-0.26,10.72-8.69,12.39-15.18,24.79c-11.46,21.89,7.83,40.33,42.96,35.21
						l0.05-0.34c3.46,1.05,7.7,1.51,12.87,1.2C1351.33,209.46,1347.26,178.43,1330.52,158.74z"/>
					<g>
						<path class="st15" d="M1316.71,174.97c3.47,3.15,11.22-8.79,7.87-12.14c-3.35-3.35-5.91,1.91-5.91,1.91l-1.5,3.56l-1.13,4.82
							l-0.27,1.26L1316.71,174.97z"/>
						<g>
							<g>
								<path class="st20" d="M1322.96,167.06c0,0-2.63-1.18-4.96,2.62"/>
							</g>
						</g>
					</g>
					<g>
						<path class="st15" d="M1275.69,174.61c-3.19,3.43-11.93-7.81-8.87-11.43c3.06-3.62,6.05,1.4,6.05,1.4l1.79,3.42l1.53,4.71
							l0.37,1.24L1275.69,174.61z"/>
						<g>
							<g>
								<path class="st20" d="M1268.79,167.26c0,0,2.52-1.4,5.16,2.2"/>
							</g>
						</g>
					</g>
					<g>
						<path class="st19" d="M1322.79,151.45c0,15.79-12.04,23.28-26.9,23.28s-26.9-7.49-26.9-23.28s12.04-26.54,26.9-26.54
							S1322.79,135.66,1322.79,151.45z"/>
					</g>
					<rect x="1284.73" y="186.7" class="st3" width="22.13" height="28.65"/>
					<path class="st19" d="M1281.5,184.91c0,0,6.16,12.29,13.74,14.21c2.02,0.51,4.19,0.34,6.14-0.35c2.85-1.01,6.47-5.26,7.08-9.97
						l0.29-2.69C1308.74,186.11,1295.26,193.45,1281.5,184.91z"/>
					<path class="st3" d="M1319.13,152.55c0,9.7-1.37,18.06-2.74,24c-1.34,5.81-5.11,9.88-10.43,13.15l-0.97,0.6
						c-5.63,3.46-12.91,3.54-18.63,0.21v0c-5.77-3.36-9.81-7.8-11.05-14.04c-2.26-11.35-2.51-23.91-2.51-23.91s-2.15-24.48,22.83-24
						S1319.13,152.55,1319.13,152.55z"/>
					<g>
						<path class="st23" d="M1294.22,167.85v2.01c0,0.2,0.04,0.39,0.11,0.57c0.28,0.69,1.08,1.02,1.8,0.83l1.55-0.41"/>
						<path class="st19" d="M1299.43,154.58l13.29,3.15c0,0-0.6-3.42-6.04-4.66C1301.24,151.82,1299.43,154.58,1299.43,154.58z"/>
						<path class="st19" d="M1292.45,154.58l-13.46,3.15c0,0,0.61-3.42,6.12-4.66C1290.62,151.82,1292.45,154.58,1292.45,154.58z"/>
						<path class="st19" d="M1287.63,162.83c0,1.15-0.94,2.08-2.09,2.08c-1.16,0-2.09-0.93-2.09-2.08c0-1.15,0.94-2.08,2.09-2.08
							C1286.69,160.75,1287.63,161.68,1287.63,162.83z"/>
						<path class="st19" d="M1307.48,162.83c0,1.15-0.94,2.08-2.09,2.08s-2.09-0.93-2.09-2.08c0-1.15,0.94-2.08,2.09-2.08
							S1307.48,161.68,1307.48,162.83z"/>
						<path class="st9" d="M1286.25,174.74h18.38c0,0-1.3,5.05-9.63,5.05C1288.65,179.79,1286.25,174.74,1286.25,174.74z"/>
					</g>
					<path class="st19" d="M1273.13,160.67c0,0,9.99-13.5,7.69-27.19c0,0-7.41,3.73-9.35,13.36
						C1269.54,156.47,1273.13,160.67,1273.13,160.67z"/>
					<path class="st19" d="M1319.15,160.22c0,0-11.6-13.97-9.3-27.65c0,0,8.05,4.65,9.98,14.28
						C1321.76,156.47,1319.15,160.22,1319.15,160.22z"/>
					<path class="st19" d="M1273.97,138.87c0,0,11.46,15.41,46.56,13c0,0-4.01-21.97-21.02-24.16
						C1299.5,127.71,1279.87,125.36,1273.97,138.87z"/>
				</g>
				<g>
					<g>
						<g>
							<path class="st3" d="M1241.98,378.35c-0.51,0.8,29.21-129.3,20.39-127.34c-0.81,0.18-16.26,1.61-18.55,6.28
								c-6.66,13.54-11.43,120.07-11.43,120.07L1241.98,378.35z"/>
							<path class="st3" d="M1232.37,377.36c0,0-4.79,22.22,13.32,24.65c1.19,0.16,2.35-0.54,2.74-1.68l0.05-0.15
								c0.43-1.26-0.2-2.6-1.41-3.14c-2.95-1.32-7.53-4.66-5.26-12.23c0,0,2.62-0.32,4.06,4.56c0.37,1.26,1.78,1.89,2.95,1.3l0,0
								c0.8-0.4,1.25-1.26,1.14-2.15c-0.43-3.42-2.15-11.65-8.75-13.86L1232.37,377.36z"/>
						</g>
						<path class="st15" d="M1238.47,288.56c0,0,17.12,24.11,17.21,23.65s5.99-33.86,5.99-33.86l-20.78-9L1238.47,288.56z"/>
					</g>
					<g>
						<path class="st5" d="M1286.04,210.63c0.73,0-42.32,0.77-50.19,55.12l24.74,3.79l4.99,41.04h69.02l13.7-75.82
							c0,0-9.74-16.43-38.13-24.47L1286.04,210.63z"/>
						<path class="st3" d="M1265,217.2c0,0,6.08,8.08,31.01,8.08c24.7,0,31.01-8.5,31.01-8.5s-14.56-8.13-31.45-10.77
							C1295.57,206.01,1280.49,208.7,1265,217.2z"/>
					</g>
				</g>
			</g>
			<g>
				<g>
					<g>
						<polygon class="st24" points="1349.7,389.4 1349.76,497.81 1403.39,497.81 1407.51,389.4 						"/>
						<polygon class="st24" points="1466.14,389.4 1466.08,497.81 1412.45,497.81 1408.33,389.4 						"/>
						<rect x="1381.4" y="389.4" class="st24" width="55.45" height="37.66"/>
					</g>
					<line class="st25" x1="1389.15" y1="427.07" x2="1427.39" y2="427.07"/>
				</g>
				<g>
					<g>
						<g>
							<path class="st3" d="M1500.02,294.8c3.33,36.73-0.18,63.5,0.79,131.09l-32.01,1.34l-4.77-126.52L1500.02,294.8z"/>
							<path class="st15" d="M1467.98,323.46c0,0,19.82-1.81,33.37-10.75l-0.36-7.87l-33.03,4.5L1467.98,323.46z"/>
						</g>
						<path class="st7" d="M1436.18,210.23c0,0,62.96,15.83,74.37,95.75c0,0-30.81,13.36-61.69,7.61l6.95-26.73L1436.18,210.23z"/>
					</g>
					<g>
						<g>
							<path class="st3" d="M1248.12,243.45l46.88,55.36l-14.34,40.4c0,0-35.63-49.54-51.64-87.83L1248.12,243.45z"/>
							<g>
								<g>
									<g>
										<path class="st3" d="M1249.66,245.45c0,0-16.46,9.3-20.65,5.94c-7.32-5.88-13.36-27.4-13.36-27.4s30.78-11.6,30.49-11.15
											C1245.85,213.29,1249.66,245.45,1249.66,245.45z"/>
										<path class="st3" d="M1249.66,245.45c-0.29-1.66,6.1-19.53,8.3-26.24c0.53-1.62-0.59-3.39-2.34-3.73l0,0
											c-1.14-0.22-2.95-0.08-3.81,1.56l-7.72,13.2L1249.66,245.45z"/>
										<path class="st3" d="M1249.1,226.13l-5.3-26.37c-0.31-1.75-2.08-2.96-3.84-2.63l0,0c-1.52,0.29-2.53,1.64-2.35,3.17
											l2.31,19.64L1249.1,226.13z"/>
										<path class="st3" d="M1238.55,216.4l-7.2-18.83c-0.6-1.65-2.45-2.56-4.09-2.01l0,0c-1.42,0.48-2.22,1.91-1.88,3.38
											l5.34,21.76L1238.55,216.4z"/>
										<path class="st3" d="M1230.82,221.95l-9.11-18.5c-0.84-1.72-2.92-2.51-4.62-1.77l0,0c-1.6,0.7-2.31,2.51-1.63,4.17
											l7.26,17.47L1230.82,221.95z"/>
										<path class="st3" d="M1215.65,223.99l-7.15-11.34c-0.59-1.33-0.05-2.83,1.25-3.42l0,0c1.24-0.57,2.77-0.12,3.57,1.04
											l9.4,13.04L1215.65,223.99z"/>
									</g>
								</g>
								<path class="st26" d="M1247.66,224.14c0,0-10.73-1.13-11.84,13.18"/>
							</g>
						</g>
						<g>
							<g>
								<path class="st3" d="M1271.15,320.32c0,0,8.82,30.51,26.39,26.46s44.95-41.58,44.95-41.58l-6.13-64.07l-49.31,60.69
									L1271.15,320.32z"/>
								<path class="st15" d="M1302.34,282.96c0,0,16.65,25.11,30.85,33.97l9.3-11.73l-35.86-27.74L1302.34,282.96z"/>
							</g>
							<path class="st7" d="M1375.18,208.84c0,0-48.88,11.02-74.93,67.83c0,0,15.74,23.71,40.97,34.25l16.89-20.69L1375.18,208.84z"
								/>
						</g>
					</g>
					<g>
						<path class="st7" d="M1375.18,208.66c-19.09,9.79-31.1,22.78-31.1,22.78l3.77,166.06h120.33l-0.39-165.2
							c0,0-15.17-14.84-31.61-22.08C1422.22,204.08,1388.75,201.7,1375.18,208.66z"/>
						<path class="st25" d="M1432.12,289.58L1432.12,289.58c-9.24,0-16.74-7.49-16.74-16.74v-16.74h33.47v16.74
							C1448.85,282.09,1441.36,289.58,1432.12,289.58z"/>
						<line class="st25" x1="1467.98" y1="314.2" x2="1469.54" y2="259.88"/>
						<line class="st25" x1="1345.93" y1="305.15" x2="1343.33" y2="258.06"/>
					</g>
				</g>
				<g>
					<path class="st19" d="M1376.59,148.01l-5.02-24.81c-0.28-2.02-1.07-5.14-0.11-8.07c1.59-4.85,7.43-14.16,17.41-9.9l2.16,9.82
						c0,0-10.36,2.09-14.52,15.65L1376.59,148.01z"/>
					<path class="st19" d="M1388.14,110.35c-0.18,3.26-3.06,17.53-13.18,22.72C1374.96,133.07,1366.1,114.07,1388.14,110.35z"/>
					<path class="st3" d="M1423.63,204.09L1423.63,204.09v-42.14h-38.84v42.14l-11.56,5.27c0,0,2.71,17.46,31.39,17.85
						c28.68,0.39,31.56-16.99,31.56-16.99L1423.63,204.09z"/>
					<path class="st19" d="M1388.87,105.23c0,0,7.13-18.81,29.11-8.81c13.31,6.05,17.03,14.16,18.62,19.91
						c0.53,1.91,0.74,4.92,0.59,6.71l-5.32,24.97l-20.76-34.55l-20.09,1.59L1388.87,105.23z"/>
					<g>
						<path class="st15" d="M1431.88,148.01c0,0,2.62-4.17,8.02-2.12c5.4,2.05,2.96,15.17-5.14,16.84c0,0-2.9,0.63-5.18-1.36
							C1429.57,161.38,1431.57,151.69,1431.88,148.01z"/>
						<g>
							<g>
								<path class="st25" d="M1438.83,150.52c0,0-4.52-1.51-7.74,5.15"/>
							</g>
						</g>
					</g>
					<g>
						<path class="st15" d="M1376.59,148.01c0,0-2.62-4.17-8.02-2.12c-5.4,2.05-2.96,15.17,5.14,16.84c0,0,2.9,0.63,5.18-1.36
							C1378.89,161.38,1376.9,151.69,1376.59,148.01z"/>
						<g>
							<g>
								<path class="st25" d="M1369.64,150.52c0,0,4.52-1.51,7.74,5.15"/>
							</g>
						</g>
					</g>
					<path class="st3" d="M1432.42,135.56c0,7.91-0.77,24.45-5.64,34.27c-4.56,9.22-12.11,14.18-22.01,14.48
						c-9.9,0.3-17.27-3.52-23.18-15.49c-5.91-11.97-5.63-33.12-5.63-33.12s0-28.25,27.92-28.25
						C1433.29,107.46,1432.42,135.56,1432.42,135.56z"/>
					<path class="st19" d="M1385.08,174.72c0,0,3.25,16.51,17.62,18.4c16.53,2.18,20.93-17.98,20.93-17.98s-7.31,9.15-18.86,9.17
						C1391.89,184.33,1385.08,174.72,1385.08,174.72z"/>
					<g>
						<path class="st25" d="M1402.2,147.29v6.54c0,0.28,0.05,0.55,0.15,0.8c0.39,0.97,1.5,1.43,2.51,1.16l2.17-0.58"/>
						<path class="st19" d="M1393.96,144.17c0,1.4-1.14,2.54-2.54,2.54s-2.54-1.14-2.54-2.54c0-1.4,1.14-2.54,2.54-2.54
							S1393.96,142.77,1393.96,144.17z"/>
						<path class="st19" d="M1417.79,144.17c0,1.4-1.14,2.54-2.54,2.54s-2.54-1.14-2.54-2.54c0-1.4,1.14-2.54,2.54-2.54
							S1417.79,142.77,1417.79,144.17z"/>
						<path class="st19" d="M1408.74,131.52l17.09,4.41c0,0-0.78-4.79-7.77-6.54C1411.07,127.66,1408.74,131.52,1408.74,131.52z"/>
						<path class="st19" d="M1398.12,131.52l-17.09,4.41c0,0,0.78-4.79,7.77-6.54C1395.79,127.66,1398.12,131.52,1398.12,131.52z"/>
						<path class="st25" d="M1394.72,160.42c0,0,2.52,1.93,9.15,1.93c6.03,0,9.79-1.93,9.79-1.93"/>
						<g>
							<circle class="st27" cx="1390.73" cy="144.91" r="10.8"/>
							<circle class="st27" cx="1417.26" cy="144.91" r="10.8"/>
							<path class="st27" d="M1401.53,144.91c0,0,2.56-2.39,4.93,0"/>
							<line class="st27" x1="1379.93" y1="144.91" x2="1376.31" y2="144.82"/>
							<line class="st27" x1="1428.06" y1="144.91" x2="1432.11" y2="144.85"/>
						</g>
					</g>
					<path class="st19" d="M1385.08,110.99c0,0,5.19,14.74,28.59,14.28c15.9-0.31,19.7,11.2,19.7,11.2s-2.77-25.73-3.5-25.48
						c-0.73,0.24-24.2-6.26-24.2-6.26L1385.08,110.99z"/>
				</g>
			</g>
		</g>
	</g>
</g>
<g id="DESIGNED_BY_FREEPIK" class="st0">
</g>
</svg>
