<?xml version="1.0" encoding="utf-8"?>
<!-- Generator: Adobe Illustrator 27.0.1, SVG Export Plug-In . SVG Version: 6.00 Build 0)  -->
<svg version="1.1" xmlns="http://www.w3.org/2000/svg" xmlns:xlink="http://www.w3.org/1999/xlink" x="0px" y="0px"
	 viewBox="0 0 750 500" style="enable-background:new 0 0 750 500;" xml:space="preserve">
<style type="text/css">
	.st0{display:none;}
	.st1{display:inline;fill:#EEEEEE;}
	.st2{fill:none;stroke:#DED8D5;stroke-width:1.9678;stroke-miterlimit:10;}
	.st3{fill:#FFB1A5;}
	.st4{fill:#EAD254;}
	.st5{fill:#00857B;}
	.st6{fill:#EDEDED;}
	.st7{fill:#C98BD2;}
	.st8{fill:none;stroke:#FFFFFF;stroke-width:1.6466;stroke-linecap:round;stroke-linejoin:round;stroke-miterlimit:10;}
	.st9{fill:#FFFFFF;}
	.st10{fill:#56DFED;}
	.st11{fill:none;stroke:#FFFFFF;stroke-width:1.1803;stroke-miterlimit:10;}
	.st12{clip-path:url(#SVGID_00000038406350988134045910000008331659829576526223_);}
	.st13{fill:#8E716C;}
	.st14{fill:none;stroke:#282828;stroke-width:1.2333;stroke-linecap:round;stroke-linejoin:round;stroke-miterlimit:10;}
	.st15{fill:#F3978E;}
	.st16{fill:#372F5F;}
	.st17{fill:#261B43;}
	.st18{fill:#E6E6E6;}
	.st19{fill:#282828;}
	.st20{fill:none;stroke:#282828;stroke-width:0.9928;stroke-linecap:round;stroke-linejoin:round;stroke-miterlimit:10;}
	.st21{fill:none;stroke:#282828;stroke-width:1.2316;stroke-linecap:round;stroke-linejoin:round;stroke-miterlimit:10;}
	.st22{fill:none;stroke:#C98BD2;stroke-width:1.3423;stroke-miterlimit:10;}
	.st23{fill:none;stroke:#282828;stroke-width:1.2298;stroke-linecap:round;stroke-linejoin:round;stroke-miterlimit:10;}
	.st24{fill:#005683;}
	.st25{fill:none;stroke:#282828;stroke-width:1.3968;stroke-linecap:round;stroke-linejoin:round;stroke-miterlimit:10;}
	.st26{fill:none;stroke:#282828;stroke-width:1.5317;stroke-linecap:round;stroke-linejoin:round;stroke-miterlimit:10;}
	.st27{fill:none;stroke:#FFFFFF;stroke-width:1.9514;stroke-miterlimit:10;}
</style>
<g id="BACKGROUND" class="st0">
	<rect x="0.22" class="st1" width="750" height="500"/>
</g>
<g id="OBJECTS">
	<g>
		<g>
			<g>
				<g>
					<line class="st2" x1="98.74" y1="149.5" x2="648.04" y2="149.5"/>
					<path class="st2" d="M641.52,453.35H105.26c-3.6,0-6.52-2.92-6.52-6.52V120.01c0-3.6,2.92-6.52,6.52-6.52h536.26
						c3.6,0,6.52,2.92,6.52,6.52v326.82C648.04,450.43,645.12,453.35,641.52,453.35z"/>
					<g>
						<path class="st3" d="M134.94,131.86c0,2.77-2.25,5.02-5.02,5.02c-2.77,0-5.02-2.25-5.02-5.02c0-2.77,2.25-5.02,5.02-5.02
							C132.69,126.84,134.94,129.09,134.94,131.86z"/>
						<path class="st4" d="M154.46,131.86c0,2.77-2.25,5.02-5.02,5.02s-5.02-2.25-5.02-5.02c0-2.77,2.25-5.02,5.02-5.02
							S154.46,129.09,154.46,131.86z"/>
						<path class="st5" d="M173.99,131.86c0,2.77-2.25,5.02-5.02,5.02s-5.02-2.25-5.02-5.02c0-2.77,2.25-5.02,5.02-5.02
							S173.99,129.09,173.99,131.86z"/>
					</g>
				</g>
			</g>
			<g>
				<g>
					<g>
						<g>
							<path class="st6" d="M720,270.78H589.7c-3.31,0-5.99-2.68-5.99-5.99V144.2c0-3.31,2.68-5.99,5.99-5.99H720
								c3.31,0,5.99,2.68,5.99,5.99v120.59C725.99,268.1,723.31,270.78,720,270.78z"/>
							<path class="st2" d="M720,270.78H589.7c-3.31,0-5.99-2.68-5.99-5.99V144.2c0-3.31,2.68-5.99,5.99-5.99H720
								c3.31,0,5.99,2.68,5.99,5.99v120.59C725.99,268.1,723.31,270.78,720,270.78z"/>
						</g>
					</g>
				</g>
				<g>
					<g>
						<g>
							<g>
								<path class="st7" d="M620.91,236.29h68.3c3.33,0,6.02-2.7,6.02-6.02v-56.19c0-3.33-2.7-6.02-6.02-6.02h-68.3
									c-3.33,0-6.02,2.7-6.02,6.02v56.19C614.89,233.6,617.59,236.29,620.91,236.29z"/>
							</g>
						</g>
					</g>
					<g>
						<polygon class="st8" points="673.39,213.52 641.98,213.52 636.31,213.52 636.31,188.65 673.39,188.65 673.39,194.87 						"/>
						<polyline class="st8" points="636.31,188.65 654.85,203.26 673.39,188.65 						"/>
					</g>
				</g>
			</g>
			<g>
				<g>
					<g>
						<g>
							<path class="st6" d="M151.86,370.76H27.6c-3.16,0-5.71-2.56-5.71-5.71V256.56c0-3.16,2.56-5.71,5.71-5.71h124.26
								c3.16,0,5.71,2.56,5.71,5.71v108.49C157.57,368.2,155.01,370.76,151.86,370.76z"/>
							<path class="st2" d="M151.86,370.76H27.6c-3.16,0-5.71-2.56-5.71-5.71V256.56c0-3.16,2.56-5.71,5.71-5.71h124.26
								c3.16,0,5.71,2.56,5.71,5.71v108.49C157.57,368.2,155.01,370.76,151.86,370.76z"/>
						</g>
					</g>
				</g>
				<g>
					<path class="st3" d="M122,347.66H56.82c-3.67,0-6.64-2.97-6.64-6.64v-62.99c0-3.67,2.97-6.64,6.64-6.64H122
						c3.67,0,6.64,2.97,6.64,6.64v62.99C128.64,344.68,125.66,347.66,122,347.66z"/>
					<g>
						<path class="st9" d="M74.2,294.55c-8.62,8.62-8.61,22.76,0,31.37c8.61,8.61,22.76,8.61,31.37,0c8.62-8.61,8.62-22.76,0-31.37
							C96.96,285.93,82.81,285.93,74.2,294.55z M105.52,297.74h-7.07c-0.71-2.22-1.62-4.44-2.75-6.66
							C99.62,292.27,103.03,294.62,105.52,297.74z M81.74,308.94c0-2.87,0.34-5.73,1.05-8.6h14.19c0.71,2.87,1.05,5.73,1.05,8.6
							H81.74z M97.94,311.53c-0.2,2.87-0.71,5.73-1.52,8.6H83.35c-0.81-2.87-1.33-5.73-1.52-8.6H97.94z M89.89,290.22
							c1.07,0,2.11,0.08,3.13,0.24c1.36,2.43,2.42,4.85,3.22,7.28h-12.7c0.79-2.43,1.86-4.85,3.22-7.28
							C87.77,290.3,88.82,290.22,89.89,290.22z M84.07,291.08c-1.13,2.22-2.04,4.44-2.75,6.66h-7.07
							C76.74,294.62,80.15,292.27,84.07,291.08z M72.49,300.34h8.1c-0.71,2.87-1.08,5.73-1.13,8.6h-9.54
							C70.11,305.82,71.03,302.9,72.49,300.34z M72.49,320.13c-1.46-2.57-2.37-5.49-2.57-8.6h9.58c0.14,2.87,0.6,5.73,1.35,8.6
							H72.49z M74.25,322.72h7.36c0.73,2.25,1.65,4.5,2.73,6.74C80.31,328.31,76.8,325.91,74.25,322.72z M89.89,330.25
							c-0.89,0-1.76-0.06-2.62-0.17c-1.22-2.45-2.26-4.9-3.1-7.35h11.45c-0.84,2.45-1.88,4.9-3.1,7.35
							C91.65,330.19,90.77,330.25,89.89,330.25z M95.43,329.47c1.09-2.25,2-4.49,2.73-6.74h7.36
							C102.97,325.91,99.46,328.31,95.43,329.47z M107.28,320.13h-8.35c0.76-2.87,1.21-5.73,1.35-8.6h9.57
							C109.66,314.64,108.75,317.56,107.28,320.13z M109.86,308.94h-9.54c-0.05-2.87-0.42-5.73-1.13-8.6h8.1
							C108.75,302.9,109.66,305.82,109.86,308.94z"/>
					</g>
				</g>
			</g>
		</g>
		<g>
			<path class="st7" d="M143.95,82.13H32.41c-2.3,0-4.17-1.87-4.17-4.17l0,0c0-2.3,1.87-4.17,4.17-4.17h111.54
				c2.3,0,4.17,1.87,4.17,4.17l0,0C148.12,80.26,146.25,82.13,143.95,82.13z"/>
			<path class="st10" d="M723.95,354.58h-54.14c-2.3,0-4.17-1.87-4.17-4.17l0,0c0-2.3,1.87-4.17,4.17-4.17h54.14
				c2.3,0,4.17,1.87,4.17,4.17l0,0C728.12,352.71,726.25,354.58,723.95,354.58z"/>
			<path class="st7" d="M686.32,402.84h-7.19c-1.58,0-2.86-1.28-2.86-2.86v-6.78c0-1.58,1.28-2.86,2.86-2.86h7.19
				c1.58,0,2.86,1.28,2.86,2.86v6.78C689.18,401.56,687.9,402.84,686.32,402.84z"/>
			<path class="st3" d="M59.26,431.75h-7.19c-1.58,0-2.86-1.28-2.86-2.86v-6.78c0-1.58,1.28-2.86,2.86-2.86h7.19
				c1.58,0,2.86,1.28,2.86,2.86v6.78C62.13,430.47,60.84,431.75,59.26,431.75z"/>
			<g>
				<g>
					<path class="st3" d="M565.58,77.82H454.89c-1.66,0-3.01-1.35-3.01-3.01V47.32c0-1.66,1.35-3.01,3.01-3.01h110.69
						c1.66,0,3.01,1.35,3.01,3.01v27.48C568.59,76.47,567.24,77.82,565.58,77.82z"/>
					<g>
						<line class="st11" x1="467.77" y1="56.25" x2="546.07" y2="56.25"/>
						<line class="st11" x1="467.77" y1="64.29" x2="499.66" y2="64.29"/>
					</g>
				</g>
				<polygon class="st3" points="464.59,74.03 464.59,87.08 481.01,74.03 				"/>
			</g>
			<g>
				<g>
					<g>
						<g>
							<g>
								<g>
									<path class="st10" d="M295.44,79.81h-54.79c-4.71,0-8.52-3.81-8.52-8.52V20.25c0-3.57,2.89-6.46,6.46-6.46h56.85
										c3.57,0,6.46,2.89,6.46,6.46v53.1C301.9,76.92,299.01,79.81,295.44,79.81z"/>
								</g>
							</g>
						</g>
					</g>
				</g>
				<g>
					<path class="st9" d="M283.3,51.68l-3.97-3.97c-0.71-0.78-1.63-1.21-2.55-1.21c-0.92,0-1.84,0.43-2.55,1.14l-2.27,2.27
						c-0.14-0.07-0.28-0.14-0.43-0.21c-0.28-0.14-0.5-0.21-0.71-0.35c-2.13-1.35-4.04-3.12-5.89-5.39
						c-0.85-1.06-1.49-2.06-1.84-2.91c0.57-0.5,1.06-1.06,1.56-1.56c0.21-0.21,0.43-0.43,0.64-0.64c0.78-0.78,1.21-1.7,1.21-2.62
						c0-0.92-0.43-1.84-1.21-2.62l-1.99-1.99c-0.21-0.21-0.43-0.43-0.64-0.71c-0.43-0.43-0.92-0.92-1.35-1.35
						c-0.71-0.71-1.63-1.14-2.55-1.14c-0.92,0-1.77,0.35-2.55,1.14l-2.48,2.48c-0.92,0.92-1.49,2.13-1.63,3.48
						c-0.14,2.13,0.43,4.11,0.92,5.39c1.14,3.26,2.91,6.17,5.53,9.29c3.19,3.76,6.95,6.74,11.35,8.87c1.63,0.78,3.9,1.7,6.38,1.92
						c0.14,0,0.28,0,0.5,0c1.7,0,3.12-0.64,4.26-1.84c0,0,0,0,0.07-0.07c0.35-0.43,0.78-0.85,1.28-1.28
						c0.28-0.28,0.64-0.64,0.92-0.92C284.79,55.3,284.79,53.17,283.3,51.68z M281.67,55.37c-0.28,0.28-0.57,0.57-0.85,0.85
						c-0.5,0.43-0.92,0.92-1.42,1.42c-0.71,0.71-1.49,1.06-2.55,1.06c-0.14,0-0.21,0-0.35,0c-2.13-0.14-4.11-0.99-5.53-1.7
						c-4.04-1.99-7.59-4.75-10.57-8.3c-2.41-2.91-4.04-5.68-5.18-8.58c-0.71-1.7-0.99-3.05-0.85-4.4c0.07-0.78,0.35-1.49,0.99-2.06
						l2.41-2.41c0.21-0.21,0.57-0.5,0.99-0.5c0.43,0,0.71,0.21,0.99,0.5c0.43,0.43,0.85,0.85,1.28,1.28
						c0.21,0.21,0.43,0.5,0.71,0.71l1.99,1.99c0.21,0.21,0.5,0.64,0.5,0.99c0,0.43-0.28,0.78-0.5,0.99
						c-0.21,0.21-0.43,0.43-0.64,0.64c-0.64,0.64-1.21,1.21-1.77,1.77c0,0,0,0-0.07,0.07c-0.71,0.71-0.57,1.35-0.43,1.77v0.07
						c0.5,1.28,1.28,2.41,2.34,3.83c1.99,2.48,4.11,4.4,6.46,5.89c0.28,0.21,0.64,0.35,0.92,0.5c0.28,0.14,0.5,0.21,0.71,0.35
						l0.07,0.07c0.71,0.35,1.42,0.21,1.99-0.35l2.48-2.48c0.21-0.21,0.57-0.5,0.99-0.5c0.35,0,0.71,0.28,0.92,0.5l3.97,3.97
						C282.31,53.95,282.31,54.66,281.67,55.37z"/>
				</g>
			</g>
		</g>
	</g>
	<g>
		<defs>
			<rect id="SVGID_1_" x="149.33" y="86.51" width="505.2" height="365.95"/>
		</defs>
		<clipPath id="SVGID_00000151523769194825689170000003135525705325467025_">
			<use xlink:href="#SVGID_1_"  style="overflow:visible;"/>
		</clipPath>
		<g style="clip-path:url(#SVGID_00000151523769194825689170000003135525705325467025_);">
			<g>
				<g>
					<path class="st13" d="M526.62,329.79l-40.15-5.35l0.31,3.99L452.45,333c0,0-22.13,55.52-2.63,177.61h27.93l10.05-123.8h3.57
						l9.73,123.8h27.93C548.53,388.52,526.62,329.79,526.62,329.79z"/>
					<line class="st14" x1="475.03" y1="386.81" x2="504.17" y2="386.81"/>
				</g>
				<g>
					<g>
						<g>
							<g>
								<path class="st3" d="M550.07,271.23c-3.44-5.48-22.73-5.29-23.75-5.41c-5.22-0.61,3.35,40.9,14.2,77.18
									c2.08,6.96,9.73,10.58,16.42,7.75c0.07-0.03,0.14-0.06,0.22-0.09c5.29-2.24,8.3-7.85,7.23-13.5
									C559.22,309.78,554.04,277.57,550.07,271.23z"/>
							</g>
							<polygon class="st15" points="554.67,286.24 530.03,295.8 527.72,284.11 553.23,277.74 							"/>
							<path class="st15" d="M559.32,309.62c0,0-11.67,15.67-11.11,14.95c0.56-0.72,9.15-25.33,9.15-25.33L559.32,309.62z"/>
						</g>
						<g>
							<path class="st3" d="M576.01,288.55l-33.45,43.34c-4.39,5.69-2.99,13.92,3.04,17.83h0c6.02,3.91,14.09,1.85,17.51-4.46
								l27.85-51.37L576.01,288.55z"/>
							<g>
								<path class="st3" d="M584.67,299.68c-7.25-2.34-11.23-10.12-8.89-17.37c2.34-7.25,10.12-11.23,17.37-8.89
									c7.25,2.34,11.23,10.12,8.89,17.37C599.7,298.05,591.92,302.03,584.67,299.68z"/>
								<path class="st3" d="M598.97,278.26c0,0,3.78-3.92-2.92-6.67c-6.7-2.75-14.98-2.12-20.27,10.72L598.97,278.26z"/>
							</g>
							<g>
								<path class="st16" d="M605.91,250.87l14.01,6.07c0.78,0.34,1.06,1.26,0.63,2.06l-18.43,34.42c-0.43,0.8-1.41,1.18-2.19,0.84
									l-14.01-6.07c-0.78-0.34-1.06-1.26-0.63-2.06l18.43-34.42C604.15,250.9,605.13,250.53,605.91,250.87z"/>
								<path class="st17" d="M604.57,250.26l14.01,6.07c0.78,0.34,1.06,1.26,0.63,2.06l-18.43,34.42c-0.43,0.8-1.41,1.18-2.19,0.84
									l-14.01-6.07c-0.78-0.34-1.06-1.26-0.63-2.06l18.43-34.42C602.81,250.29,603.79,249.92,604.57,250.26z"/>
								<polygon class="st18" points="602.99,253.76 615.3,259.09 600.28,287.15 587.97,281.81 								"/>
								<polygon class="st9" points="615.3,259.09 587.97,281.81 602.99,253.76 								"/>
							</g>
							<path class="st3" d="M592.02,270.45c0,0,3.12,0.61,5.93,2.2c1.24,0.7,1.88,2.13,1.53,3.52l0,0c-0.31,1.26-1.37,2.2-2.66,2.36
								l-7.28,0.92c0,0-3.8,6.55-8.76,7.28l4.55-11.5L592.02,270.45z"/>
						</g>
					</g>
					<g>
						<g>
							<path class="st10" d="M499.03,216.64c-0.8,0,51.64,7.26,60.29,67.05l-27.21,4.17L526.62,333H450.7l-15.07-83.4
								c0,0,16.82-24.11,48.05-32.96H499.03z"/>
							<line class="st14" x1="532.11" y1="287.86" x2="534.47" y2="261.76"/>
						</g>
					</g>
				</g>
				<g>
					<path class="st3" d="M504.01,217.5v-20.77h-24.34v21.01c-1.25,0.37-3.32,1.12-6.54,2.65l18.98,11.31l19.41-11.31
						C511.52,220.39,508.44,218.6,504.01,217.5z"/>
					<path class="st19" d="M479.45,199.27c0,0,4.37,11.61,16.04,10.6c10.72-0.92,9.02-17.01,9.02-17.01L479.45,199.27z"/>
					<g>
						<path class="st15" d="M468.83,183.83c-3.82,3.46-12.35-9.66-8.66-13.35c3.69-3.68,6.5,2.1,6.5,2.1l1.65,3.92l1.24,5.31
							l0.3,1.39L468.83,183.83z"/>
						<g>
							<g>
								<path class="st20" d="M461.95,175.13c0,0,2.89-1.3,5.45,2.89"/>
							</g>
						</g>
					</g>
					<g>
						<path class="st15" d="M513.95,183.43c3.51,3.77,13.12-8.59,9.76-12.57c-3.36-3.98-6.65,1.54-6.65,1.54l-1.97,3.76l-1.69,5.18
							l-0.41,1.36L513.95,183.43z"/>
						<g>
							<g>
								<path class="st20" d="M521.53,175.35c0,0-2.77-1.54-5.68,2.42"/>
							</g>
						</g>
					</g>
					<g>
						<path class="st19" d="M462.14,157.96c0,17.37,13.25,25.61,29.59,25.61s29.59-8.24,29.59-25.61
							c0-17.37-13.25-29.19-29.59-29.19S462.14,140.59,462.14,157.96z"/>
					</g>
					<path class="st3" d="M466.16,159.17c0,10.67,1.51,19.87,3.01,26.4c1.47,6.4,5.62,10.86,11.47,14.46l1.07,0.66
						c6.2,3.81,14.2,3.9,20.49,0.23l0,0c6.35-3.7,10.79-8.58,12.16-15.44c2.49-12.48,2.76-26.31,2.76-26.31s2.37-26.92-25.12-26.4
						C464.52,133.29,466.16,159.17,466.16,159.17z"/>
					<g>
						<path class="st21" d="M489.97,174.54v3.73c0,0.22,0.04,0.43,0.12,0.63c0.31,0.76,1.18,1.13,1.98,0.92l1.71-0.45"/>
						<path class="st19" d="M485.6,160.09l-13.66,3.2c0,0,0.62-3.48,6.21-4.74C483.74,157.29,485.6,160.09,485.6,160.09z"/>
						<path class="st19" d="M497.73,160.09l13.19,3.2c0,0-0.6-3.48-5.99-4.74C499.53,157.29,497.73,160.09,497.73,160.09z"/>
						<ellipse class="st19" cx="480.41" cy="170.12" rx="2.3" ry="2.3"/>
						<path class="st19" d="M504.56,170.12c0,1.27-1.03,2.3-2.3,2.3c-1.27,0-2.3-1.03-2.3-2.3s1.03-2.3,2.3-2.3
							C503.52,167.82,504.56,168.85,504.56,170.12z"/>
						<path class="st9" d="M482.72,184.14h17.76C500.48,184.14,492.61,193.72,482.72,184.14z"/>
						<g>
							
								<ellipse transform="matrix(0.7071 -0.7071 0.7071 0.7071 19.501 389.1082)" class="st22" cx="479.45" cy="171.01" rx="9.8" ry="9.8"/>
							
								<ellipse transform="matrix(0.7071 -0.7071 0.7071 0.7071 26.549 406.1236)" class="st22" cx="503.51" cy="171.01" rx="9.8" ry="9.8"/>
							<path class="st22" d="M489.24,171.01c0,0,2.32-2.17,4.47,0"/>
							<line class="st22" x1="469.65" y1="171.01" x2="466.56" y2="170.94"/>
							<line class="st22" x1="513.3" y1="171.01" x2="516.41" y2="170.94"/>
						</g>
					</g>
					<path class="st19" d="M516.77,168.1c0,0-10.99-14.85-8.45-29.9c0,0,8.16,4.1,10.28,14.7
						C520.72,163.48,516.77,168.1,516.77,168.1z"/>
					<path class="st19" d="M466.14,169.1c0,0,12.76-16.87,10.23-31.92c0,0-8.85,5.11-10.98,15.71
						C463.27,163.48,466.14,169.1,466.14,169.1z"/>
					<path class="st19" d="M515.85,144.12c0,0-14.11,15.45-52.71,12.8c0,0,5.91-22.67,24.62-25.08
						C487.75,131.84,509.36,129.26,515.85,144.12z"/>
					
						<ellipse transform="matrix(0.1594 -0.9872 0.9872 0.1594 308.3611 614.2527)" class="st19" cx="514.86" cy="126.06" rx="18.43" ry="18.43"/>
				</g>
			</g>
			<g>
				<path class="st19" d="M289.86,329.75l-34.33-4.57l0.31-3.99l-40.15,5.35c0,0-21.91,58.73-2.41,180.82h27.93l9.73-123.8h3.57
					l10.05,123.8h27.93C311.99,385.27,289.86,329.75,289.86,329.75z"/>
				<g>
					<path class="st19" d="M287.12,162.72c-4.65-5.47-8.37-11.84-11.53-20.79c-3.39-9.61-14.51-5.7-14.51-5.7s-9.26-11.91-23.2-7.76
						c-13.94,4.15-18.78,14.07-19.06,25.86c-0.28,11.79-9.56,13.63-16.7,27.27c-12.61,24.08,8.62,44.36,47.25,38.73l0.05-0.37
						c3.8,1.16,8.47,1.66,14.16,1.32C310.01,218.52,305.53,184.38,287.12,162.72z"/>
					<g>
						<path class="st15" d="M271.92,180.58c3.82,3.46,12.35-9.66,8.66-13.35s-6.5,2.1-6.5,2.1l-1.65,3.92l-1.24,5.31l-0.3,1.39
							L271.92,180.58z"/>
						<g>
							<g>
								<path class="st20" d="M278.8,171.88c0,0-2.89-1.3-5.45,2.89"/>
							</g>
						</g>
					</g>
					<g>
						<path class="st15" d="M226.81,180.18c-3.51,3.77-13.12-8.59-9.76-12.57c3.36-3.98,6.65,1.54,6.65,1.54l1.97,3.76l1.69,5.18
							l0.41,1.36L226.81,180.18z"/>
						<g>
							<g>
								<path class="st20" d="M219.22,172.09c0,0,2.77-1.54,5.68,2.42"/>
							</g>
						</g>
					</g>
					<g>
						<path class="st19" d="M278.61,154.71c0,17.37-13.25,25.61-29.59,25.61s-29.59-8.24-29.59-25.61s13.25-29.19,29.59-29.19
							S278.61,137.33,278.61,154.71z"/>
					</g>
					<rect x="236.75" y="193.48" class="st3" width="24.34" height="31.52"/>
					<path class="st19" d="M233.19,191.51c0,0,6.77,13.52,15.11,15.63c2.23,0.56,4.6,0.37,6.75-0.39c3.14-1.11,7.12-5.79,7.79-10.96
						l0.31-2.96C263.16,192.83,248.33,200.91,233.19,191.51z"/>
					<path class="st3" d="M274.59,155.92c0,10.67-1.51,19.87-3.01,26.4c-1.47,6.4-5.62,10.86-11.47,14.46l-1.07,0.66
						c-6.2,3.81-14.2,3.9-20.49,0.23v0c-6.35-3.7-10.79-8.58-12.16-15.44c-2.49-12.48-2.76-26.31-2.76-26.31s-2.37-26.92,25.12-26.4
						C276.23,130.04,274.59,155.92,274.59,155.92z"/>
					<g>
						<path class="st23" d="M247.19,172.74v2.21c0,0.22,0.04,0.43,0.12,0.62c0.31,0.76,1.18,1.12,1.98,0.91l1.71-0.45"/>
						<path class="st19" d="M252.92,158.15l14.62,3.46c0,0-0.66-3.76-6.65-5.12C254.91,155.12,252.92,158.15,252.92,158.15z"/>
						<path class="st19" d="M245.24,158.15l-14.81,3.46c0,0,0.67-3.76,6.73-5.12C243.22,155.12,245.24,158.15,245.24,158.15z"/>
						<path class="st19" d="M239.94,167.22c0,1.26-1.03,2.29-2.3,2.29c-1.27,0-2.3-1.03-2.3-2.29c0-1.26,1.03-2.29,2.3-2.29
							C238.91,164.93,239.94,165.96,239.94,167.22z"/>
						<path class="st19" d="M261.77,167.22c0,1.26-1.03,2.29-2.3,2.29s-2.3-1.03-2.3-2.29c0-1.26,1.03-2.29,2.3-2.29
							S261.77,165.96,261.77,167.22z"/>
						<path class="st9" d="M238.42,180.32h20.22c0,0-1.43,5.55-10.59,5.55C241.06,185.88,238.42,180.32,238.42,180.32z"/>
					</g>
					<path class="st19" d="M223.99,164.84c0,0,10.99-14.85,8.45-29.9c0,0-8.16,4.1-10.28,14.7
						C220.04,160.23,223.99,164.84,223.99,164.84z"/>
					<path class="st19" d="M274.61,164.35c0,0-12.76-15.37-10.23-30.42c0,0,8.85,5.11,10.98,15.71
						C277.48,160.23,274.61,164.35,274.61,164.35z"/>
					<path class="st19" d="M224.91,140.87c0,0,12.61,16.95,51.21,14.3c0,0-4.41-24.17-23.12-26.58
						C253,128.59,231.4,126.01,224.91,140.87z"/>
				</g>
				<g>
					<g>
						<g>
							<path class="st3" d="M189.72,404.29c-0.56,0.88,32.13-142.24,22.42-140.07c-0.89,0.2-17.88,1.78-20.41,6.91
								c-7.32,14.89-12.58,132.07-12.58,132.07L189.72,404.29z"/>
							<path class="st3" d="M179.16,403.21c0,0-5.27,24.45,14.65,27.12c1.31,0.18,2.58-0.6,3.01-1.85l0.06-0.17
								c0.48-1.38-0.22-2.86-1.55-3.46c-3.25-1.45-8.28-5.12-5.79-13.45c0,0,2.88-0.35,4.47,5.02c0.41,1.38,1.96,2.08,3.25,1.43l0,0
								c0.88-0.44,1.37-1.39,1.25-2.36c-0.48-3.76-2.37-12.82-9.63-15.25L179.16,403.21z"/>
						</g>
						<path class="st15" d="M185.86,305.52c0,0,18.84,26.53,18.93,26.01c0.1-0.51,6.59-37.24,6.59-37.24l-22.86-9.9L185.86,305.52z"
							/>
					</g>
					<g>
						<path class="st5" d="M238.19,219.8c0.8,0-46.55,0.84-55.2,60.64l27.21,4.17l5.49,45.14h75.92l15.07-83.4
							c0,0-10.72-18.07-41.95-26.92L238.19,219.8z"/>
						<path class="st3" d="M215.05,227.03c0,0,6.69,8.88,34.11,8.88c27.16,0,34.11-9.35,34.11-9.35s-16.01-8.95-34.6-11.84
							C248.68,214.72,232.08,217.68,215.05,227.03z"/>
					</g>
				</g>
			</g>
			<g>
				<g>
					<g>
						<polygon class="st24" points="308.22,416.45 308.28,535.7 367.27,535.7 371.81,416.45 						"/>
						<polygon class="st24" points="436.3,416.45 436.24,535.7 377.25,535.7 372.71,416.45 						"/>
						<rect x="343.09" y="416.45" class="st24" width="60.99" height="41.43"/>
					</g>
					<line class="st25" x1="351.61" y1="457.88" x2="393.68" y2="457.88"/>
				</g>
				<g>
					<g>
						<g>
							<path class="st3" d="M473.57,312.39c3.66,40.41-0.2,69.85,0.87,144.2l-35.21,1.47l-5.25-139.17L473.57,312.39z"/>
							<path class="st15" d="M438.32,343.92c0,0,21.8-2,36.71-11.83l-0.39-8.65l-36.33,4.95L438.32,343.92z"/>
						</g>
						<path class="st7" d="M403.34,219.36c0,0,69.26,17.42,81.8,105.32c0,0-33.9,14.7-67.86,8.37l7.64-29.4L403.34,219.36z"/>
					</g>
					<g>
						<g>
							<path class="st3" d="M196.48,255.91l51.57,60.9l-15.78,44.44c0,0-39.19-54.49-56.8-96.61L196.48,255.91z"/>
							<g>
								<g>
									<g>
										<path class="st3" d="M198.17,258.11c0,0-18.11,10.23-22.71,6.53c-8.05-6.47-14.7-30.14-14.7-30.14
											s33.86-12.77,33.54-12.27C193.98,222.73,198.17,258.11,198.17,258.11z"/>
										<path class="st3" d="M198.17,258.11c-0.32-1.82,6.71-21.49,9.13-28.86c0.58-1.78-0.64-3.73-2.58-4.1l0,0
											c-1.26-0.24-3.25-0.09-4.19,1.72l-8.49,14.52L198.17,258.11z"/>
										<path class="st3" d="M197.55,236.85l-5.83-29.01c-0.35-1.93-2.29-3.26-4.22-2.89l0,0c-1.67,0.32-2.78,1.81-2.58,3.49
											l2.54,21.6L197.55,236.85z"/>
										<path class="st3" d="M185.96,226.15l-7.92-20.72c-0.65-1.81-2.7-2.82-4.5-2.22l0,0c-1.56,0.52-2.44,2.1-2.07,3.72
											l5.88,23.94L185.96,226.15z"/>
										<path class="st3" d="M177.45,232.26l-10.02-20.36c-0.92-1.89-3.21-2.77-5.09-1.95l0,0c-1.76,0.77-2.54,2.77-1.79,4.58
											l7.99,19.22L177.45,232.26z"/>
										<path class="st3" d="M160.76,234.5l-7.86-12.47c-0.65-1.47-0.05-3.11,1.37-3.76l0,0c1.36-0.62,3.05-0.13,3.93,1.14
											l10.34,14.34L160.76,234.5z"/>
									</g>
								</g>
								<path class="st26" d="M195.97,234.67c0,0-11.81-1.24-13.02,14.5"/>
							</g>
						</g>
						<g>
							<g>
								<path class="st3" d="M221.81,340.46c0,0,9.7,33.56,29.03,29.1c19.33-4.46,49.45-45.74,49.45-45.74l-6.74-70.48l-54.25,66.76
									L221.81,340.46z"/>
								<path class="st15" d="M256.12,299.37c0,0,18.31,27.62,33.94,37.36l10.23-12.91l-39.45-30.51L256.12,299.37z"/>
							</g>
							<path class="st7" d="M336.24,217.83c0,0-53.77,12.12-82.42,74.61c0,0,17.31,26.09,45.07,37.68l18.58-22.76L336.24,217.83z"/>
						</g>
					</g>
					<g>
						<path class="st7" d="M336.24,217.64c-21,10.77-34.21,25.06-34.21,25.06l4.14,182.67h132.36l-0.43-181.72
							c0,0-16.68-16.33-34.77-24.29C387.99,212.6,351.17,209.98,336.24,217.64z"/>
						<path class="st25" d="M400.55,306.65h-3.35c-9.24,0-16.74-7.49-16.74-16.74v-20.08h36.82v20.08
							C417.28,299.16,409.79,306.65,400.55,306.65z"/>
						<line class="st25" x1="438.32" y1="333.73" x2="440.04" y2="273.98"/>
						<line class="st25" x1="304.07" y1="323.77" x2="301.21" y2="271.98"/>
					</g>
				</g>
				<g>
					<path class="st19" d="M337.79,150.92l-5.52-27.3c-0.31-2.22-1.17-5.65-0.12-8.88c1.75-5.33,8.17-15.58,19.15-10.89l2.37,10.81
						c0,0-11.4,2.3-15.97,17.21L337.79,150.92z"/>
					<path class="st19" d="M350.5,109.5c-0.2,3.59-3.37,19.28-14.49,25C336,134.49,326.26,113.59,350.5,109.5z"/>
					<path class="st3" d="M389.54,212.61L389.54,212.61v-46.35h-42.73v46.35l-12.72,5.8c0,0,2.98,19.21,34.53,19.64
						c31.55,0.43,34.72-18.69,34.72-18.69L389.54,212.61z"/>
					<path class="st19" d="M351.31,103.86c0,0,7.84-20.69,32.02-9.69c14.64,6.66,18.74,15.58,20.48,21.9
						c0.58,2.1,0.81,5.41,0.65,7.38l-5.85,27.47l-22.84-38.01l-22.1,1.75L351.31,103.86z"/>
					<g>
						<path class="st15" d="M398.61,150.92c0,0,2.88-4.58,8.82-2.33c5.94,2.25,3.25,16.68-5.66,18.52c0,0-3.19,0.7-5.7-1.49
							C396.08,165.63,398.27,154.97,398.61,150.92z"/>
						<g>
							<g>
								<path class="st25" d="M406.26,153.68c0,0-4.98-1.66-8.51,5.67"/>
							</g>
						</g>
					</g>
					<g>
						<path class="st15" d="M337.79,150.92c0,0-2.88-4.58-8.82-2.33c-5.94,2.25-3.25,16.68,5.66,18.52c0,0,3.19,0.7,5.7-1.49
							C340.33,165.63,338.14,154.97,337.79,150.92z"/>
						<g>
							<g>
								<path class="st25" d="M330.15,153.68c0,0,4.98-1.66,8.51,5.67"/>
							</g>
						</g>
					</g>
					<path class="st3" d="M399.21,137.23c0,8.7-0.85,26.9-6.2,37.7c-5.02,10.14-13.32,15.6-24.21,15.92
						c-10.89,0.33-19-3.87-25.5-17.03c-6.5-13.16-6.19-36.43-6.19-36.43s0-31.07,30.71-31.07
						C400.17,106.32,399.21,137.23,399.21,137.23z"/>
					<path class="st19" d="M347.13,180.31c0,0,3.58,18.16,19.38,20.24c18.19,2.4,23.03-19.78,23.03-19.78s-8.04,10.07-20.74,10.08
						C354.63,190.87,347.13,180.31,347.13,180.31z"/>
					<g>
						<path class="st25" d="M365.97,150.13v7.19c0,0.31,0.06,0.6,0.17,0.88c0.43,1.07,1.65,1.58,2.76,1.28l2.38-0.63"/>
						<path class="st19" d="M356.9,146.7c0,1.54-1.25,2.8-2.8,2.8s-2.8-1.25-2.8-2.8c0-1.54,1.25-2.8,2.8-2.8
							S356.9,145.15,356.9,146.7z"/>
						<path class="st19" d="M383.11,146.7c0,1.54-1.25,2.8-2.8,2.8s-2.8-1.25-2.8-2.8c0-1.54,1.25-2.8,2.8-2.8
							S383.11,145.15,383.11,146.7z"/>
						<path class="st19" d="M373.16,132.79l18.8,4.86c0,0-0.85-5.27-8.54-7.19C375.72,128.54,373.16,132.79,373.16,132.79z"/>
						<path class="st19" d="M361.48,132.79l-18.8,4.86c0,0,0.85-5.27,8.54-7.19C358.92,128.54,361.48,132.79,361.48,132.79z"/>
						<path class="st25" d="M357.74,164.57c0,0,2.77,2.13,10.07,2.13c6.63,0,10.77-2.13,10.77-2.13"/>
						<g>
							<circle class="st27" cx="353.35" cy="147.51" r="11.88"/>
							<circle class="st27" cx="382.54" cy="147.51" r="11.88"/>
							<path class="st27" d="M365.23,147.51c0,0,2.81-2.63,5.42,0"/>
							<line class="st27" x1="341.47" y1="147.51" x2="337.49" y2="147.41"/>
							<line class="st27" x1="394.42" y1="147.51" x2="398.86" y2="147.44"/>
						</g>
					</g>
					<path class="st19" d="M347.13,110.2c0,0,5.71,16.21,31.45,15.71c17.49-0.34,21.67,12.32,21.67,12.32s-3.04-28.3-3.85-28.03
						c-0.8,0.27-26.62-6.89-26.62-6.89L347.13,110.2z"/>
				</g>
			</g>
		</g>
	</g>
</g>
<g id="DESIGNED_BY_FREEPIK" class="st0">
</g>
</svg>
