<?xml version="1.0" encoding="utf-8"?>
<!-- Generator: Adobe Illustrator 27.0.1, SVG Export Plug-In . SVG Version: 6.00 Build 0)  -->
<svg version="1.1" id="Layer_1" xmlns="http://www.w3.org/2000/svg" xmlns:xlink="http://www.w3.org/1999/xlink" x="0px" y="0px"
	 viewBox="0 0 3000 2500" style="enable-background:new 0 0 3000 2500;" xml:space="preserve">
<style type="text/css">
	.st0{opacity:0.75;}
	.st1{fill:url(#SVGID_1_);}
	.st2{fill:#332955;}
	.st3{fill:#49F2F2;}
	.st4{fill:#0F0923;}
	.st5{fill:#61BEF2;}
	.st6{fill:#78C8FF;}
	.st7{fill:#F5D451;}
	.st8{fill:#FFDF7B;}
	.st9{fill:#D6E1EA;}
	.st10{fill:#BAC7D3;}
	.st11{fill:none;stroke:#F5D451;stroke-width:16.1162;stroke-linecap:round;stroke-miterlimit:10;}
	.st12{fill:url(#SVGID_00000005962777725373174310000015056536421044108929_);}
	.st13{fill:url(#SVGID_00000054981956319519372610000003635564234835936910_);}
	.st14{fill:url(#SVGID_00000116234631356340890170000014427879397072356995_);}
	.st15{fill:url(#SVGID_00000092443650526162266430000001845257506030148775_);}
	.st16{fill:url(#SVGID_00000115509192064901599900000014549133362637965471_);}
	.st17{fill:url(#SVGID_00000068662854651681517770000005619353135915028378_);}
	.st18{fill:url(#SVGID_00000048478086705664316180000014673525671846309279_);}
	.st19{fill:url(#SVGID_00000131352564803409593200000000118119446843186333_);}
	.st20{fill:url(#SVGID_00000062193937782223923590000015457335467563208837_);}
	.st21{fill:url(#SVGID_00000104683913653984957350000016177336283107395238_);}
	.st22{fill:url(#SVGID_00000060720849935410196060000015393064897036734083_);}
	.st23{fill:#EAB91F;}
	.st24{fill:#231F20;}
	.st25{fill:#FB6D47;}
	.st26{fill:#F7F7F7;}
	.st27{fill:#A4DFFF;}
	.st28{fill:#40ADAD;}
	.st29{fill:#007EE5;}
	.st30{fill:#EDEDED;}
	.st31{fill:#FFFFFF;}
	.st32{opacity:0.44;}
	.st33{fill:#919EAA;}
	.st34{fill:#DFE3E8;}
	.st35{fill:#A0B0C1;}
	.st36{fill:#C3CDD8;}
	.st37{fill:#D1D9E0;}
	.st38{fill:#D0D8E0;}
	.st39{fill:url(#SVGID_00000008110865984656892870000015777062678007825049_);}
	.st40{fill:url(#SVGID_00000111896201391516458680000013638489824892675753_);}
	.st41{fill:url(#SVGID_00000033366186970637178930000015099680878821294731_);}
	.st42{fill:url(#SVGID_00000171702315667258564320000013424872896509920957_);}
	.st43{fill:url(#SVGID_00000145743786327222462910000007782749618514141093_);}
	.st44{fill:url(#SVGID_00000095321140682706468510000010304021348896218777_);}
	.st45{fill:url(#SVGID_00000150788741250448858840000009853978412368748935_);}
	.st46{fill:url(#SVGID_00000160887743421892366010000010002081929290746788_);}
	.st47{fill:url(#SVGID_00000072280895180765175770000015153748783462601898_);}
	.st48{fill:url(#SVGID_00000139271288922294854740000016178831693841729457_);}
	.st49{fill:url(#SVGID_00000179643064855517172010000005131538137703539588_);}
	.st50{fill:#0BAFC2;}
	.st51{fill:#A8B7C7;}
	.st52{opacity:0.55;}
	.st53{fill:url(#SVGID_00000054227347636584395770000004817562417810085045_);}
	.st54{fill:url(#SVGID_00000013914211193310448820000009532929222803895999_);}
	.st55{fill:url(#SVGID_00000057131654086992947340000015007642526943804293_);}
	.st56{fill:url(#SVGID_00000041289734022002076640000017619414735566792094_);}
	.st57{fill:url(#SVGID_00000071537833854503310610000015421330085410495654_);}
	.st58{fill:url(#SVGID_00000060009267635189859920000007305537732393666744_);}
	.st59{fill:#232323;}
	.st60{fill:#2B2B2B;}
	.st61{fill:#424242;}
	.st62{fill:#D3D3D3;}
	.st63{fill:#E2E2E2;}
	.st64{fill:#F4BA7F;}
	.st65{fill:url(#SVGID_00000147912666381390724990000006523809740194602137_);}
	.st66{fill:#FCC490;}
	.st67{fill:#303030;}
	.st68{fill:#2D2D2D;}
	.st69{fill:url(#SVGID_00000113317215193187490440000011324716420260807842_);}
	.st70{fill:url(#SVGID_00000040556742623671314520000004431747522348887743_);}
	.st71{fill:#13161D;}
	.st72{opacity:0.1;fill:#191919;}
	.st73{fill:#4C0CA8;}
	.st74{fill:#430280;}
	.st75{fill:#353535;}
	.st76{opacity:0.05;fill:#FFFFFF;}
	.st77{fill:url(#SVGID_00000123404419965368195160000016384601825105852856_);}
	.st78{fill:url(#SVGID_00000015334341811691598800000014537112974949287050_);}
	.st79{fill:url(#SVGID_00000126319580106799541710000000891065897904476834_);}
	.st80{fill:url(#SVGID_00000150795986234027062430000002955995818256856196_);}
	.st81{fill:url(#SVGID_00000019639614910971232120000012898106999410411181_);}
	.st82{fill:url(#SVGID_00000098920747404612109390000008555662467098421937_);}
	.st83{fill:#4E6DC4;}
	.st84{fill:url(#SVGID_00000080176982584833884830000006961603715405291172_);}
	.st85{fill:url(#SVGID_00000107583637645573843470000017320965925126206121_);}
	.st86{fill:#5AE595;}
	.st87{fill:url(#SVGID_00000159470438004817836240000000601739153134061456_);}
	.st88{fill:url(#SVGID_00000079465056403239352380000015348821420442951348_);}
	.st89{fill:url(#SVGID_00000067227164616978715070000002079121641727350962_);}
	.st90{opacity:0.69;}
	.st91{fill:url(#SVGID_00000035523407091384682320000005788731470038461837_);}
	.st92{fill:#EAEAEA;}
</style>
<g class="st0">
	<g>
		<linearGradient id="SVGID_1_" gradientUnits="userSpaceOnUse" x1="1526.6619" y1="868.7034" x2="1980.5533" y2="868.7034">
			<stop  offset="0" style="stop-color:#20B5D8"/>
			<stop  offset="1" style="stop-color:#8CEE98"/>
		</linearGradient>
		<path class="st1" d="M1980.55,852.52l0,294.42c0,13.84-9.71,19.44-21.7,12.53l-410.5-236.99c-11.98-6.92-21.7-23.74-21.7-37.58
			l0-294.42c0-13.84,9.71-19.46,21.7-12.54l410.5,236.99C1970.84,821.85,1980.55,838.68,1980.55,852.52z"/>
	</g>
	<g>
		<g>
			<path class="st2" d="M1980.55,852.52l0,38.27l-453.89-262.05l0-38.27c0-13.84,9.71-19.46,21.7-12.54l410.5,236.99
				C1970.84,821.85,1980.55,838.68,1980.55,852.52z"/>
		</g>
	</g>
	<g>
		<path class="st3" d="M1568.25,619.36c0,6.92-4.86,9.72-10.85,6.26c-5.99-3.46-10.85-11.87-10.85-18.79
			c0-6.92,4.86-9.72,10.85-6.26C1563.4,604.02,1568.25,612.44,1568.25,619.36z"/>
	</g>
	<g>
		<path class="st3" d="M1607.44,641.98c0,6.92-4.86,9.72-10.85,6.26c-5.99-3.46-10.85-11.87-10.85-18.79
			c0-6.92,4.86-9.72,10.85-6.26C1602.58,626.64,1607.44,635.06,1607.44,641.98z"/>
	</g>
	<g>
		<path class="st3" d="M1646.62,664.6c0,6.92-4.86,9.72-10.85,6.26c-5.99-3.46-10.85-11.87-10.85-18.79c0-6.92,4.86-9.72,10.85-6.26
			C1641.76,649.26,1646.62,657.68,1646.62,664.6z"/>
	</g>
	<g>
		<g>
			<path d="M1717.32,833.17l-46.72-54.07v-3.7l46.72-3.26l0,9.41l-34.88,2.2v0.25l34.88,39.83L1717.32,833.17z"/>
		</g>
		<g>
			<path d="M1776.1,785.12l-37.38,83.3l-8.31-4.8l37.27-83.37L1776.1,785.12z"/>
		</g>
		<g>
			<path d="M1836.78,875.04l-46.72,0.13v-9.35l34.99,0.63v-0.38l-34.99-42.53v-9.41l46.72,57.21L1836.78,875.04z"/>
		</g>
	</g>
	<g>
		<polygon points="1925.9,1011.33 1594.98,820.27 1594.98,802.99 1925.9,994.04 		"/>
	</g>
	<g>
		<polygon points="1925.9,1051 1594.97,859.95 1594.97,842.66 1925.9,1033.72 		"/>
	</g>
	<g>
		<polygon points="1778.02,1005.3 1594.97,899.62 1594.97,882.34 1778.02,988.01 		"/>
	</g>
</g>
<g>
	<g>
		<path class="st4" d="M1020.09,711.83c0,0,0,4.86-9.34,4.86c-9.11,0-8.93-4.86-8.93-4.86v-11.66h18.27V711.83z"/>
		<path class="st5" d="M1040.7,692.6c0,0,0,15.82-30.4,15.82c-29.65,0-29.07-15.82-29.07-15.82v-37.96h59.47V692.6z"/>
		<path class="st6" d="M1045.3,663.26c0,0,0,18.27-35.11,18.27c-34.25,0-33.57-18.27-33.57-18.27v-43.84h68.68V663.26z"/>
		<circle class="st7" cx="1011.25" cy="517.94" r="71.75"/>
		<ellipse class="st8" cx="1011.25" cy="477.4" rx="36.33" ry="29.55"/>
		<path class="st9" d="M1072.92,554.7c0,0-22.77,45.34-22.77,83.72c0,0-4.86,17.07-40.48,17.07c-34.3,0-37.28-17.07-37.28-17.07
			c0-31.11-14.96-66.8-20.63-79.19c-1.33-2.9-2.14-4.52-2.14-4.52s25.37,14.46,61.65,14.46
			C1049.61,569.16,1072.92,554.7,1072.92,554.7z"/>
		<path class="st10" d="M1067.85,562.04c-5.06,3.2-28.16,14.75-56.6,13.65c-31.32-1.21-53.28-9.97-53.28-9.97
			s17.48,45.84,14.42,72.71c0-31.11-14.96-66.8-20.63-79.19c0.67,0.26,1.31,0.57,1.93,0.92c0,0,21.95,12.73,57.07,13.52
			C1040.7,574.34,1063.72,564.53,1067.85,562.04z"/>
	</g>
	<line class="st11" x1="916.04" y1="512.11" x2="796.86" y2="465.05"/>
	<line class="st11" x1="923.41" y1="564.23" x2="848.35" y2="620.39"/>
	<line class="st11" x1="1117.86" y1="506.96" x2="1226.66" y2="457.45"/>
	<line class="st11" x1="1011.19" y1="417.67" x2="1011.27" y2="283.51"/>
	<line class="st11" x1="1079" y1="445.46" x2="1139.2" y2="337.93"/>
	<line class="st11" x1="935.77" y1="447.85" x2="856.45" y2="357.17"/>
	<line class="st11" x1="1101.67" y1="567.31" x2="1176.73" y2="623.47"/>
</g>
<g>
	
		<linearGradient id="SVGID_00000074412377102339162070000010245093819824102840_" gradientUnits="userSpaceOnUse" x1="1999.3944" y1="1199.9602" x2="2156.2925" y2="1199.9602">
		<stop  offset="0" style="stop-color:#FFB888"/>
		<stop  offset="0.2875" style="stop-color:#FF9B57"/>
		<stop  offset="1" style="stop-color:#FF6801"/>
	</linearGradient>
	<path style="fill:url(#SVGID_00000074412377102339162070000010245093819824102840_);" d="M2077.84,1109.37
		c-43.33-25.01-78.45-4.74-78.45,45.3c0,50.03,35.12,110.87,78.45,135.88c43.33,25.01,78.45,4.73,78.45-45.3
		C2156.29,1195.22,2121.17,1134.39,2077.84,1109.37z M2077.84,1274.73c-35.76-20.65-64.75-70.86-64.75-112.15
		c0-41.3,28.99-58.03,64.75-37.38c35.76,20.65,64.75,70.86,64.75,112.15C2142.6,1278.64,2113.6,1295.38,2077.84,1274.73z"/>
	
		<linearGradient id="SVGID_00000055670197446686182310000010396133138675102850_" gradientUnits="userSpaceOnUse" x1="2021.6415" y1="1192.5909" x2="2134.0461" y2="1192.5909">
		<stop  offset="0" style="stop-color:#FFB888"/>
		<stop  offset="0.2875" style="stop-color:#FF9B57"/>
		<stop  offset="1" style="stop-color:#FF6801"/>
	</linearGradient>
	<path style="fill:url(#SVGID_00000055670197446686182310000010396133138675102850_);" d="M2134.05,1207.4l-67.55,16.07
		c-8.83,2.09-21.05-7.42-27.27-21.21l-17.59-39l8.34-1.83l14.07,31.17c4.92,10.91,14.57,18.42,21.56,16.77l61.3-14.62
		c0.25-0.07,0.5-0.13,0.75-0.21L2134.05,1207.4z"/>
</g>
<g>
	
		<linearGradient id="SVGID_00000101085817999379502530000001205963798534185405_" gradientUnits="userSpaceOnUse" x1="2139.6335" y1="1114.9023" x2="2296.5317" y2="1114.9023">
		<stop  offset="0" style="stop-color:#FFB888"/>
		<stop  offset="0.2875" style="stop-color:#FF9B57"/>
		<stop  offset="1" style="stop-color:#FF6801"/>
	</linearGradient>
	<path style="fill:url(#SVGID_00000101085817999379502530000001205963798534185405_);" d="M2218.08,1024.31
		c-43.33-25.01-78.45-4.73-78.45,45.3c0,50.03,35.12,110.87,78.45,135.88c43.33,25.02,78.45,4.74,78.45-45.3
		C2296.54,1110.16,2261.41,1049.33,2218.08,1024.31z M2218.08,1189.67c-35.76-20.65-64.75-70.86-64.75-112.15
		c0-41.3,28.99-58.03,64.75-37.38c35.76,20.65,64.75,70.86,64.75,112.15C2282.84,1193.58,2253.84,1210.32,2218.08,1189.67z"/>
	<g>
		
			<linearGradient id="SVGID_00000160190714810995734340000000885325057560368798_" gradientUnits="userSpaceOnUse" x1="2186.0894" y1="1114.7422" x2="2250.0769" y2="1114.7422">
			<stop  offset="0" style="stop-color:#FFB888"/>
			<stop  offset="0.2875" style="stop-color:#FF9B57"/>
			<stop  offset="1" style="stop-color:#FF6801"/>
		</linearGradient>
		<path style="fill:url(#SVGID_00000160190714810995734340000000885325057560368798_);" d="M2196.44,1152.01l53.63-60.84
			l-10.91-13.69c-0.2,0.27-0.41,0.52-0.62,0.77l-52.03,59.09c-0.14,0.15-0.29,0.28-0.43,0.42L2196.44,1152.01z"/>
		
			<linearGradient id="SVGID_00000134939624882378793920000003016396293784454822_" gradientUnits="userSpaceOnUse" x1="2186.0957" y1="1115.0632" x2="2250.0769" y2="1115.0632">
			<stop  offset="0" style="stop-color:#FFB888"/>
			<stop  offset="0.2875" style="stop-color:#FF9B57"/>
			<stop  offset="1" style="stop-color:#FF6801"/>
		</linearGradient>
		<path style="fill:url(#SVGID_00000134939624882378793920000003016396293784454822_);" d="M2239.72,1176.99l-53.63-122.77
			l10.91-1.09c0.2,0.5,0.41,0.99,0.61,1.48l52.03,119.16c0.14,0.31,0.29,0.61,0.43,0.91L2239.72,1176.99z"/>
	</g>
</g>
<g>
	<g>
		
			<linearGradient id="SVGID_00000058574140915566289380000006643170014430065285_" gradientUnits="userSpaceOnUse" x1="2210.4734" y1="907.1595" x2="2367.3718" y2="907.1595">
			<stop  offset="0" style="stop-color:#FFB888"/>
			<stop  offset="0.2875" style="stop-color:#FF9B57"/>
			<stop  offset="1" style="stop-color:#FF6801"/>
		</linearGradient>
		<path style="fill:url(#SVGID_00000058574140915566289380000006643170014430065285_);" d="M2288.92,816.57
			c-43.33-25.01-78.45-4.73-78.45,45.3c0,50.03,35.12,110.87,78.45,135.88c43.33,25.02,78.45,4.74,78.45-45.29
			C2367.38,902.42,2332.25,841.59,2288.92,816.57z M2288.92,981.93c-35.76-20.65-64.75-70.86-64.75-112.15
			c0-41.3,28.99-58.03,64.75-37.38c35.76,20.65,64.75,70.86,64.75,112.15C2353.68,985.84,2324.68,1002.57,2288.92,981.93z"/>
	</g>
	<g>
		
			<linearGradient id="SVGID_00000005260843314382718660000008574958878033021316_" gradientUnits="userSpaceOnUse" x1="2192.2388" y1="852.6948" x2="2354.4021" y2="852.6948">
			<stop  offset="0" style="stop-color:#FFB888"/>
			<stop  offset="0.2875" style="stop-color:#FF9B57"/>
			<stop  offset="1" style="stop-color:#FF6801"/>
		</linearGradient>
		<path style="fill:url(#SVGID_00000005260843314382718660000008574958878033021316_);" d="M2288.93,805.33
			c18.69,10.79,35.98,27.56,50.24,47.25l-5.03,2.51l20.26,13.64l-1.81-22.87l-7.07,3.54c-15.92-22.5-35.45-41.67-56.6-53.88
			c-53.4-30.83-96.68-5.84-96.69,55.82c0,23.05,6.06,47.96,16.42,71.73l6.27-3.25c-8.96-21.12-14.2-43.15-14.2-63.57
			C2200.75,800.02,2240.22,777.22,2288.93,805.33z"/>
		
			<linearGradient id="SVGID_00000069398886453636463420000012839902497056879264_" gradientUnits="userSpaceOnUse" x1="2218.8044" y1="959.2757" x2="2385.6064" y2="959.2757">
			<stop  offset="0" style="stop-color:#FFB888"/>
			<stop  offset="0.2875" style="stop-color:#FF9B57"/>
			<stop  offset="1" style="stop-color:#FF6801"/>
		</linearGradient>
		<path style="fill:url(#SVGID_00000069398886453636463420000012839902497056879264_);" d="M2367.06,886.55l-6.22,3.22
			c10.24,22.54,16.27,46.34,16.27,68.3c0,56.24-39.48,79.03-88.18,50.91c-20.45-11.81-39.25-30.74-54.2-52.87l4.54-2.13
			l-20.46-18.05l4.61,25.48l4.9-2.29c16.58,25.01,37.65,46.43,60.61,59.68c53.39,30.83,96.68,5.84,96.68-55.82
			C2385.61,938.4,2378.71,911.72,2367.06,886.55z"/>
	</g>
	
		<linearGradient id="SVGID_00000114036678048610523020000004915540451142455189_" gradientUnits="userSpaceOnUse" x1="2278.5925" y1="907.1608" x2="2299.2524" y2="907.1608">
		<stop  offset="0" style="stop-color:#FFB888"/>
		<stop  offset="0.2875" style="stop-color:#FF9B57"/>
		<stop  offset="1" style="stop-color:#FF6801"/>
	</linearGradient>
	<path style="fill:url(#SVGID_00000114036678048610523020000004915540451142455189_);" d="M2299.25,913.12
		c0,6.59-4.63,9.26-10.33,5.97c-5.7-3.3-10.33-11.31-10.33-17.89c0-6.59,4.63-9.26,10.33-5.97
		C2294.63,898.53,2299.25,906.54,2299.25,913.12z"/>
</g>
<g>
	
		<linearGradient id="SVGID_00000180362794561388397190000004329763876314978944_" gradientUnits="userSpaceOnUse" x1="2989.0713" y1="-2473.1401" x2="3409.8918" y2="-2473.1401" gradientTransform="matrix(-0.5 -0.866 0.866 -0.5 5654.3467 2069.7058)">
		<stop  offset="0" style="stop-color:#FFB888"/>
		<stop  offset="0.2875" style="stop-color:#FF9B57"/>
		<stop  offset="1" style="stop-color:#FF6801"/>
	</linearGradient>
	<path style="fill:url(#SVGID_00000180362794561388397190000004329763876314978944_);" d="M1760.68,380.44l13,22.52
		c-0.16,0.68-0.33,1.35-0.48,2.04c0.89,0.53,1.76,1.1,2.63,1.69l2.19,3.79l1.67-0.96c17,13.42,29.82,36.71,29.82,55.81
		c0,21.48-16.21,29.56-36.31,18.44c0.02,0.12,0.04,0.23,0.06,0.35l-0.17-0.29l-31.87,18.4l20.83,36.07l21.84-12.61
		c2.61,7.88,5.53,15.74,8.76,23.53c14.56-7.69,36.65,4.18,49.8,26.96c13.13,22.76,12.37,47.86-1.55,56.59
		c4.11,5.36,8.35,10.56,12.71,15.6l-21,12.13l23.28,40.32l31.87-18.4l-0.16-0.27c0.08,0.07,0.17,0.14,0.25,0.22
		c0.44-22.99,15.54-32.97,34.13-22.24c11.64,6.72,21.92,20.01,28.08,34.77l-5.87,3.39l11.74,20.33c0.07,1.05,0.13,2.09,0.15,3.13
		c0.67,0.21,1.34,0.4,2,0.6l13,22.52l32.03-18.49l-1.36-2.36c-12.67-24.09-12.99-48.67-0.25-56c4.49-2.6,10.04-2.71,15.97-0.76
		l-20.15,11.64l22.01,38.11l31.98-18.47l0-0.01c8.96-11.28,15.59-25.71,19.45-42.99c-20.13-12.11-36.3-38.87-36.29-60.34
		c0-2.33,0.2-4.49,0.56-6.5l3.76,6.52l31.91-18.42l-0.06-0.1c0.04,0.02,0.08,0.04,0.12,0.06c-3.86-21.74-10.5-43.86-19.46-65.47
		c-14.52,7.69-36.64-4.2-49.78-26.95c-13.15-22.77-12.38-47.85,1.54-56.61c-14.26-18.55-30.06-35.36-46.96-49.57
		c0,0.05,0,0.09-0.01,0.13l-0.06-0.1l-31.91,18.42l3.76,6.52c-1.92-0.69-3.89-1.59-5.91-2.76c-18.59-10.73-33.68-38.12-34.12-61.62
		c-16.89-5.3-32.72-6.76-46.96-4.64c0.99,1.76,1.91,3.53,2.76,5.3l-2.99-5.17l-31.74,18.33l23.45,40.62l17.56-10.14
		c-1.55,4.19-4.03,7.46-7.49,9.46c-13.15,7.59-35.27-6.07-49.8-30.55c-0.05,0.06-0.09,0.12-0.14,0.18l-0.04-0.07L1760.68,380.44z
		 M1921.98,456.01c35.51,20.5,64.29,70.37,64.28,111.35c0.01,41.01-28.78,57.65-64.29,37.14c-35.5-20.49-64.28-70.35-64.3-111.36
		C1857.67,452.14,1886.47,435.51,1921.98,456.01z"/>
	<g>
		<g>
			
				<linearGradient id="SVGID_00000173882822249553276700000013513032552564071556_" gradientUnits="userSpaceOnUse" x1="3414.4968" y1="-2504.6123" x2="2695.4905" y2="-2487.6279" gradientTransform="matrix(-0.5 -0.866 0.866 -0.5 5654.3467 2069.7058)">
				<stop  offset="0" style="stop-color:#FFB888"/>
				<stop  offset="1" style="stop-color:#FFFFFF"/>
			</linearGradient>
			<path style="fill:url(#SVGID_00000173882822249553276700000013513032552564071556_);" d="M1924.11,740.2
				c16.91,5.3,32.72,6.76,46.98,4.67c-13.94-24.84-14.71-50.82-1.56-58.4c13.14-7.6,35.27,6.05,49.79,30.53
				c8.96-11.28,15.6-25.71,19.45-43c-20.13-12.11-36.3-38.87-36.29-60.34c0-21.47,16.17-29.57,36.3-18.43
				c-3.86-21.74-10.51-43.86-19.46-65.47c-14.52,7.69-36.64-4.2-49.78-26.96c-13.15-22.77-12.38-47.85,1.55-56.61
				c-14.26-18.55-30.06-35.36-46.96-49.57c-0.44,22.97-15.53,32.95-34.11,22.22c-18.59-10.73-33.68-38.12-34.13-61.62
				c-16.89-5.3-32.72-6.76-46.95-4.64c13.92,24.83,14.69,50.81,1.55,58.4c-13.15,7.59-35.27-6.07-49.8-30.55
				c-8.96,11.27-15.6,25.71-19.45,43.02c20.12,12.09,36.31,38.86,36.31,60.33c0,21.48-16.2,29.55-36.31,18.44
				c3.85,21.74,10.5,43.84,19.45,65.46c14.56-7.69,36.65,4.18,49.8,26.96c13.13,22.76,12.37,47.86-1.55,56.59
				c14.23,18.56,30.07,35.38,46.96,49.59c0.44-22.99,15.54-32.97,34.13-22.24C1908.58,689.3,1923.68,716.72,1924.11,740.2z
				 M1890,622.96c-35.5-20.49-64.28-70.35-64.3-111.36c0-41,28.8-57.63,64.31-37.13c35.51,20.5,64.29,70.37,64.28,111.35
				C1954.3,626.84,1925.51,643.48,1890,622.96z"/>
		</g>
	</g>
</g>
<g>
	<path class="st23" d="M1992.99,724.89l7.59,13.15c-0.09,0.4-0.19,0.79-0.28,1.19c0.52,0.32,1.04,0.67,1.55,1.02l1.26,2.18
		l0.96-0.56c9.93,7.84,17.43,21.43,17.43,32.59c0,12.54-9.46,17.26-21.21,10.77c0.01,0.07,0.03,0.14,0.04,0.21l-0.1-0.17
		L1981.63,796l12.16,21.06l12.75-7.36c1.52,4.6,3.22,9.19,5.11,13.74c8.5-4.49,21.4,2.44,29.08,15.75
		c7.67,13.29,7.22,27.95-0.91,33.05c2.4,3.13,4.88,6.16,7.43,9.11l-12.27,7.09l13.59,23.55l18.61-10.75l-0.09-0.16
		c0.05,0.04,0.1,0.09,0.15,0.13c0.26-13.43,9.07-19.25,19.93-12.99c6.8,3.92,12.8,11.68,16.39,20.31l-3.43,1.98l6.84,11.85
		c0.04,0.62,0.09,1.24,0.1,1.85c0.39,0.12,0.78,0.24,1.17,0.35l7.59,13.15l18.71-10.8l-0.8-1.38c-7.4-14.07-7.58-28.42-0.15-32.7
		c2.62-1.52,5.86-1.58,9.33-0.44l-11.77,6.79l12.85,22.26l18.68-10.78l0,0c5.23-6.59,9.1-15.01,11.36-25.1
		c-11.75-7.07-21.2-22.7-21.19-35.24c0-1.36,0.12-2.62,0.33-3.79l2.2,3.81l18.63-10.76l-0.03-0.06c0.02,0.01,0.05,0.02,0.07,0.04
		c-2.25-12.69-6.13-25.61-11.37-38.23c-8.48,4.49-21.4-2.45-29.07-15.74c-7.68-13.3-7.23-27.94,0.9-33.06
		c-8.32-10.83-17.55-20.65-27.42-28.95c0,0.03,0,0.05,0,0.08l-0.03-0.06l-18.63,10.76l2.2,3.81c-1.12-0.4-2.27-0.93-3.45-1.61
		c-10.86-6.26-19.67-22.26-19.93-35.99c-9.86-3.09-19.11-3.95-27.42-2.71c0.58,1.03,1.11,2.06,1.61,3.1l-1.74-3.02l-18.54,10.7
		l13.7,23.72l10.25-5.92c-0.9,2.44-2.35,4.36-4.37,5.52c-7.68,4.43-20.59-3.55-29.08-17.84c-0.03,0.03-0.05,0.07-0.08,0.1
		l-0.02-0.04L1992.99,724.89z M2087.18,769.02c20.73,11.97,37.54,41.09,37.54,65.03c0,23.95-16.81,33.67-37.54,21.69
		c-20.73-11.96-37.54-41.08-37.55-65.03C2049.63,766.76,2066.44,757.05,2087.18,769.02z"/>
	<g>
		<path class="st7" d="M2088.42,934.98c9.88,3.09,19.11,3.94,27.43,2.72c-8.14-14.5-8.59-29.68-0.91-34.1
			c7.67-4.44,20.59,3.53,29.08,17.83c5.23-6.59,9.11-15.02,11.36-25.11c-11.75-7.07-21.2-22.7-21.19-35.24
			c0-12.54,9.44-17.27,21.2-10.76c-2.25-12.69-6.13-25.61-11.37-38.23c-8.48,4.49-21.4-2.45-29.07-15.74
			c-7.68-13.3-7.23-27.94,0.9-33.06c-8.33-10.83-17.55-20.65-27.42-28.95c-0.25,13.42-9.07,19.24-19.92,12.97
			c-10.86-6.26-19.67-22.26-19.93-35.99c-9.86-3.09-19.11-3.95-27.42-2.71c8.13,14.5,8.58,29.67,0.9,34.11
			c-7.68,4.43-20.59-3.55-29.08-17.84c-5.23,6.58-9.11,15.02-11.36,25.12c11.75,7.06,21.21,22.69,21.2,35.23
			c0,12.54-9.46,17.26-21.2,10.77c2.25,12.7,6.13,25.6,11.36,38.22c8.5-4.49,21.4,2.44,29.08,15.75
			c7.67,13.29,7.22,27.95-0.91,33.05c8.31,10.84,17.56,20.66,27.42,28.96c0.26-13.43,9.07-19.25,19.93-12.99
			C2079.36,905.25,2088.17,921.26,2088.42,934.98z M2068.5,866.51c-20.73-11.96-37.54-41.08-37.55-65.03
			c0-23.94,16.82-33.65,37.55-21.68c20.73,11.97,37.54,41.09,37.54,65.03C2106.05,868.78,2089.24,878.49,2068.5,866.51z"/>
	</g>
</g>
<g>
	<g>
		<path class="st24" d="M1570.19,2234.55c-0.82,0-1.64-0.06-2.47-0.18c-9.09-1.36-15.36-9.82-14.01-18.92l90.77-609.08
			l341.95-197.42l93.79,520.99c1.63,9.05-4.38,17.7-13.43,19.33c-9.05,1.62-17.7-4.39-19.33-13.43l-85.4-474.38l-287.02,165.71
			l-88.4,593.19C1585.4,2228.61,1578.3,2234.55,1570.19,2234.55z"/>
	</g>
	<g>
		
			<rect x="1583.15" y="1808.75" transform="matrix(0.866 -0.5 0.5 0.866 -668.986 1154.0107)" class="st24" width="471.7" height="33.29"/>
	</g>
</g>
<g>
	
		<rect x="1413.17" y="1051.21" transform="matrix(0.5 -0.866 0.866 0.5 -626.8583 2012.8932)" class="st24" width="33.29" height="996.24"/>
</g>
<g>
	<g>
		<path class="st24" d="M755.27,1763.14c-0.82,0-1.64-0.06-2.47-0.18c-9.09-1.36-15.36-9.82-14.01-18.92l90.77-609.08l341.95-197.42
			l93.79,520.99c1.63,9.05-4.38,17.7-13.43,19.33c-9.05,1.62-17.7-4.38-19.33-13.43l-85.4-474.38l-287.02,165.71l-88.4,593.19
			C770.48,1757.21,763.37,1763.14,755.27,1763.14z"/>
	</g>
	<g>
		
			<rect x="768.23" y="1337.35" transform="matrix(0.866 -0.5 0.5 0.866 -542.4608 683.4088)" class="st24" width="471.7" height="33.29"/>
	</g>
</g>
<g>
	<path class="st25" d="M2049.76,1372.86l-840.23-485.12c-17.32-10-45.41-10-62.74,0l-474.3,273.84v-0.91h-36.3v32.41
		c-0.03,6.58,4.3,13.16,12.99,18.18l862.77,498.13c17.32,10,45.41,10,62.74,0l497.6-287.3c8.37-4.83,12.68-11.12,12.97-17.45h0.03
		v-31.78H2049.76z"/>
</g>
<g>
	<path class="st26" d="M2072.29,1389.52l-497.6,287.3c-17.32,10-45.41,10-62.74,0l-862.77-498.13c-17.32-10-17.32-26.22,0-36.22
		l497.6-287.3c17.32-10,45.41-10,62.74,0l862.77,498.13C2089.61,1363.3,2089.61,1379.52,2072.29,1389.52z"/>
</g>
<g>
	<g>
		<polygon class="st27" points="1682.43,1122.98 1738.57,1155.39 1682.43,1149.82 1629.04,1180.65 1572.9,1148.24 1626.29,1117.41 
					"/>
		<polygon class="st28" points="1732.81,1153.54 1682.31,1148.49 1682.12,1148.49 1629.06,1179.17 1575.42,1148.23 1626.56,1118.7 
			1682.31,1124.26 		"/>
		<polygon class="st29" points="1682.31,1124.26 1682.31,1148.49 1682.12,1148.49 1629.06,1179.17 1575.42,1148.23 1626.56,1118.7 
					"/>
		<polygon class="st30" points="1621.48,1114.9 1621.48,1261 1717.66,1205.47 1717.65,1059.37 		"/>
		<g>
			<polygon class="st6" points="1629.03,1393.49 1572.89,1361.08 1572.9,1148.24 1629.04,1180.65 			"/>
			<polygon class="st31" points="1619.68,1203.34 1582.25,1181.73 1582.25,1173.62 1619.68,1195.23 			"/>
			<polygon class="st31" points="1619.68,1216.5 1582.25,1194.9 1582.25,1186.79 1619.68,1208.4 			"/>
			<polygon class="st31" points="1619.68,1229.67 1582.25,1208.06 1582.25,1199.96 1619.68,1221.57 			"/>
			<polygon class="st31" points="1619.68,1242.84 1582.25,1221.23 1582.25,1213.13 1619.68,1234.74 			"/>
			<polygon class="st31" points="1614.59,1367.93 1587.34,1352.2 1587.34,1344.1 1614.59,1359.83 			"/>
			<polygon class="st31" points="1619.68,1340.01 1582.25,1318.4 1582.25,1243.99 1619.68,1265.6 			"/>
		</g>
		<polygon class="st29" points="1738.57,1330.24 1738.57,1155.39 1682.43,1149.81 1682.43,1149.82 1629.04,1180.65 1629.04,1393.49 
			1685.18,1361.08 1685.18,1361.07 		"/>
		<g class="st32">
			<path class="st31" d="M1647.42,1361.65v-170.39l39.11-22.57l33.67,3.35l0.01,147.6L1647.42,1361.65z M1649.01,1192.18v166.7
				l69.58-40.18l-0.01-145.22l-31.72-3.16L1649.01,1192.18z"/>
		</g>
		<polygon class="st26" points="1621.48,1176.3 1621.48,1114.9 1594.34,1099.24 1594.34,1160.63 		"/>
		<polygon class="st31" points="1717.65,1059.37 1621.48,1114.9 1594.34,1099.24 1690.52,1043.7 		"/>
		<polygon class="st27" points="1593.14,1158.45 1629.06,1179.17 1682.31,1148.49 1717.66,1152.02 1724.11,1153.95 1682.43,1149.82 
			1629.04,1180.65 1584.21,1154.77 		"/>
	</g>
	<g>
		<polygon class="st27" points="1746.89,1160.51 1803.03,1192.93 1746.89,1187.36 1693.5,1218.18 1637.36,1185.77 1690.75,1154.95 
					"/>
		<polygon class="st6" points="1797.27,1191.08 1746.77,1186.03 1746.58,1186.03 1693.52,1216.71 1639.89,1185.77 1691.03,1156.24 
			1746.77,1161.8 		"/>
		<polygon class="st29" points="1746.77,1161.8 1746.77,1186.03 1746.58,1186.03 1693.52,1216.71 1639.89,1185.77 1691.03,1156.24 
					"/>
		<polygon class="st30" points="1685.94,1152.44 1685.94,1298.54 1782.12,1243 1782.12,1096.9 		"/>
		<g>
			<polygon class="st6" points="1693.5,1431.03 1637.36,1398.61 1637.36,1185.77 1693.5,1218.18 			"/>
			<polygon class="st31" points="1684.14,1240.87 1646.71,1219.26 1646.72,1211.16 1684.14,1232.77 			"/>
			<polygon class="st31" points="1684.14,1254.04 1646.71,1232.43 1646.71,1224.33 1684.14,1245.94 			"/>
			<polygon class="st31" points="1684.14,1267.21 1646.71,1245.6 1646.71,1237.5 1684.14,1259.1 			"/>
			<polygon class="st31" points="1684.14,1280.37 1646.71,1258.77 1646.71,1250.66 1684.14,1272.27 			"/>
			<polygon class="st31" points="1679.05,1405.47 1651.8,1389.74 1651.8,1381.63 1679.05,1397.37 			"/>
			<polygon class="st31" points="1684.14,1377.55 1646.71,1355.94 1646.71,1281.53 1684.14,1303.13 			"/>
		</g>
		<polygon class="st29" points="1803.03,1367.78 1803.03,1192.93 1746.89,1187.34 1746.89,1187.36 1693.5,1218.18 1693.5,1431.03 
			1749.64,1398.61 1749.64,1398.6 		"/>
		<g class="st32">
			<path class="st31" d="M1711.88,1399.19v-170.39l39.11-22.57l33.67,3.35l0.01,147.6L1711.88,1399.19z M1713.48,1229.72v166.7
				l69.58-40.18l-0.01-145.22l-31.72-3.16L1713.48,1229.72z"/>
		</g>
		<polygon class="st26" points="1685.94,1213.83 1685.94,1152.44 1658.81,1136.77 1658.81,1198.17 		"/>
		<polygon class="st31" points="1782.12,1096.9 1685.94,1152.44 1658.81,1136.77 1754.98,1081.23 		"/>
	</g>
	<polygon class="st27" points="1657.6,1195.99 1693.52,1216.71 1746.77,1186.03 1782.12,1189.56 1788.58,1191.49 1746.89,1187.36 
		1693.5,1218.18 1648.67,1192.3 	"/>
</g>
<g>
	<g>
		<g>
			<g>
				<polygon class="st33" points="1520.41,1316.55 1527.65,1314.67 1592.6,1004.65 1585.35,1006.53 				"/>
			</g>
			<g>
				<polygon class="st33" points="1527.41,1314.81 1527.41,1293.04 1282.63,1434.37 1282.63,1456.13 				"/>
			</g>
		</g>
		<g>
			<g>
				<polygon class="st34" points="1585.35,1006.53 1592.6,1004.65 1211.78,785.87 1204.53,787.76 				"/>
			</g>
			<g>
				<polygon class="st35" points="1282.63,1456.13 1282.63,1434.37 901.8,1215.59 901.8,1237.35 				"/>
			</g>
		</g>
		<g>
			<polygon class="st36" points="1525.05,1294.4 1144.23,1075.62 901.8,1215.59 1282.63,1434.37 			"/>
		</g>
		<g>
			<polygon class="st33" points="1485.6,1288.43 1481.6,1290.74 1335.15,1375.31 1009.09,1187.99 1005.08,1185.69 1155.54,1098.82 
							"/>
		</g>
		<g>
			<polygon class="st37" points="1481.6,1290.74 1335.15,1375.31 1009.09,1187.99 1155.54,1103.43 			"/>
		</g>
		<g>
			<polygon class="st38" points="1585.35,1006.53 1204.53,787.76 1144.23,1075.62 1525.05,1294.4 			"/>
		</g>
		<g>
			
				<linearGradient id="SVGID_00000039102355171735885570000009278146966107500175_" gradientUnits="userSpaceOnUse" x1="1157.5443" y1="1039.3928" x2="1572.7261" y2="1039.3928">
				<stop  offset="0" style="stop-color:#E2E3E5"/>
				<stop  offset="1" style="stop-color:#EFEFEF"/>
			</linearGradient>
			<polygon style="fill:url(#SVGID_00000039102355171735885570000009278146966107500175_);" points="1572.73,1025.25 
				1563.67,1068.54 1522.84,1263.4 1231.47,1096.01 1157.54,1053.54 1198.37,858.68 1203.26,835.34 1207.44,815.38 			"/>
		</g>
		<g>
			
				<linearGradient id="SVGID_00000089532779651406592290000001791097661062315699_" gradientUnits="userSpaceOnUse" x1="1157.5443" y1="965.671" x2="1277.1742" y2="965.671">
				<stop  offset="0" style="stop-color:#20B5D8"/>
				<stop  offset="1" style="stop-color:#8CEE98"/>
			</linearGradient>
			<polygon style="fill:url(#SVGID_00000089532779651406592290000001791097661062315699_);" points="1277.17,877.8 1268.11,921.09 
				1231.47,1096.01 1157.54,1053.54 1198.37,858.68 1203.26,835.34 			"/>
		</g>
		<g>
			
				<linearGradient id="SVGID_00000147187619859163514400000004555693734601089471_" gradientUnits="userSpaceOnUse" x1="1280.7861" y1="991.4896" x2="1361.4044" y2="991.4896">
				<stop  offset="0" style="stop-color:#20B5D8"/>
				<stop  offset="1" style="stop-color:#8CEE98"/>
			</linearGradient>
			<polygon style="fill:url(#SVGID_00000147187619859163514400000004555693734601089471_);" points="1361.4,983.17 1349.63,1039.37 
				1280.79,999.81 1286.67,971.73 1292.55,943.61 			"/>
		</g>
		<g>
			<polygon class="st31" points="1254.61,926.13 1255.81,920.43 1200.78,888.82 1199.59,894.52 			"/>
		</g>
		<g>
			
				<linearGradient id="SVGID_00000181781327449267916260000001541024398823440062_" gradientUnits="userSpaceOnUse" x1="1285.0498" y1="1029.3159" x2="1341.2708" y2="1029.3159">
				<stop  offset="0" style="stop-color:#20B5D8"/>
				<stop  offset="1" style="stop-color:#8CEE98"/>
			</linearGradient>
			<polygon style="fill:url(#SVGID_00000181781327449267916260000001541024398823440062_);" points="1340.08,1047.97 
				1341.27,1042.27 1286.24,1010.66 1285.05,1016.36 			"/>
		</g>
		<g>
			
				<linearGradient id="SVGID_00000172437061000793899880000007944748524255364994_" gradientUnits="userSpaceOnUse" x1="1366.5157" y1="1076.7275" x2="1422.7367" y2="1076.7275">
				<stop  offset="0" style="stop-color:#20B5D8"/>
				<stop  offset="1" style="stop-color:#8CEE98"/>
			</linearGradient>
			<polygon style="fill:url(#SVGID_00000172437061000793899880000007944748524255364994_);" points="1421.54,1095.38 
				1422.74,1089.69 1367.71,1058.07 1366.52,1063.77 			"/>
		</g>
		<g>
			
				<linearGradient id="SVGID_00000053525423967409214460000010896377517912643213_" gradientUnits="userSpaceOnUse" x1="1449.6379" y1="1124.4154" x2="1505.859" y2="1124.4154">
				<stop  offset="0" style="stop-color:#20B5D8"/>
				<stop  offset="1" style="stop-color:#8CEE98"/>
			</linearGradient>
			<polygon style="fill:url(#SVGID_00000053525423967409214460000010896377517912643213_);" points="1504.67,1143.07 
				1505.86,1137.37 1450.83,1105.76 1449.64,1111.46 			"/>
		</g>
		<g>
			<polygon class="st31" points="1251.44,940.9 1252.63,935.21 1197.6,903.59 1196.41,909.29 			"/>
		</g>
		<g>
			<polygon class="st31" points="1248.26,955.68 1249.46,949.98 1194.43,918.36 1193.24,924.06 			"/>
		</g>
		<g>
			<polygon class="st31" points="1245.09,970.45 1246.28,964.75 1191.25,933.13 1190.06,938.83 			"/>
		</g>
		<g>
			<polygon class="st31" points="1241.91,985.22 1243.11,979.52 1188.08,947.9 1186.89,953.6 			"/>
		</g>
		<g>
			<polygon class="st31" points="1238.74,999.99 1239.93,994.29 1184.9,962.67 1183.71,968.37 			"/>
		</g>
		<g>
			<polygon class="st31" points="1235.56,1014.76 1236.76,1009.06 1181.73,977.45 1180.54,983.14 			"/>
		</g>
		<g>
			<polygon class="st31" points="1232.39,1029.53 1233.58,1023.83 1178.55,992.22 1177.36,997.92 			"/>
		</g>
		<g>
			
				<linearGradient id="SVGID_00000129163696752622827360000012661738577601834658_" gradientUnits="userSpaceOnUse" x1="1362.8984" y1="1039.3656" x2="1443.5168" y2="1039.3656">
				<stop  offset="0" style="stop-color:#20B5D8"/>
				<stop  offset="1" style="stop-color:#8CEE98"/>
			</linearGradient>
			<polygon style="fill:url(#SVGID_00000129163696752622827360000012661738577601834658_);" points="1443.52,1031.04 
				1431.74,1087.24 1362.9,1047.69 1368.78,1019.61 1374.67,991.49 			"/>
		</g>
		<g>
			
				<linearGradient id="SVGID_00000056385512590497361540000013986461530765418130_" gradientUnits="userSpaceOnUse" x1="1445.0107" y1="1087.2416" x2="1525.6292" y2="1087.2416">
				<stop  offset="0" style="stop-color:#20B5D8"/>
				<stop  offset="1" style="stop-color:#8CEE98"/>
			</linearGradient>
			<polygon style="fill:url(#SVGID_00000056385512590497361540000013986461530765418130_);" points="1525.63,1078.92 
				1513.85,1135.12 1445.01,1095.56 1450.89,1067.48 1456.78,1039.37 			"/>
		</g>
		<g>
			
				<linearGradient id="SVGID_00000014631797716041217840000012591893208267600259_" gradientUnits="userSpaceOnUse" x1="1263.048" y1="1077.192" x2="1343.6664" y2="1077.192">
				<stop  offset="0" style="stop-color:#20B5D8"/>
				<stop  offset="1" style="stop-color:#8CEE98"/>
			</linearGradient>
			<polygon style="fill:url(#SVGID_00000014631797716041217840000012591893208267600259_);" points="1343.67,1068.87 
				1331.89,1125.07 1263.05,1085.52 1268.93,1057.43 1274.82,1029.32 			"/>
		</g>
		<g>
			
				<linearGradient id="SVGID_00000012452373140709264420000007787645523206515884_" gradientUnits="userSpaceOnUse" x1="1345.1604" y1="1125.068" x2="1425.7786" y2="1125.068">
				<stop  offset="0" style="stop-color:#20B5D8"/>
				<stop  offset="1" style="stop-color:#8CEE98"/>
			</linearGradient>
			<polygon style="fill:url(#SVGID_00000012452373140709264420000007787645523206515884_);" points="1425.78,1116.74 1414,1172.94 
				1345.16,1133.39 1351.04,1105.31 1356.93,1077.19 			"/>
		</g>
		<g>
			
				<linearGradient id="SVGID_00000176723471010801247450000018360857909173873083_" gradientUnits="userSpaceOnUse" x1="1427.2727" y1="1172.944" x2="1507.891" y2="1172.944">
				<stop  offset="0" style="stop-color:#20B5D8"/>
				<stop  offset="1" style="stop-color:#8CEE98"/>
			</linearGradient>
			<polygon style="fill:url(#SVGID_00000176723471010801247450000018360857909173873083_);" points="1507.89,1164.62 
				1496.12,1220.82 1427.27,1181.27 1433.16,1153.19 1439.04,1125.07 			"/>
		</g>
		<g>
			<polygon class="st50" points="1198.37,858.68 1199.86,859.53 1563.67,1068.54 1572.73,1025.25 1207.44,815.39 			"/>
		</g>
		<g>
			<g>
				<g>
					<g>
						<g>
							<g>
								<polygon class="st33" points="1199.01,1141.68 1173.91,1156.14 1131.18,1131.56 1131.18,1126.98 1199.01,1137.1 								"/>
							</g>
							<g>
								<polygon class="st51" points="1199.01,1137.1 1173.91,1151.56 1131.18,1126.98 1156.21,1112.46 								"/>
							</g>
						</g>
					</g>
				</g>
				<g>
					<g>
						<g>
							<g>
								<polygon class="st33" points="1242.94,1166.74 1217.85,1181.2 1175.12,1156.62 1175.12,1152.04 1242.94,1162.17 								"/>
							</g>
							<g>
								<polygon class="st51" points="1242.94,1162.17 1217.85,1176.62 1175.12,1152.04 1200.15,1137.52 								"/>
							</g>
						</g>
					</g>
				</g>
				<g>
					<g>
						<g>
							<g>
								<polygon class="st33" points="1286.88,1191.81 1261.79,1206.26 1219.05,1181.68 1219.05,1177.1 1286.88,1187.23 								"/>
							</g>
							<g>
								<polygon class="st51" points="1286.88,1187.23 1261.79,1201.68 1219.05,1177.1 1244.08,1162.58 								"/>
							</g>
						</g>
					</g>
				</g>
				<g>
					<g>
						<g>
							<g>
								<polygon class="st33" points="1330.82,1216.86 1305.73,1231.32 1262.99,1206.74 1262.99,1202.16 1330.82,1212.28 								
									"/>
							</g>
							<g>
								<polygon class="st51" points="1330.82,1212.28 1305.73,1226.74 1262.99,1202.16 1288.02,1187.64 								"/>
							</g>
						</g>
					</g>
				</g>
				<g>
					<g>
						<g>
							<g>
								<polygon class="st33" points="1374.75,1241.92 1349.66,1256.38 1306.93,1231.8 1306.93,1227.22 1374.75,1237.34 								"/>
							</g>
							<g>
								<polygon class="st51" points="1374.75,1237.34 1349.66,1251.8 1306.93,1227.22 1331.96,1212.69 								"/>
							</g>
						</g>
					</g>
				</g>
				<g>
					<g>
						<g>
							<g>
								<polygon class="st33" points="1418.69,1266.98 1393.6,1281.44 1350.86,1256.85 1350.86,1252.28 1418.69,1262.4 								"/>
							</g>
							<g>
								<polygon class="st51" points="1418.69,1262.4 1393.6,1276.86 1350.86,1252.28 1375.89,1237.75 								"/>
							</g>
						</g>
					</g>
				</g>
				<g>
					<g>
						<g>
							<g>
								<polygon class="st33" points="1462.63,1292.04 1437.54,1306.5 1394.8,1281.91 1394.8,1277.34 1462.63,1287.46 								"/>
							</g>
							<g>
								<polygon class="st51" points="1462.63,1287.46 1437.54,1301.92 1394.8,1277.34 1419.83,1262.81 								"/>
							</g>
						</g>
					</g>
				</g>
			</g>
			<g>
				<g>
					<g>
						<g>
							<g>
								<polygon class="st33" points="1172.62,1156.8 1147.53,1171.26 1104.8,1146.67 1104.8,1142.1 1172.62,1152.22 								"/>
							</g>
							<g>
								<polygon class="st51" points="1172.62,1152.22 1147.53,1166.68 1104.8,1142.1 1129.83,1127.58 								"/>
							</g>
						</g>
					</g>
				</g>
				<g>
					<g>
						<g>
							<g>
								<polygon class="st33" points="1216.56,1181.86 1191.47,1196.32 1148.73,1171.74 1148.73,1167.16 1216.56,1177.28 								
									"/>
							</g>
							<g>
								<polygon class="st51" points="1216.56,1177.28 1191.47,1191.74 1148.73,1167.16 1173.77,1152.63 								"/>
							</g>
						</g>
					</g>
				</g>
				<g>
					<g>
						<g>
							<g>
								<polygon class="st33" points="1260.5,1206.92 1235.41,1221.38 1192.67,1196.79 1192.67,1192.22 1260.5,1202.34 								"/>
							</g>
							<g>
								<polygon class="st51" points="1260.5,1202.34 1235.41,1216.8 1192.67,1192.22 1217.7,1177.7 								"/>
							</g>
						</g>
					</g>
				</g>
				<g>
					<g>
						<g>
							<g>
								<polygon class="st33" points="1304.43,1231.98 1279.35,1246.44 1236.61,1221.85 1236.61,1217.28 1304.43,1227.4 								"/>
							</g>
							<g>
								<polygon class="st51" points="1304.43,1227.4 1279.35,1241.86 1236.61,1217.28 1261.64,1202.75 								"/>
							</g>
						</g>
					</g>
				</g>
				<g>
					<g>
						<g>
							<g>
								<polygon class="st33" points="1348.37,1257.04 1323.28,1271.5 1280.54,1246.91 1280.54,1242.34 1348.37,1252.46 								"/>
							</g>
							<g>
								<polygon class="st51" points="1348.37,1252.46 1323.28,1266.92 1280.54,1242.34 1305.58,1227.81 								"/>
							</g>
						</g>
					</g>
				</g>
				<g>
					<g>
						<g>
							<g>
								<polygon class="st33" points="1392.31,1282.1 1367.22,1296.56 1324.48,1271.97 1324.48,1267.4 1392.31,1277.52 								"/>
							</g>
							<g>
								<polygon class="st51" points="1392.31,1277.52 1367.22,1291.98 1324.48,1267.4 1349.51,1252.87 								"/>
							</g>
						</g>
					</g>
				</g>
				<g>
					<g>
						<g>
							<g>
								<polygon class="st33" points="1436.24,1307.16 1411.15,1321.62 1368.42,1297.04 1368.42,1292.46 1436.24,1302.58 								
									"/>
							</g>
							<g>
								<polygon class="st51" points="1436.24,1302.58 1411.15,1317.04 1368.42,1292.46 1393.45,1277.94 								"/>
							</g>
						</g>
					</g>
				</g>
			</g>
			<g>
				<g>
					<g>
						<g>
							<g>
								<polygon class="st33" points="1146.24,1171.92 1121.15,1186.38 1078.41,1161.79 1078.41,1157.22 1146.24,1167.34 								
									"/>
							</g>
							<g>
								<polygon class="st51" points="1146.24,1167.34 1121.15,1181.8 1078.41,1157.22 1103.45,1142.69 								"/>
							</g>
						</g>
					</g>
				</g>
				<g>
					<g>
						<g>
							<g>
								<polygon class="st33" points="1190.18,1196.98 1165.09,1211.44 1122.35,1186.85 1122.35,1182.28 1190.18,1192.4 								"/>
							</g>
							<g>
								<polygon class="st51" points="1190.18,1192.4 1165.09,1206.86 1122.35,1182.28 1147.38,1167.75 								"/>
							</g>
						</g>
					</g>
				</g>
				<g>
					<g>
						<g>
							<g>
								<polygon class="st33" points="1234.11,1222.04 1209.03,1236.49 1166.29,1211.91 1166.29,1207.34 1234.11,1217.46 								
									"/>
							</g>
							<g>
								<polygon class="st51" points="1234.11,1217.46 1209.03,1231.92 1166.29,1207.34 1191.32,1192.82 								"/>
							</g>
						</g>
					</g>
				</g>
				<g>
					<g>
						<g>
							<g>
								<polygon class="st33" points="1278.05,1247.1 1252.96,1261.56 1210.22,1236.97 1210.22,1232.4 1278.05,1242.52 								"/>
							</g>
							<g>
								<polygon class="st51" points="1278.05,1242.52 1252.96,1256.98 1210.22,1232.4 1235.25,1217.87 								"/>
							</g>
						</g>
					</g>
				</g>
				<g>
					<g>
						<g>
							<g>
								<polygon class="st33" points="1321.99,1272.16 1296.9,1286.61 1254.16,1262.03 1254.16,1257.46 1321.99,1267.58 								"/>
							</g>
							<g>
								<polygon class="st51" points="1321.99,1267.58 1296.9,1282.04 1254.16,1257.46 1279.19,1242.93 								"/>
							</g>
						</g>
					</g>
				</g>
				<g>
					<g>
						<g>
							<g>
								<polygon class="st33" points="1365.92,1297.22 1340.84,1311.68 1298.1,1287.09 1298.1,1282.52 1365.92,1292.64 								"/>
							</g>
							<g>
								<polygon class="st51" points="1365.92,1292.64 1340.84,1307.1 1298.1,1282.52 1323.13,1267.99 								"/>
							</g>
						</g>
					</g>
				</g>
				<g>
					<g>
						<g>
							<g>
								<polygon class="st33" points="1409.86,1322.28 1384.77,1336.74 1342.04,1312.15 1342.04,1307.58 1409.86,1317.71 								
									"/>
							</g>
							<g>
								<polygon class="st51" points="1409.86,1317.71 1384.77,1332.16 1342.04,1307.58 1367.07,1293.05 								"/>
							</g>
						</g>
					</g>
				</g>
			</g>
			<g>
				<g>
					<g>
						<g>
							<g>
								<polygon class="st33" points="1119.86,1187.04 1094.77,1201.49 1052.03,1176.91 1052.03,1172.34 1119.86,1182.46 								
									"/>
							</g>
							<g>
								<polygon class="st51" points="1119.86,1182.46 1094.77,1196.92 1052.03,1172.34 1077.07,1157.81 								"/>
							</g>
						</g>
					</g>
				</g>
				<g>
					<g>
						<g>
							<g>
								<polygon class="st33" points="1163.8,1212.1 1138.71,1226.56 1095.97,1201.97 1095.97,1197.4 1163.8,1207.52 								"/>
							</g>
							<g>
								<polygon class="st51" points="1163.8,1207.52 1138.71,1221.98 1095.97,1197.4 1121,1182.87 								"/>
							</g>
						</g>
					</g>
				</g>
				<g>
					<g>
						<g>
							<g>
								<polygon class="st33" points="1207.73,1237.16 1182.65,1251.61 1139.91,1227.03 1139.91,1222.46 1207.73,1232.58 								
									"/>
							</g>
							<g>
								<polygon class="st51" points="1207.73,1232.58 1182.65,1247.04 1139.91,1222.46 1164.94,1207.93 								"/>
							</g>
						</g>
					</g>
				</g>
				<g>
					<g>
						<g>
							<g>
								<polygon class="st33" points="1251.67,1262.22 1226.58,1276.68 1183.84,1252.09 1183.84,1247.51 1251.67,1257.64 								
									"/>
							</g>
							<g>
								<polygon class="st51" points="1251.67,1257.64 1226.58,1272.1 1183.84,1247.51 1208.87,1232.99 								"/>
							</g>
						</g>
					</g>
				</g>
				<g>
					<g>
						<g>
							<g>
								<polygon class="st33" points="1295.61,1287.28 1270.52,1301.74 1227.78,1277.15 1227.78,1272.58 1295.61,1282.7 								"/>
							</g>
							<g>
								<polygon class="st51" points="1295.61,1282.7 1270.52,1297.16 1227.78,1272.58 1252.81,1258.05 								"/>
							</g>
						</g>
					</g>
				</g>
				<g>
					<g>
						<g>
							<g>
								<polygon class="st33" points="1339.54,1312.34 1314.46,1326.8 1271.72,1302.21 1271.72,1297.64 1339.54,1307.76 								"/>
							</g>
							<g>
								<polygon class="st51" points="1339.54,1307.76 1314.46,1322.22 1271.72,1297.64 1296.75,1283.11 								"/>
							</g>
						</g>
					</g>
				</g>
				<g>
					<g>
						<g>
							<g>
								<polygon class="st33" points="1383.48,1337.4 1358.39,1351.86 1315.65,1327.27 1315.65,1322.7 1383.48,1332.82 								"/>
							</g>
							<g>
								<polygon class="st51" points="1383.48,1332.82 1358.39,1347.27 1315.65,1322.7 1340.68,1308.17 								"/>
							</g>
						</g>
					</g>
				</g>
			</g>
			<g>
				<g>
					<g>
						<g>
							<g>
								<polygon class="st33" points="1093.48,1202.16 1068.39,1216.61 1025.65,1192.03 1025.65,1187.45 1093.48,1197.58 								
									"/>
							</g>
							<g>
								<polygon class="st51" points="1093.48,1197.58 1068.39,1212.04 1025.65,1187.45 1050.69,1172.93 								"/>
							</g>
						</g>
					</g>
				</g>
				<g>
					<g>
						<g>
							<g>
								<polygon class="st33" points="1137.41,1227.22 1112.33,1241.67 1069.59,1217.09 1069.59,1212.51 1137.41,1222.64 								
									"/>
							</g>
							<g>
								<polygon class="st51" points="1137.41,1222.64 1112.33,1237.09 1069.59,1212.51 1094.62,1197.99 								"/>
							</g>
						</g>
					</g>
				</g>
				<g>
					<g>
						<g>
							<g>
								<polygon class="st33" points="1181.35,1252.28 1156.26,1266.73 1113.52,1242.15 1113.52,1237.57 1181.35,1247.7 								"/>
							</g>
							<g>
								<polygon class="st51" points="1225.29,1272.76 1200.2,1287.22 1113.52,1237.57 1138.55,1223.05 								"/>
							</g>
						</g>
					</g>
				</g>
				<g>
					<g>
						<g>
							<g>
								<polygon class="st33" points="1225.29,1277.34 1200.2,1291.8 1156.26,1266.73 1157.46,1262.63 1225.29,1272.76 								"/>
							</g>
							<g>
								<polygon class="st51" points="1269.23,1297.82 1244.14,1312.28 1157.46,1262.63 1182.39,1248.17 								"/>
							</g>
						</g>
					</g>
				</g>
				<g>
					<g>
						<g>
							<g>
								<polygon class="st33" points="1269.22,1302.4 1244.14,1316.85 1200.2,1291.8 1201.4,1287.69 1269.22,1297.82 								"/>
							</g>
							<g>
								<polygon class="st51" points="1269.22,1297.82 1244.14,1312.28 1201.4,1287.69 1226.43,1273.17 								"/>
							</g>
						</g>
					</g>
				</g>
				<g>
					<g>
						<g>
							<g>
								<polygon class="st33" points="1313.16,1327.46 1288.07,1341.91 1245.33,1317.33 1245.33,1312.76 1313.16,1322.88 								
									"/>
							</g>
							<g>
								<polygon class="st51" points="1313.16,1322.88 1288.07,1337.34 1245.33,1312.76 1270.36,1298.23 								"/>
							</g>
						</g>
					</g>
				</g>
				<g>
					<g>
						<g>
							<g>
								<polygon class="st33" points="1357.1,1352.52 1332.01,1366.97 1289.27,1342.39 1289.27,1337.81 1357.1,1347.94 								"/>
							</g>
							<g>
								<polygon class="st51" points="1357.1,1347.94 1332.01,1362.4 1289.27,1337.81 1314.3,1323.29 								"/>
							</g>
						</g>
					</g>
				</g>
			</g>
		</g>
		<g>
			<g>
				<polygon class="st33" points="1208.56,1313.1 1205.61,1314.78 1154.28,1344.41 1051.19,1284.97 1048.3,1283.28 1102.46,1251.96 
									"/>
			</g>
			<g>
				<polygon class="st51" points="1205.61,1314.78 1154.28,1344.41 1051.19,1284.97 1102.46,1255.33 				"/>
			</g>
		</g>
	</g>
</g>
<g class="st52">
	<g>
		
			<linearGradient id="SVGID_00000181074850242898570780000002668148958512571264_" gradientUnits="userSpaceOnUse" x1="1214.0377" y1="839.3891" x2="1515.5398" y2="839.3891">
			<stop  offset="0" style="stop-color:#E2E3E5"/>
			<stop  offset="1" style="stop-color:#EFEFEF"/>
		</linearGradient>
		<polygon style="fill:url(#SVGID_00000181074850242898570780000002668148958512571264_);" points="1515.54,1023.17 1214.04,849.1 
			1214.04,655.61 1515.54,829.67 		"/>
	</g>
	<g>
		<g>
			<path d="M1270.49,805.43l-27.62-32.29l0-2.23l27.62-2.28l0,5.67l-20.62,1.56v0.15l20.62,23.78L1270.49,805.43z"/>
		</g>
		<g>
			<path d="M1319.8,838.69l-5.4-3.12l0-24.73l-23.83-13.76l0,24.73l-5.4-3.12l0-54.23l5.4,3.12l0,23.79l23.83,13.76l0-23.79
				l5.4,3.12L1319.8,838.69z"/>
		</g>
		<g>
			<path d="M1359.12,812.91l-13.3-7.68l0,48.48l-5.4-3.12l0-48.48l-13.27-7.66v-5.75l31.96,18.45V812.91z"/>
		</g>
		<g>
			<path d="M1413.31,892.68l-5.36-3.1l0-36.38c0-2.87,0.15-6.3,0.45-10.29l-0.13-0.07c-0.51,2.15-0.97,3.63-1.38,4.46l-15.74,32.59
				l-2.63-1.52l-15.71-50.44c-0.45-1.47-0.91-3.59-1.38-6.36l-0.13-0.07c0.17,2.27,0.26,5.86,0.26,10.77l0,36.3l-5.2-3l0-54.23
				l7.13,4.12l14.13,45.98c1.09,3.53,1.8,6.11,2.12,7.73l0.19,0.11c0.92-2.44,1.66-4.24,2.22-5.38l14.42-29.34l6.75,3.89
				L1413.31,892.68z"/>
		</g>
		<g>
			<path d="M1449.32,913.47l-23.9-13.8l0-54.23l5.4,3.12l0,48.48l18.5,10.68V913.47z"/>
		</g>
		<g>
			<path d="M1486.71,913.91l-27.62,0.39l0-5.63l20.69,0.14v-0.23l-20.69-25.41l0-5.67l27.62,34.18V913.91z"/>
		</g>
	</g>
</g>
<g class="st52">
	<g>
		<g>
			
				<linearGradient id="SVGID_00000155113709822934574860000005007439621785809065_" gradientUnits="userSpaceOnUse" x1="1265.0643" y1="665.3759" x2="1566.5663" y2="665.3759">
				<stop  offset="0" style="stop-color:#20B5D8"/>
				<stop  offset="1" style="stop-color:#8CEE98"/>
			</linearGradient>
			<polygon style="fill:url(#SVGID_00000155113709822934574860000005007439621785809065_);" points="1566.56,849.16 1265.06,675.09 
				1265.07,481.59 1566.57,655.66 			"/>
		</g>
	</g>
	<g>
		<g>
			<path d="M1358.11,646.29l-24.92-29.13v-2.01l24.92-2.05v5.12l-18.61,1.4v0.14l18.61,21.45V646.29z"/>
		</g>
		<g>
			<path d="M1399.64,672.55c-3.07,0.14-6.9-1.12-11.48-3.76c-5.91-3.41-10.65-8.39-14.2-14.92c-3.55-6.53-5.33-13.44-5.33-20.72
				c0-7.82,2-12.99,6-15.51c4-2.51,9.07-2,15.21,1.55c3.94,2.28,7.21,4.83,9.8,7.67v6.11c-2.97-3.67-6.26-6.55-9.85-8.62
				c-4.77-2.75-8.64-3.11-11.61-1.07c-2.97,2.04-4.45,6.2-4.45,12.48c0,5.96,1.39,11.51,4.16,16.64c2.77,5.14,6.41,9.01,10.91,11.6
				c4.17,2.41,7.79,3.4,10.84,2.98V672.55z"/>
		</g>
		<g>
			<path d="M1406.16,676.38v-6.76c0.66,1.06,1.44,2.13,2.36,3.21c0.92,1.08,1.88,2.09,2.9,3.05c1.01,0.96,2.03,1.84,3.06,2.64
				c1.02,0.8,1.97,1.45,2.84,1.95c2.99,1.73,5.23,2.37,6.71,1.91c1.48-0.45,2.22-1.91,2.22-4.37c0-1.32-0.25-2.61-0.74-3.87
				c-0.49-1.26-1.17-2.55-2.04-3.86c-0.87-1.31-1.9-2.68-3.09-4.1c-1.19-1.42-2.47-2.94-3.84-4.55c-1.45-1.7-2.8-3.36-4.06-4.97
				c-1.26-1.61-2.35-3.22-3.27-4.82c-0.93-1.6-1.66-3.24-2.19-4.9c-0.53-1.66-0.8-3.4-0.8-5.22c0-2.23,0.42-3.93,1.25-5.1
				c0.83-1.17,1.92-1.9,3.27-2.19c1.35-0.29,2.89-0.2,4.62,0.28c1.73,0.48,3.49,1.23,5.29,2.27c4.09,2.36,7.08,4.67,8.96,6.91v6.45
				c-2.45-3.42-5.6-6.24-9.45-8.46c-1.06-0.61-2.13-1.1-3.19-1.45c-1.06-0.35-2.01-0.47-2.84-0.36c-0.83,0.11-1.51,0.48-2.03,1.11
				c-0.52,0.63-0.78,1.62-0.78,2.96c0,1.25,0.2,2.45,0.59,3.58c0.4,1.14,0.98,2.31,1.75,3.5c0.77,1.2,1.72,2.47,2.83,3.81
				c1.11,1.35,2.39,2.86,3.84,4.54c1.49,1.72,2.9,3.45,4.23,5.17c1.33,1.72,2.5,3.46,3.51,5.2c1,1.74,1.8,3.48,2.39,5.23
				c0.59,1.75,0.88,3.54,0.88,5.36c0,2.41-0.4,4.22-1.2,5.43c-0.8,1.21-1.88,1.94-3.25,2.2c-1.36,0.26-2.93,0.11-4.71-0.45
				c-1.78-0.56-3.65-1.41-5.62-2.55c-0.66-0.38-1.47-0.91-2.43-1.59c-0.97-0.68-1.95-1.43-2.96-2.25c-1-0.82-1.96-1.66-2.85-2.53
				C1407.42,677.93,1406.7,677.12,1406.16,676.38z"/>
		</g>
		<g>
			<path d="M1437.69,694.58v-6.75c0.66,1.06,1.44,2.13,2.36,3.21c0.92,1.08,1.88,2.09,2.9,3.05c1.01,0.96,2.03,1.84,3.06,2.64
				c1.02,0.8,1.97,1.44,2.84,1.95c2.99,1.73,5.23,2.37,6.71,1.91c1.48-0.45,2.22-1.91,2.22-4.37c0-1.32-0.25-2.61-0.74-3.87
				c-0.49-1.26-1.17-2.55-2.04-3.86c-0.87-1.31-1.9-2.68-3.09-4.1c-1.19-1.42-2.47-2.94-3.84-4.55c-1.45-1.7-2.8-3.36-4.06-4.97
				c-1.26-1.61-2.35-3.22-3.27-4.82c-0.93-1.6-1.66-3.24-2.19-4.9c-0.53-1.66-0.8-3.4-0.8-5.22c0-2.23,0.42-3.93,1.25-5.1
				c0.83-1.17,1.92-1.9,3.27-2.19c1.35-0.29,2.89-0.19,4.62,0.28c1.73,0.47,3.49,1.23,5.29,2.27c4.1,2.36,7.08,4.67,8.96,6.91v6.45
				c-2.45-3.42-5.6-6.24-9.45-8.46c-1.06-0.61-2.13-1.1-3.19-1.45c-1.06-0.35-2.01-0.47-2.84-0.36c-0.83,0.11-1.51,0.48-2.03,1.11
				c-0.52,0.63-0.78,1.62-0.78,2.96c0,1.25,0.2,2.45,0.59,3.58c0.4,1.14,0.98,2.31,1.75,3.5c0.77,1.2,1.72,2.47,2.83,3.81
				c1.11,1.35,2.39,2.86,3.84,4.54c1.49,1.72,2.9,3.45,4.23,5.17c1.33,1.73,2.5,3.46,3.51,5.2c1,1.74,1.8,3.48,2.39,5.23
				c0.59,1.75,0.88,3.54,0.88,5.36c0,2.41-0.4,4.22-1.2,5.43c-0.8,1.21-1.88,1.94-3.25,2.2c-1.36,0.26-2.93,0.11-4.71-0.45
				c-1.78-0.56-3.65-1.41-5.62-2.55c-0.66-0.38-1.47-0.91-2.44-1.59c-0.97-0.68-1.95-1.43-2.96-2.25c-1-0.82-1.96-1.66-2.85-2.53
				C1438.95,696.14,1438.23,695.33,1437.69,694.58z"/>
		</g>
		<g>
			<path d="M1498.52,712.61l-24.92,0.35v-5.08l18.66,0.13v-0.21l-18.66-22.92v-5.12l24.92,30.83V712.61z"/>
		</g>
	</g>
</g>
<g>
	
		<linearGradient id="SVGID_00000110451247290480876970000004433155452007491463_" gradientUnits="userSpaceOnUse" x1="415.1374" y1="621.9545" x2="777.2805" y2="621.9545">
		<stop  offset="0" style="stop-color:#E2E3E5"/>
		<stop  offset="1" style="stop-color:#EFEFEF"/>
	</linearGradient>
	<path style="fill:url(#SVGID_00000110451247290480876970000004433155452007491463_);" d="M777.28,602.49
		c0-62.53-81.07-113.22-181.07-113.22c-100,0-181.07,50.69-181.07,113.22c0,62.53,81.07,113.22,181.07,113.22
		c60.96,0,114.89-18.84,147.7-47.71l33.37,86.65V610.8l-0.52,0.32C777.1,608.27,777.28,605.39,777.28,602.49z"/>
	<g>
		
			<linearGradient id="SVGID_00000176729054267336006090000009427564075770885281_" gradientUnits="userSpaceOnUse" x1="482.9036" y1="560.1069" x2="703.0086" y2="560.1069">
			<stop  offset="0" style="stop-color:#00C6FF"/>
			<stop  offset="1" style="stop-color:#0072FF"/>
		</linearGradient>
		<polygon style="fill:url(#SVGID_00000176729054267336006090000009427564075770885281_);" points="482.9,568.51 703.01,568.51 
			703.01,551.7 482.9,551.7 		"/>
	</g>
	<g>
		
			<linearGradient id="SVGID_00000172413221795455224210000005983130221243981481_" gradientUnits="userSpaceOnUse" x1="482.9036" y1="602.4883" x2="703.0086" y2="602.4883">
			<stop  offset="0" style="stop-color:#00C6FF"/>
			<stop  offset="1" style="stop-color:#0072FF"/>
		</linearGradient>
		<polygon style="fill:url(#SVGID_00000172413221795455224210000005983130221243981481_);" points="482.9,610.89 703.01,610.89 
			703.01,594.09 482.9,594.09 		"/>
	</g>
	<g>
		
			<linearGradient id="SVGID_00000108276603188406424240000011542008520055569580_" gradientUnits="userSpaceOnUse" x1="482.9036" y1="644.8698" x2="627.291" y2="644.8698">
			<stop  offset="0" style="stop-color:#00C6FF"/>
			<stop  offset="1" style="stop-color:#0072FF"/>
		</linearGradient>
		<polygon style="fill:url(#SVGID_00000108276603188406424240000011542008520055569580_);" points="482.9,653.27 627.29,653.27 
			627.29,636.47 482.9,636.47 		"/>
	</g>
</g>
<g>
	<g>
		<path class="st59" d="M1081.86,1877.1c27.67-0.19,66.44-19.72,80.63-10.5c14.11,9.27,41.62,40.25-19.24,69.72
			c-60.84,29.58-110.1,53.87-115.83,28.73c-5.76-25.15,3.23-55.28,3.94-68.91C1032.03,1882.44,1061.56,1877.4,1081.86,1877.1z"/>
	</g>
	<g>
		<path class="st59" d="M1090.14,1911.46c-41.61,23.28-66.83-6.53-66.83-6.53s-11.02-128.32-19.55-185.79
			c-8.58-57.44-7.34-83.16-37.94-67.19c-24.37,12.71-54.02,42.49-114.78,76.42v-212.34c45.27-13.7,138.65-45.25,187.76-52.61
			c73.46-10.94,79.87,43.19,75.79,176.02c-3.79,124.04,9.34,230.46,9.34,230.46S1128.85,1889.91,1090.14,1911.46z"/>
	</g>
	<g>
		<polygon class="st60" points="1043.76,2191.45 1002.59,2215.23 797.29,2096.69 797.29,2076.93 1043.76,2171.62 		"/>
	</g>
	<g>
		<polygon class="st60" points="797.25,2191.45 838.5,2215.23 1043.76,2096.69 1043.76,2076.93 797.25,2171.62 		"/>
	</g>
	<g>
		<polygon class="st61" points="1043.76,2171.62 1002.59,2195.43 797.29,2076.93 838.5,2053.12 		"/>
	</g>
	<g>
		<polygon class="st61" points="797.25,2171.62 838.5,2195.43 1043.76,2076.93 1002.55,2053.12 		"/>
	</g>
	<g>
		<path class="st60" d="M938.64,2116.91c0,10.05-8.1,18.13-18.12,18.13l0,0c-10.02,0-18.12-8.08-18.12-18.13v-299.27
			c0-9.97,8.11-18.06,18.12-18.06l0,0c10.01,0,18.12,8.09,18.12,18.06V2116.91z"/>
	</g>
	<g>
		<g>
			<path class="st62" d="M609.57,1824.72h-0.1l3.77-50.43l72.31-0.08l172.68-99.72c11.48-6.59,30.06-6.59,41.51,0l171.9,99.31
				l80.49-0.15l-3.62,51.21h-0.04c0.11,4.51-2.7,8.92-8.56,12.3l-240.18,138.62c-11.45,6.62-30.03,6.62-41.51,0l-240.15-138.62
				C612.17,1833.79,609.37,1829.21,609.57,1824.72z"/>
		</g>
		<g>
			<path class="st63" d="M621.73,1785.11c-11.44-6.62-11.44-17.34,0-23.94l240.14-138.67c11.52-6.6,30.06-6.6,41.58,0l240.14,138.67
				c11.45,6.6,11.45,17.32,0,23.94l-240.14,138.65c-11.52,6.67-30.06,6.67-41.58,0L621.73,1785.11z"/>
		</g>
	</g>
	<g>
		<path class="st24" d="M642.73,1782.22c-5.01,0-9.07-4.06-9.07-9.07v-66.92c0-31.47,21.33-68.43,48.57-84.15l154.94-89.46
			c14.71-8.47,29-9.56,40.24-3.06c11.22,6.49,17.4,19.38,17.4,36.31v66.94c0,5.01-4.06,9.07-9.07,9.07c-5.01,0-9.07-4.06-9.07-9.07
			v-66.94c0-10.03-3.04-17.54-8.34-20.6c-5.32-3.08-13.37-1.96-22.1,3.07L691.3,1637.8c-21.41,12.35-39.5,43.69-39.5,68.43v66.92
			C651.81,1778.16,647.74,1782.22,642.73,1782.22z"/>
	</g>
	<g>
		<path class="st60" d="M738.55,1869.47c-22.06,9.06-42.68,12.2-60.98,10.04c-19.11-2.25-35.61-10.4-48.54-23.89v-0.06
			c-0.21-0.14-0.31-0.22-0.42-0.36c20.83,5.22,45.2,2.83,71.73-8.06L738.55,1869.47z"/>
	</g>
	<g>
		<path class="st64" d="M968.15,1202.77c11.73-5.97,31.35-27.69,45.12-42.21c13.8-14.56,34.31-31.06,48.71-38.09
			c14.47-7.01,24.93-10.11,27.11-10.05c2.17,0.09,2.17,0.09,2.17,0.09s7.73-5.15,12.89-4.51c5.17,0.62,7.53,1.32,7.53,1.32
			s2.41,0.51,6.03,0.94c3.61,0.49,9.56,5.56,9.56,5.56s7.75-1.69,8.59,4.07c0.84,5.78-23.98,21.22-39.12,33.02
			c-15.2,11.86-45.3,39.68-44.38,44.81c0.97,5.19,16.96,2.45,30.33-2.89c13.4-5.4,25.29-6.02,28.32-0.2
			c2.95,5.76-15.74,23.65-41.03,26.13c-25.28,2.52-50.98,21.15-62.43,15.72c-11.45-5.32-26.13,0.27-26.13,0.27L968.15,1202.77z"/>
	</g>
	<g>
		
			<linearGradient id="SVGID_00000016058576139888638140000015313005418935165603_" gradientUnits="userSpaceOnUse" x1="914.6196" y1="1240.9287" x2="1006.1442" y2="1240.9287">
			<stop  offset="0" style="stop-color:#E2E3E5"/>
			<stop  offset="1" style="stop-color:#EFEFEF"/>
		</linearGradient>
		<path style="fill:url(#SVGID_00000016058576139888638140000015313005418935165603_);" d="M914.62,1242.3l52.05-41.42
			c0,0,17.13-1.5,24.22,13.47c8.5,17.89,15.25,26.61,15.25,26.61l-37.16,40.05L914.62,1242.3z"/>
	</g>
	<g>
		<path class="st66" d="M1171.13,1372.31c0,0,7.38-8.23,5.55-21.07c-1.9-12.87-3.52-25.31,9.12-55.42
			c12.65-30.13,18.76-53.39,24.1-50.94c5.27,2.41,12.57,6.15,5.69,26.52c-6.95,20.36-7.77,24.85-5.31,25.63
			c2.42,0.83,32.63-25.63,41.54-39.13c8.99-13.43,34.27-44.81,39.54-44.81c5.32,0,6.96,7.77,0,22.38
			c-6.95,14.68-25.24,39.98-25.24,39.98s38.7-43.22,44-47.7c5.27-4.49,20.8-5.36,4.5,18.76c-16.29,24.01-35.47,44.05-35.47,44.05
			s43.2-43.27,48.89-39.53c5.72,3.63-18.34,29.62-26.9,41.68c-8.57,12.09-15.87,18.2-15.87,18.2s34.21-28.94,38.69-26.47
			c4.5,2.39-21.97,34.65-31.39,43.56c-9.35,8.98-32.97,33.41-46.84,39.6c-13.84,6.04-39.55,42.36-39.55,42.36L1171.13,1372.31z"/>
	</g>
	<g>
		<path class="st59" d="M1227.28,1941.82c27.61-0.29,66.46-19.81,80.6-10.54c14.19,9.22,41.65,40.09-19.24,69.69
			c-60.82,29.5-110.06,53.86-115.83,28.64c-5.76-25.09,3.23-55.22,3.94-68.91C1177.43,1947.07,1206.95,1941.97,1227.28,1941.82z"/>
	</g>
	<g>
		<path class="st67" d="M717.6,1612.12c-27.74,87.13,1.28,128.24,32.25,136.31c30.93,8.23,34.49,11.1,34.49,11.1
			s71.42,84.01,169.2,40.04c97.83-44.04,140.05-69.95,170.6-85.9c30.56-15.86,37.79,20.07,33.89,75.22
			c-4.04,57.94,10.7,180.72,10.7,180.72s25.23,29.7,66.81,6.47c38.74-21.57,33.85-41.51,33.85-41.51s-8.29-108.81-6.67-232.91
			c1.62-124.17-29.07-178.56-102.55-167.6c-73.53,10.97-203.27,48.4-207.33,56.55C948.76,1598.75,717.6,1612.12,717.6,1612.12z"/>
	</g>
	<g>
		<path class="st66" d="M773.79,1102.9c-9.37,35.44-13.83,56.23-24.44,58.7c-10.6,2.44-17.14,2.44-17.14,2.44
			s11.04,39.91,69.67,43.64c58.68,3.66,70.11-5.7,70.11-5.7s-8.3-27.02,0-51c8.35-23.96,14.29-30.53,14.29-30.53
			s-40.36-33.42-67.67-30.97C791.35,1091.87,773.79,1102.9,773.79,1102.9z"/>
	</g>
	<g>
		<path class="st64" d="M965.75,1001.87c-10.59,30.16-16.32,54.54-18.36,75.35c-2,20.84-24.87,49.69-46.85,53.83
			c-22.01,4.02-32.63-17.93-32.63-17.93S891.16,1009,916.8,996.77C942.5,984.53,965.75,1001.87,965.75,1001.87z"/>
	</g>
	<g>
		<path class="st68" d="M771.75,1102.11c-0.77-21.97-45.64-52.17-44.81-133.67c0.85-81.47,48.88-132.01,135.26-117.34
			c86.41,14.66,124.9,61.9,119.43,114.47c-5.48,52.62-24.87,49.35-30.55,50.16c-5.7,0.77-0.43,19.12-6.54,24.42
			c-6.11,5.28-7.33,51.32-14.24,44.43c-6.96-6.91,6.1-41.13-0.86-42.39c-6.91-1.21-27.25,33.67-34.21,49.29
			c-8.14,18.35-21.17,50.11-65.98,46.12C784.4,1133.51,772.6,1125.71,771.75,1102.11z"/>
	</g>
	<g>
		<g>
			
				<linearGradient id="SVGID_00000136386603842427414760000005685912214059160755_" gradientUnits="userSpaceOnUse" x1="656.9125" y1="1437.9164" x2="1006.1442" y2="1437.9164">
				<stop  offset="0" style="stop-color:#FFB888"/>
				<stop  offset="0.2875" style="stop-color:#FF9B57"/>
				<stop  offset="1" style="stop-color:#FF6801"/>
			</linearGradient>
			<path style="fill:url(#SVGID_00000136386603842427414760000005685912214059160755_);" d="M723.71,1142.65
				c-46.84-3.31-85.17,69.25-57.45,167.03c27.75,97.83,44.04,116.15,47.7,173.63c3.64,57.44,3.64,87.36,4.28,105.13
				c0.59,17.69-15.73,52.95-15.73,52.95s54.01,68.55,152.59,88.44c125.48,25.28,134.4-76.02,128.22-130.87
				c-5.13-45.47,18.76-71.66-4.07-105.05c-22.84-33.42-38.33-58.72-40.75-70.11c-2.46-11.44,1.63-79.08,28.52-114.91
				c26.87-35.89,39.13-28.49,39.13-28.49s-104.37-85.65-167.11-114.92C776.29,1136.11,723.71,1142.65,723.71,1142.65z"/>
		</g>
	</g>
	<g>
		
			<linearGradient id="SVGID_00000120552066641680703200000012951840219292693920_" gradientUnits="userSpaceOnUse" x1="930.3334" y1="1442.7266" x2="1216.825" y2="1442.7266">
			<stop  offset="0" style="stop-color:#E2E3E5"/>
			<stop  offset="1" style="stop-color:#EFEFEF"/>
		</linearGradient>
		<path style="fill:url(#SVGID_00000120552066641680703200000012951840219292693920_);" d="M1006.14,1280.39
			c34.69,33.36,50.5,131.13,61.11,159.69c10.61,28.55,39.12,12.24,61.95-19.58c22.82-31.75,42.79-62.51,42.79-62.51
			s17.12,6.44,30.15,24.43c13.03,17.92,14.69,30.98,14.69,30.98s-54.19,85.34-88.46,135.08c-34.21,49.73-68.45,82.32-98.59,40.73
			c-30.17-41.58-39.92-72.04-39.92-72.04s-57.89-67.32-59.48-120.25C928.71,1343.94,984.93,1259.93,1006.14,1280.39z"/>
	</g>
	<g>
		<path class="st24" d="M879.01,1917.31c-5.01,0-9.07-4.06-9.07-9.07v-66.95c0-31.46,21.32-68.41,48.54-84.12l154.98-89.42
			c14.68-8.48,28.95-9.58,40.19-3.1c11.23,6.48,17.41,19.38,17.41,36.31v66.94c0,5.01-4.06,9.07-9.07,9.07
			c-5.01,0-9.07-4.06-9.07-9.07v-66.94c0-10.03-3.04-17.54-8.34-20.6c-5.31-3.06-13.34-1.93-22.04,3.09l-154.99,89.42
			c-21.39,12.35-39.47,43.68-39.47,68.41v66.95C888.09,1913.25,884.02,1917.31,879.01,1917.31z"/>
	</g>
	<g>
		<g>
			<path class="st62" d="M606.98,1234.43l40.95-19.88h0.03c3.32-2.04,8.04-1.83,13.24,1.16l213.07,123.03
				c10.18,5.89,18.44,20.22,18.44,31.97v246.03c0,6.04-2.25,10.25-5.77,12.01v0.13l-40.38,19.41l-32.13-55.5l-153.22-88.43
				c-10.18-5.89-18.43-20.23-18.43-31.94v-176.09L606.98,1234.43z"/>
		</g>
		<g>
			<path class="st63" d="M851.05,1637c0,11.8-8.21,16.48-18.39,10.63l-213.1-123.04c-10.19-5.89-18.4-20.16-18.4-31.87V1246.6
				c0-11.74,8.22-16.51,18.4-10.62l213.1,123.07c10.18,5.88,18.39,20.08,18.39,31.89V1637z"/>
		</g>
		<g>
			<path class="st30" d="M797.91,1577.49c0,7.51-5.29,10.53-11.82,6.8l-136.94-79.02c-6.53-3.8-11.83-12.92-11.83-20.52v-158.11
				c0-7.49,5.3-10.59,11.83-6.8l136.94,79.08c6.53,3.79,11.82,12.94,11.82,20.45V1577.49z"/>
		</g>
	</g>
	<g>
		<path class="st60" d="M697.37,1523.4c23.14-26.72,41.18-50.72,41.18-50.72l-38.21-22.38c-90.47,65.42-160.46,195.04-160.46,303.2
			c0,57.02,19.45,97.49,51.16,117.43l0.03,0.09l35.09,20.28c0,0-1.76-3.22-4.46-8.47c12.05,2.21,25.04,2.51,38.87,0.41
			c5.54-0.92,11.23-2.14,17-3.73c-19.11-2.25-35.61-10.4-48.54-23.89v-0.06c-0.21-0.14-0.31-0.22-0.42-0.36
			c-9.13-2.29-17.63-6.17-25.21-11.36c-5.12-11.9-9.77-24.1-12.34-34.36c-7.86-31.34-5.3-103.67,22.24-166.68
			C640.84,1579.73,674.2,1550.1,697.37,1523.4z"/>
	</g>
	<g>
		<path class="st61" d="M738.55,1496.83v-24.15c-90.61,65.37-160.57,195-160.57,303.17c0,17.91,1.92,34.17,5.47,48.66
			c5.97,23.6,16.26,42.7,30.2,56.47c29.15,28.79,73.72,34.79,124.9,12.8v-24.3c-22.06,9.06-42.68,12.2-60.98,10.04
			c-19.11-2.25-35.61-10.4-48.54-23.89v-0.06c-0.21-0.14-0.31-0.22-0.42-0.36c-18.75-19.81-29.88-50.93-29.88-91.37
			C598.72,1668.99,659.45,1555.56,738.55,1496.83z"/>
	</g>
	<g>
		<path class="st71" d="M726.95,898.6c6.19,4-26.26,39.26-5.19,85.55c8.17,18.02,23.16-13.99,35.05-4.9
			c11.94,9.12,18.26,24.78,21.06,34.84c2.82,10.08,60.87-15.19,90.05-4.67c29.21,10.54,80.25-2.11,81.77,7.1
			c1.47,9.25,7.46,13.45,16.07,5.04c8.58-8.4,19.07-36.32,19.07-36.32s5.65,24.19-2.7,34.74c-8.32,10.47-8.32,10.47-8.32,10.47
			s22.61-3.63,22.61-29.41c0-25.8-2.11-45.78,0-53.14c2.1-7.37,12.1,11.61,11.06,34.71c-1.07,23.2,12.74,32.87,10.81,10.63
			c-1.89-22.17-4.71-104.44-48.88-131.83c-44.21-27.35-91.95-34.35-137.54-32.94c-45.59,1.42-65.25,4.93-59.62,12.62
			c5.61,7.76,34.34-8.45,51.9-4.92c17.56,3.52-13.47,7.83-40.31,12.38c-26.83,4.62-56.3,15.7-64.2,37.27
			c-7.91,21.57-18.96,53.62-13.17,52.07C712.27,936.32,721.86,895.3,726.95,898.6z"/>
	</g>
</g>
<g>
	<path class="st72" d="M1643.33,1440.72l-3.9-2.25c-0.01-0.01-0.02-0.01-0.03-0.02l-78.15-45.11c-4.69-2.71-12.29-2.71-16.98,0
		l-161.2,93.08c-4.69,2.7-4.69,7.1,0,9.8l3.91,2.26c0.01,0.01,0.01,0.01,0.02,0.01l78.15,45.13c4.69,2.7,12.29,2.7,16.98,0
		l161.2-93.08C1648.02,1447.83,1648.02,1443.43,1643.33,1440.72z"/>
	<path class="st73" d="M1380.83,1478.15c-4.49,2.59-2.96,13.47,1.52,16.06l74.68,43.12c4.48,2.58,11.75,2.58,16.24,0l154.05-88.94
		c4.48-2.58,5.37-13.98,0.89-16.56l-75.57-35.93c-4.48-2.59-11.75-2.59-16.24,0L1380.83,1478.15z"/>
	<path class="st74" d="M1382.35,1477.07c-4.48,2.58-4.48,6.78,0,9.36l74.68,43.12c4.48,2.58,11.75,2.58,16.24,0l154.05-88.94
		c4.48-2.59,4.48-6.79,0-9.38l-74.68-43.11c-4.48-2.59-11.75-2.59-16.24,0L1382.35,1477.07z"/>
	<path class="st75" d="M1627.86,1435.92c0,0.67-0.73,1.53-1.94,2.27l-31.65,18.23l-21.24,12.29l-40.2,23.18l-60.97,35.26
		c-1.74,1-4.14,1.54-6.68,1.54c-2.61,0-5.01-0.53-6.75-1.54l-74.66-43.15c-1.2-0.66-1.94-1.53-1.94-2.27c0-0.66,0.74-1.53,1.94-2.27
		l13.62-7.88l21.04-12.09l20.5-11.88l98.91-57.04c1.67-1,4.14-1.6,6.68-1.6c2.54,0,5.01,0.6,6.74,1.6l74.67,43.08
		C1627.13,1434.38,1627.86,1435.25,1627.86,1435.92z"/>
	<path class="st76" d="M1627.87,1435.92c0,0.7-0.76,1.56-1.97,2.25l-31.61,18.26l-155.33-8.81l98.85-57.06
		c1.73-1,4.17-1.57,6.71-1.57c2.55,0,4.99,0.57,6.71,1.57l74.68,43.12C1627.11,1434.37,1627.87,1435.24,1627.87,1435.92z"/>
	<polygon class="st76" points="1573.03,1468.71 1532.83,1491.89 1397.39,1471.58 1418.43,1459.49 	"/>
	<g>
		<g>
			<g>
				
					<linearGradient id="SVGID_00000121251066812053316450000009689356109333661627_" gradientUnits="userSpaceOnUse" x1="1457.5321" y1="1452.9313" x2="1564.4507" y2="1452.9313">
					<stop  offset="0" style="stop-color:#E2E3E5"/>
					<stop  offset="1" style="stop-color:#EFEFEF"/>
				</linearGradient>
				<path style="fill:url(#SVGID_00000121251066812053316450000009689356109333661627_);" d="M1538.54,1427.64l-4.44,2.56
					c-3.67-1.25-7.59-2.17-11.61-2.77v-3.63c0-0.96-1.35-1.74-3.01-1.74h-16.96c-1.66,0-3.01,0.78-3.01,1.74v3.63
					c-4.03,0.6-7.94,1.52-11.61,2.77l-4.44-2.56c-1.18-0.68-3.09-0.68-4.26,0l-11.99,6.92c-1.18,0.68-1.18,1.78,0,2.46l4.44,2.56
					c-2.16,2.12-3.75,4.38-4.8,6.71h-6.29c-1.66,0-3.01,0.78-3.01,1.74l0,9.79c0,0.96,1.35,1.74,3.01,1.74l6.29,0
					c1.04,2.32,2.64,4.58,4.8,6.71l-4.44,2.56c-1.18,0.68-1.18,1.78,0,2.46l11.99,6.92c1.18,0.68,3.09,0.68,4.26,0l4.44-2.56
					c3.67,1.25,7.59,2.17,11.61,2.77v3.63c0,0.96,1.35,1.74,3.01,1.74l16.96,0c1.66,0,3.01-0.78,3.01-1.74v-3.63
					c4.03-0.6,7.94-1.52,11.61-2.77l4.44,2.56c1.18,0.68,3.09,0.68,4.26,0l11.99-6.92c1.18-0.68,1.18-1.78,0-2.46l-4.44-2.56
					c2.16-2.12,3.75-4.38,4.8-6.71h6.29c1.66,0,3.01-0.78,3.01-1.74v-9.79c0-0.96-1.35-1.74-3.01-1.74h-6.29
					c-1.04-2.32-2.64-4.58-4.8-6.71l4.44-2.56c1.18-0.68,1.18-1.78,0-2.46l-11.99-6.92
					C1541.62,1426.97,1539.71,1426.97,1538.54,1427.64z M1526.93,1462.13c-8.8,5.08-23.07,5.08-31.88,0c-8.8-5.08-8.8-13.32,0-18.4
					c8.8-5.08,23.07-5.08,31.88,0C1535.73,1448.81,1535.73,1457.05,1526.93,1462.13z"/>
			</g>
		</g>
	</g>
</g>
<g>
	<g>
		<g>
			<g>
				
					<linearGradient id="SVGID_00000152967985826085082760000000848450963663896977_" gradientUnits="userSpaceOnUse" x1="2135.4929" y1="1969.3578" x2="2357.4551" y2="1969.3578">
					<stop  offset="0" style="stop-color:#E2E3E5"/>
					<stop  offset="1" style="stop-color:#EFEFEF"/>
				</linearGradient>
				<path style="fill:url(#SVGID_00000152967985826085082760000000848450963663896977_);" d="M2135.49,1915.71v9.7l0.05,224.34
					c4.81,0,9.62-1.06,13.3-3.19l175.42-101.29c3.65-2.1,5.53-4.89,5.53-7.7l27.67-248.62c-0.53,2.67-2.57,5.24-6.14,7.29
					l-200.59,115.8C2146.51,1914.49,2141.02,1915.71,2135.49,1915.71z"/>
			</g>
			<g>
				
					<linearGradient id="SVGID_00000166653101600886468300000000759198308395871911_" gradientUnits="userSpaceOnUse" x1="2285.2246" y1="1858.8154" x2="1915.9655" y2="1682.8279">
					<stop  offset="0" style="stop-color:#F3F7FF"/>
					<stop  offset="1" style="stop-color:#CDD9FF"/>
				</linearGradient>
				<path style="fill:url(#SVGID_00000166653101600886468300000000759198308395871911_);" d="M1913.61,1789.07
					c0.59,2.64,2.65,5.14,6.11,7.17l200.54,115.8c4.23,2.45,9.72,3.66,15.23,3.66c5.53,0,11.01-1.22,15.24-3.66l200.59-115.8
					c3.57-2.04,5.61-4.62,6.14-7.29v-0.06l0.16-1.43c0-3.19-2.08-6.35-6.3-8.81l-200.59-115.79c-8.4-4.85-22.05-4.85-30.47,0
					l-200.54,115.79C1914.82,1781.51,1912.77,1785.36,1913.61,1789.07z"/>
			</g>
			<g>
				
					<linearGradient id="SVGID_00000007407036419145197500000000338026471035730851_" gradientUnits="userSpaceOnUse" x1="1941.2571" y1="1787.4629" x2="2329.7896" y2="1787.4629">
					<stop  offset="0" style="stop-color:#F5995B"/>
					<stop  offset="1" style="stop-color:#FB5F5C"/>
				</linearGradient>
				<path style="fill:url(#SVGID_00000007407036419145197500000000338026471035730851_);" d="M1941.42,1788.87
					c0.52,2.31,2.31,4.5,5.34,6.27l175.42,101.3c3.68,2.14,8.48,3.2,13.32,3.2c4.83,0,9.63-1.06,13.32-3.2l175.46-101.3
					c3.11-1.78,4.89-4.04,5.37-6.38v-0.04l0.13-1.26c0-2.79-1.83-5.57-5.51-7.7l-175.46-101.3c-7.34-4.22-19.29-4.22-26.64,0
					l-175.42,101.3C1942.47,1782.26,1940.69,1785.62,1941.42,1788.87z"/>
			</g>
			<g>
				
					<linearGradient id="SVGID_00000008115661561761593320000002784379574935820713_" gradientUnits="userSpaceOnUse" x1="1913.433" y1="1969.3578" x2="2135.54" y2="1969.3578">
					<stop  offset="0" style="stop-color:#E2E3E5"/>
					<stop  offset="1" style="stop-color:#EFEFEF"/>
				</linearGradient>
				<path style="fill:url(#SVGID_00000008115661561761593320000002784379574935820713_);" d="M1913.43,1788.96l27.79,248.62
					c0,2.8,1.85,5.6,5.52,7.7l175.45,101.29c3.69,2.14,8.49,3.19,13.35,3.19l-0.05-224.34v-9.7c-5.51,0-11-1.22-15.23-3.66
					l-200.54-115.8c-3.47-2.03-5.52-4.53-6.11-7.17L1913.43,1788.96z"/>
			</g>
			<g>
				
					<linearGradient id="SVGID_00000042009184681428200910000006449145303890439605_" gradientUnits="userSpaceOnUse" x1="1731.7751" y1="1651.6063" x2="2135.54" y2="1651.6063">
					<stop  offset="0" style="stop-color:#20B5D8"/>
					<stop  offset="1" style="stop-color:#8CEE98"/>
				</linearGradient>
				<path style="fill:url(#SVGID_00000042009184681428200910000006449145303890439605_);" d="M2135.54,1787.46
					c0,0-8.31-138.27-139.63-138.27c0,0,25.35,0,42.4,0c17.07,0,35.79-53.6-89.03-53.6c0,0-45.45-2.78,18.13-12.09
					c63.6-9.31-101.78-108.04-232.07-49.09c0,0-27.92,69.28,72.39,81.69c100.29,12.41-16.55,12.41-41.37,2.59
					c-24.81-9.84-17.06,37.73,31.55,58.93c48.59,21.2,91.46,23.79,115.52,23.79c24.07,0-10.06,11.88-59.69,6.71
					c-49.63-5.16-67.72-18.6-67.72-18.6s109.08,99.78,189.73,88.93C2056.41,1767.58,2135.54,1787.46,2135.54,1787.46z"/>
			</g>
			<g>
				<path class="st83" d="M2144.72,1805.3c-0.25,0-0.49-0.1-0.65-0.31c-0.48-0.59-49.11-59.91-120.08-121.23
					c-65.45-56.56-163.83-126.44-260.83-138.17c-0.46-0.05-0.79-0.48-0.74-0.94c0.05-0.46,0.46-0.8,0.94-0.74
					c97.42,11.78,196.12,81.86,261.75,138.59c71.07,61.42,119.78,120.83,120.26,121.42c0.3,0.36,0.24,0.89-0.12,1.19
					C2145.1,1805.24,2144.91,1805.3,2144.72,1805.3z"/>
			</g>
			<g>
				<path class="st83" d="M1929.29,1735.94c-15.81,0-32.97-1.24-51.38-4.24c-0.46-0.07-0.77-0.51-0.7-0.97
					c0.07-0.46,0.52-0.77,0.97-0.7c106.46,17.33,170.92-24.29,171.56-24.71c0.39-0.26,0.91-0.15,1.17,0.24
					c0.26,0.39,0.15,0.91-0.24,1.17C2050.14,1707.08,2005.47,1735.94,1929.29,1735.94z"/>
			</g>
			<g>
				<path class="st83" d="M1995.82,1660.08c-0.13,0-0.26-0.03-0.39-0.09c-0.41-0.21-0.58-0.72-0.36-1.14
					c0.15-0.3,15.05-30.14-9.64-61.89c-0.29-0.37-0.22-0.9,0.15-1.18c0.37-0.29,0.9-0.22,1.18,0.15
					c25.37,32.63,9.96,63.39,9.81,63.7C1996.42,1659.91,1996.12,1660.08,1995.82,1660.08z"/>
			</g>
			<g>
				<path class="st83" d="M1850.77,1650.15c-13.87,0-28.86-1.38-44.77-4.8c-0.46-0.1-0.75-0.55-0.65-1c0.1-0.46,0.56-0.74,1-0.65
					c82.92,17.81,141.04-20.02,141.61-20.4c0.39-0.26,0.92-0.15,1.17,0.24c0.26,0.39,0.15,0.91-0.23,1.17
					C1948.43,1625.01,1909.85,1650.15,1850.77,1650.15z"/>
			</g>
			<g>
				<path class="st83" d="M1874.75,1581.11c-0.44,0-0.82-0.35-0.84-0.79c-0.02-0.39-2.78-39.42-36.09-57.59
					c-0.41-0.22-0.56-0.74-0.34-1.15c0.22-0.41,0.73-0.56,1.15-0.34c34.14,18.63,36.94,58.57,36.96,58.97
					c0.03,0.47-0.33,0.87-0.79,0.89C1874.79,1581.11,1874.77,1581.11,1874.75,1581.11z"/>
			</g>
			<g>
				<path class="st83" d="M1767.83,1572.85c-7.02,0-14.35-0.86-21.73-2.98c-0.45-0.13-0.71-0.6-0.58-1.05
					c0.13-0.45,0.6-0.71,1.05-0.58c36.81,10.62,72.58-11.1,72.93-11.33c0.4-0.25,0.92-0.12,1.16,0.27c0.25,0.4,0.12,0.92-0.27,1.16
					C1820.09,1558.53,1796.54,1572.85,1767.83,1572.85z"/>
			</g>
			<g>
				
					<linearGradient id="SVGID_00000005241245783783165360000000819836938446026917_" gradientUnits="userSpaceOnUse" x1="1913.4272" y1="1590.2321" x2="2156.3477" y2="1590.2321">
					<stop  offset="0" style="stop-color:#20B5D8"/>
					<stop  offset="1" style="stop-color:#8CEE98"/>
				</linearGradient>
				<path style="fill:url(#SVGID_00000005241245783783165360000000819836938446026917_);" d="M2138.92,1787.59
					c0,0,46.51-143.45-12.43-248.91c0,0-9.32-12.08-9.32,34.29c0,46.36,7.77-38.95-52.73-99.43
					c-60.49-60.49-139.59-80.66-139.59-80.66s-40.5,140.7,31.01,180.09c0,0,14.47,19.82-27.92,0c-42.38-19.82,29.21,64.97,99.92,96
					c0,0,12.79,23.26-24.43,6.46C1966.21,1658.62,1995.21,1751.11,2138.92,1787.59z"/>
			</g>
			<g>
				<path class="st83" d="M2144.72,1813.29c-0.42,0-0.78-0.31-0.84-0.73c-0.07-0.57-7.73-57.66-36.51-133.7
					c-26.55-70.16-77.03-171.26-166.7-254.46c-0.34-0.32-0.36-0.85-0.05-1.19c0.32-0.34,0.85-0.36,1.19-0.05
					c89.93,83.44,140.53,184.8,167.15,255.15c28.84,76.22,36.51,133.47,36.59,134.04c0.06,0.46-0.27,0.89-0.73,0.95
					C2144.8,1813.29,2144.76,1813.29,2144.72,1813.29z"/>
			</g>
			<g>
				<path class="st83" d="M2108.81,1726.02c-15.52,0-43.19-5.7-83.39-34.76c-0.38-0.27-0.46-0.8-0.19-1.18
					c0.27-0.38,0.8-0.46,1.18-0.19c64,46.25,96.34,32.38,96.66,32.23c0.42-0.19,0.92-0.01,1.12,0.42c0.19,0.42,0.01,0.92-0.42,1.12
					C2123.25,1723.88,2118.3,1726.02,2108.81,1726.02z"/>
			</g>
			<g>
				<path class="st83" d="M2097.25,1652.16c-0.34,0-0.67-0.21-0.79-0.55c-0.16-0.44,0.06-0.92,0.5-1.08l0,0
					c0.26-0.1,25.61-10.71,25.61-93.64c0-0.47,0.38-0.84,0.84-0.84c0.47,0,0.84,0.38,0.84,0.84c0,84.4-25.62,94.82-26.71,95.22
					C2097.45,1652.15,2097.35,1652.16,2097.25,1652.16z"/>
			</g>
			<g>
				<path class="st83" d="M2063.48,1591.06c-17.54,0-81.22-3.65-122.88-54.04c-0.3-0.36-0.25-0.89,0.11-1.19
					c0.35-0.3,0.89-0.25,1.19,0.11c47.89,57.92,125.28,53.39,126.07,53.33c0.52-0.02,0.87,0.32,0.9,0.79
					c0.03,0.46-0.32,0.87-0.78,0.9C2067.97,1590.96,2066.33,1591.06,2063.48,1591.06z"/>
			</g>
			<g>
				<path class="st83" d="M2022.2,1517.03c-0.21,0-0.42-0.08-0.59-0.24c-0.33-0.32-0.34-0.86-0.02-1.19
					c0.15-0.16,15.12-16.53-0.2-65.74c-0.14-0.44,0.11-0.92,0.56-1.06c0.44-0.14,0.92,0.11,1.06,0.56
					c15.66,50.32,0.45,66.74-0.2,67.42C2022.64,1516.95,2022.42,1517.03,2022.2,1517.03z"/>
			</g>
			<g>
				
					<linearGradient id="SVGID_00000013153022228020773640000000783382841908875136_" gradientUnits="userSpaceOnUse" x1="2097.2522" y1="1478.3789" x2="2467.0015" y2="1478.3789">
					<stop  offset="0" style="stop-color:#20B5D8"/>
					<stop  offset="1" style="stop-color:#8CEE98"/>
				</linearGradient>
				<path style="fill:url(#SVGID_00000013153022228020773640000000783382841908875136_);" d="M2150.14,1715.3
					c0,0-95.02-116.79,2.83-253.28c0,0-55.71,74.45-55.71,10.87c0-63.59,75.91-223.38,261.32-231.13
					c185.38-7.73,93.88,133.4,13.22,195.44l73.41-15.51C2445.2,1421.69,2429.44,1633.56,2150.14,1715.3z"/>
			</g>
			<g>
				<path class="st83" d="M2152.96,1773.69c-0.43,0-0.8-0.33-0.84-0.77c-0.09-1.02-8.56-102.8,20.83-214.83
					c17.27-65.83,44.04-122.27,79.56-167.76c44.43-56.89,102.74-96.7,173.31-118.34c0.45-0.14,0.92,0.11,1.05,0.56
					c0.14,0.45-0.11,0.92-0.56,1.05c-159.06,48.76-224.68,181.83-251.72,284.87c-29.33,111.75-20.88,213.29-20.79,214.3
					c0.04,0.46-0.3,0.87-0.77,0.92C2153.01,1773.69,2152.99,1773.69,2152.96,1773.69z"/>
			</g>
			<g>
				<path class="st86" d="M2156.32,1654.15c-0.4,0-0.76-0.29-0.83-0.7c-0.08-0.46,0.22-0.9,0.68-0.98
					c1.04-0.19,105.45-19.88,205.27-139.76c0.3-0.36,0.83-0.41,1.19-0.11c0.36,0.3,0.41,0.83,0.11,1.19
					c-100.25,120.38-205.23,140.16-206.28,140.34C2156.42,1654.14,2156.37,1654.15,2156.32,1654.15z"/>
			</g>
			<g>
				<path class="st83" d="M2170.15,1573.67c-0.35,0-0.68-0.22-0.8-0.57c-0.48-1.43-47.64-144.14,0.08-222.15
					c0.24-0.4,0.76-0.52,1.16-0.28c0.4,0.24,0.52,0.76,0.28,1.16c-47.31,77.34-0.4,219.31,0.08,220.73
					c0.15,0.44-0.09,0.92-0.53,1.07C2170.33,1573.66,2170.24,1573.67,2170.15,1573.67z"/>
			</g>
			<g>
				<path class="st83" d="M2201.11,1506.17c-6.88,0-10.4-0.76-10.54-0.79c-0.45-0.11-0.73-0.56-0.63-1.01
					c0.1-0.46,0.55-0.74,1.02-0.63c0.55,0.13,56.41,12.01,166.39-63.08c0.38-0.26,0.91-0.16,1.17,0.22
					c0.26,0.39,0.16,0.91-0.22,1.17C2274.84,1499.04,2222.2,1506.17,2201.11,1506.17z"/>
			</g>
			<g>
				<path class="st83" d="M2251.72,1393.59c-0.03,0-0.05,0-0.08,0c-0.46-0.04-0.81-0.45-0.76-0.92c0.08-0.9,8.57-90.11,49.79-131.33
					c0.33-0.33,0.86-0.33,1.19,0c0.33,0.33,0.33,0.87,0,1.19c-40.8,40.79-49.22,129.4-49.3,130.29
					C2252.52,1393.26,2252.15,1393.59,2251.72,1393.59z"/>
			</g>
			<g>
				<path class="st83" d="M2388.44,1340.74c-44.65,0-63.76-17.95-64.01-18.19c-0.33-0.33-0.34-0.86-0.02-1.19
					c0.33-0.33,0.86-0.34,1.19-0.02c0.34,0.33,34.57,32.34,119.38,9.53c0.46-0.13,0.91,0.15,1.03,0.6c0.12,0.45-0.15,0.91-0.6,1.03
					C2423.06,1338.51,2404.16,1340.74,2388.44,1340.74z"/>
			</g>
			<g>
				
					<linearGradient id="SVGID_00000074429494341815771880000006266684713507922365_" gradientUnits="userSpaceOnUse" x1="2472.354" y1="1514.4246" x2="2044.9564" y2="1649.5574">
					<stop  offset="0" style="stop-color:#20B5D8"/>
					<stop  offset="1" style="stop-color:#8CEE98"/>
				</linearGradient>
				<path style="fill:url(#SVGID_00000074429494341815771880000006266684713507922365_);" d="M2146.49,1772.16
					c0,0,147.34-32.1,208.76-136.14c0,0,5.76-14.14-34.31,9.22c-40.05,23.37,37.54-12.92,59.31-95.63
					c21.8-82.75-0.63-161.22-0.63-161.22s-141.95,35.89-139.94,117.51c0,0-9.83,22.5-14.08-24.12
					c-4.24-46.6-41.42,57.96-32.59,134.67c0,0-13.66,22.77-17.89-17.85C2170.89,1557.99,2105.6,1629.64,2146.49,1772.16z"/>
			</g>
			<g>
				<path class="st83" d="M2135.49,1819.61c-0.11,0-0.21-0.02-0.32-0.06c-0.43-0.18-0.64-0.67-0.46-1.1
					c1.25-3.07,126.64-308.14,226.91-377.79c0.38-0.26,0.91-0.17,1.17,0.21c0.27,0.38,0.17,0.91-0.21,1.17
					c-99.86,69.36-225.05,373.97-226.31,377.04C2136.14,1819.41,2135.83,1819.61,2135.49,1819.61z"/>
			</g>
			<g>
				<path class="st86" d="M2161.09,1760.7c-0.4,0-0.75-0.28-0.83-0.69c-0.09-0.46,0.22-0.9,0.67-0.98
					c0.66-0.12,67.32-13.14,156.08-74.34c0.38-0.26,0.91-0.17,1.17,0.22c0.26,0.38,0.17,0.91-0.22,1.17
					c-89.08,61.43-156.06,74.48-156.73,74.61C2161.2,1760.69,2161.15,1760.7,2161.09,1760.7z"/>
			</g>
			<g>
				<path class="st83" d="M2201.28,1676.14c-0.4,0-0.75-0.28-0.83-0.69c-0.13-0.72-12.93-72.32,5.45-124.59
					c0.16-0.44,0.64-0.67,1.08-0.52c0.44,0.15,0.67,0.64,0.52,1.08c-18.24,51.85-5.52,123.02-5.39,123.73
					c0.08,0.46-0.22,0.9-0.68,0.98C2201.38,1676.14,2201.33,1676.14,2201.28,1676.14z"/>
			</g>
			<g>
				<path class="st83" d="M2275,1600.53c-21.82,0-29.25-7.59-29.76-8.15c-0.32-0.34-0.29-0.88,0.05-1.19
					c0.34-0.31,0.87-0.3,1.19,0.05c0.26,0.28,22.73,22.7,105.61-11.75c0.43-0.18,0.93,0.02,1.1,0.45c0.18,0.43-0.02,0.92-0.46,1.1
					C2316.38,1596.16,2291.54,1600.53,2275,1600.53z"/>
			</g>
			<g>
				<path class="st83" d="M2293.5,1517.03c-0.34,0-0.67-0.21-0.79-0.55c-0.15-0.41-14.83-41.86,19.03-75.73
					c0.33-0.33,0.86-0.33,1.19,0c0.33,0.33,0.33,0.86,0,1.19c-33.08,33.08-18.79,73.55-18.64,73.95c0.16,0.44-0.06,0.92-0.5,1.08
					C2293.69,1517.02,2293.59,1517.03,2293.5,1517.03z"/>
			</g>
			<g>
				
					<linearGradient id="SVGID_00000161619505825069183230000012699369063629160109_" gradientUnits="userSpaceOnUse" x1="2135.54" y1="1679.062" x2="2658.0193" y2="1679.062">
					<stop  offset="0" style="stop-color:#20B5D8"/>
					<stop  offset="1" style="stop-color:#8CEE98"/>
				</linearGradient>
				<path style="fill:url(#SVGID_00000161619505825069183230000012699369063629160109_);" d="M2135.54,1787.46
					c0,0,18.46-179.42,110.18-194.67c1.1-0.17,2.23-0.33,3.35-0.48c0,0,10.69,19.64,0,43.42c-10.7,23.8,74.05-126.85,209.81-62.9
					c0,0,14.82,9.15-24.69,40.17c-39.49,31.02,59.26-49.35,141.55,37.37c82.28,86.71,82.28,86.71,82.28,86.71
					s-71.61,87.9-147.29,38.27c-75.7-49.64-79.55-42.49-70.76-31.44c8.8,11.06,59.24,45.05,59.24,45.05s-103.68,44.29-153.87-35.34
					c0,0-1.65,13.81,26.33,35.34C2399.64,1810.49,2248.07,1707.31,2135.54,1787.46z"/>
			</g>
			<g>
				<path class="st83" d="M2130.59,1802.08c-0.17,0-0.34-0.05-0.49-0.16c-0.38-0.27-0.47-0.8-0.2-1.18
					c0.46-0.65,47.25-65.56,127.47-108.98c47.14-25.51,96.43-38.73,146.51-39.3c62.58-0.62,126.56,18.48,190.14,57
					c0.4,0.24,0.53,0.76,0.29,1.16c-0.24,0.4-0.76,0.53-1.16,0.28c-143.33-86.84-261.24-57.55-334.91-17.69
					c-79.9,43.23-126.49,107.85-126.95,108.5C2131.11,1801.95,2130.85,1802.08,2130.59,1802.08z"/>
			</g>
			<g>
				<path class="st83" d="M2183.79,1745.4c-0.03,0-0.05,0-0.07,0c-0.46-0.04-0.81-0.45-0.77-0.91c0.08-0.87,8.04-87.84,46.05-125.89
					c0.33-0.33,0.87-0.33,1.19,0c0.33,0.33,0.33,0.86,0,1.19c-37.58,37.61-45.49,123.97-45.57,124.84
					C2184.59,1745.06,2184.22,1745.4,2183.79,1745.4z"/>
			</g>
			<g>
				<path class="st83" d="M2400.23,1756.02c-0.04,0-0.08,0-0.12-0.01c-90.75-13.33-138.82-64.35-139.29-64.86
					c-0.32-0.34-0.3-0.88,0.05-1.19c0.34-0.32,0.88-0.3,1.19,0.05c0.47,0.51,48.17,51.1,138.3,64.34c0.46,0.07,0.78,0.5,0.71,0.96
					C2401,1755.72,2400.64,1756.02,2400.23,1756.02z"/>
			</g>
			<g>
				<path class="st83" d="M2342.84,1661.22c-0.02,0-0.05,0-0.07,0c-0.47-0.04-0.81-0.44-0.78-0.91c0.05-0.65,1.39-16.1,14.15-33.69
					c11.74-16.18,35.79-37.17,83.74-45.23c0.46-0.08,0.89,0.23,0.97,0.69c0.08,0.46-0.23,0.9-0.69,0.97
					c-90.59,15.23-96.44,76.76-96.49,77.38C2343.65,1660.88,2343.28,1661.22,2342.84,1661.22z"/>
			</g>
			<g>
				<path class="st83" d="M2507.24,1745.4c-0.12,0-0.24-0.02-0.35-0.08c-42.22-19.23-56.55-42.55-61.14-58.72
					c-5-17.61,0.01-30.46,0.22-31c0.17-0.43,0.66-0.64,1.1-0.47c0.43,0.17,0.64,0.66,0.47,1.1c-0.05,0.13-5.02,12.93-0.14,30.02
					c4.52,15.8,18.62,38.61,60.19,57.54c0.42,0.19,0.61,0.69,0.42,1.12C2507.86,1745.21,2507.56,1745.4,2507.24,1745.4z"/>
			</g>
			<g>
				<path class="st83" d="M2588.93,1673.33c-0.12,0-0.24-0.02-0.36-0.08c-52.95-24.68-72.73-0.49-72.93-0.25
					c-0.29,0.37-0.82,0.43-1.19,0.15c-0.37-0.29-0.43-0.81-0.15-1.18c0.2-0.26,20.71-25.54,74.97-0.25c0.42,0.2,0.61,0.7,0.41,1.12
					C2589.55,1673.15,2589.25,1673.33,2588.93,1673.33z"/>
			</g>
			<g>
				
					<linearGradient id="SVGID_00000120519837858405961190000009369914177917365654_" gradientUnits="userSpaceOnUse" x1="2042.8269" y1="1895.8212" x2="2324.7417" y2="1895.8212">
					<stop  offset="0" style="stop-color:#20B5D8"/>
					<stop  offset="1" style="stop-color:#8CEE98"/>
				</linearGradient>
				<path style="fill:url(#SVGID_00000120519837858405961190000009369914177917365654_);" d="M2135.54,1787.46
					c0,0,98.21-97.99,158.69,0c0,0,26.37,31.3-28.42,18.89c-54.8-12.4,5.68,7.75,29.98,16.03c24.31,8.28,59.72,97.47-21.71,146.96
					c0,0-14.08,12.28-27.58-21.85c-13.53-34.11-13.64,20.17,0,43.43c13.61,23.27-150.78,129.52-125.2-27.14
					c0,0-14.73,35.68-14.73,51.19c0,15.51-76-71.35-17.06-130.29c0,0,0.77-20.5-26.37,14.94
					C2035.98,1935.09,2017.26,1771.14,2135.54,1787.46z"/>
			</g>
			<g>
				<path class="st83" d="M2167.05,2010.13c-0.35,0-0.68-0.22-0.8-0.57c-55-161.08-47.52-205.93-38.16-218.33
					c3.58-4.75,7.32-4.61,7.49-4.6c0.46,0.02,0.82,0.42,0.8,0.89c-0.02,0.45-0.4,0.8-0.84,0.8c-0.01,0-0.02,0-0.04,0l0,0
					c-0.09-0.01-3.11-0.06-6.16,4.06c-9.06,12.26-16.11,56.7,38.51,216.65c0.15,0.44-0.08,0.92-0.53,1.07
					C2167.24,2010.11,2167.14,2010.13,2167.05,2010.13z"/>
			</g>
			<g>
				<path class="st83" d="M2225.98,1980.39c-0.34,0-0.65-0.2-0.78-0.53c-26.31-65.82-84.63-57.66-85.21-57.57
					c-0.46,0.07-0.89-0.25-0.96-0.71c-0.07-0.46,0.25-0.89,0.71-0.96c0.6-0.1,60.23-8.44,87.04,58.61c0.17,0.43-0.04,0.92-0.47,1.1
					C2226.2,1980.37,2226.09,1980.39,2225.98,1980.39z"/>
			</g>
			<g>
				<path class="st83" d="M2090.02,1980.39c-0.39,0-0.75-0.28-0.83-0.68c-11.84-58.68,36.92-113.07,37.42-113.61
					c0.31-0.35,0.85-0.37,1.19-0.06c0.35,0.31,0.37,0.85,0.06,1.19c-0.49,0.54-48.68,54.31-37.01,112.14
					c0.09,0.46-0.2,0.9-0.66,0.99C2090.13,1980.38,2090.07,1980.39,2090.02,1980.39z"/>
			</g>
			<g>
				<path class="st83" d="M2275.1,1900.47c-0.31,0-0.6-0.17-0.75-0.46c-21.75-43.12-61.78-59.44-91.54-65.54
					c-32.3-6.62-59.76-2.98-60.04-2.94c-0.46,0.07-0.89-0.26-0.95-0.72c-0.06-0.46,0.26-0.89,0.72-0.95
					c0.28-0.04,28.03-3.72,60.61,2.96c30.12,6.18,70.65,22.72,92.7,66.43c0.21,0.42,0.04,0.92-0.37,1.13
					C2275.36,1900.45,2275.23,1900.47,2275.1,1900.47z"/>
			</g>
			<g>
				<path class="st83" d="M2054.6,1870.4c-0.1,0-0.2-0.02-0.3-0.06c-0.44-0.17-0.66-0.65-0.49-1.09
					c21.64-56.79,69.37-65.55,69.85-65.63c0.45-0.07,0.9,0.23,0.97,0.69c0.08,0.46-0.23,0.9-0.69,0.97
					c-0.47,0.08-47.28,8.71-68.56,64.57C2055.26,1870.19,2054.94,1870.4,2054.6,1870.4z"/>
			</g>
			<g>
				<path class="st83" d="M2275.1,1837.85c-0.22,0-0.43-0.08-0.6-0.25c-72.12-72.11-146.22-42.96-146.96-42.66
					c-0.43,0.18-0.92-0.03-1.1-0.46c-0.18-0.43,0.03-0.92,0.46-1.1c0.19-0.08,19.13-7.67,46.8-6.14
					c25.51,1.42,63.92,11.1,101.99,49.17c0.33,0.33,0.33,0.86,0,1.19C2275.54,1837.77,2275.32,1837.85,2275.1,1837.85z"/>
			</g>
		</g>
	</g>
</g>
<g class="st90">
	<g>
		
			<linearGradient id="SVGID_00000111905197812287370480000011200959924024017817_" gradientUnits="userSpaceOnUse" x1="1917.2555" y1="950.9835" x2="2018.6134" y2="950.9835">
			<stop  offset="0" style="stop-color:#FFB888"/>
			<stop  offset="0.2875" style="stop-color:#FF9B57"/>
			<stop  offset="1" style="stop-color:#FF6801"/>
		</linearGradient>
		<polygon style="fill:url(#SVGID_00000111905197812287370480000011200959924024017817_);" points="2018.61,1038.76 1917.26,980.24 
			1917.26,863.21 2018.61,921.72 		"/>
	</g>
	<g>
		<path class="st92" d="M2006.75,962.76l-2.62-1.51c-0.89-4.57-2.28-9.2-4.09-13.76l1.86-1.07c0.84-0.49,0.84-2.07,0-3.53
			l-9.97-17.27c-0.84-1.46-2.21-2.25-3.06-1.77l-1.86,1.07c-3.04-3.84-6.35-7.36-9.87-10.42v-3.02c0-1.38-0.97-3.06-2.16-3.75
			l-14.1-8.14c-1.19-0.69-2.16-0.13-2.16,1.25v3.02c-3.52-1-6.83-1.31-9.87-0.97l-1.86-3.21c-0.84-1.46-2.21-2.25-3.06-1.77
			l-9.97,5.76c-0.84,0.49-0.84,2.07,0,3.53l1.86,3.21c-1.81,2.46-3.2,5.49-4.09,9.03l-2.62-1.51c-1.19-0.69-2.16-0.13-2.16,1.25
			l0,16.28c0,1.38,0.97,3.06,2.16,3.75l2.62,1.51c0.89,4.57,2.28,9.2,4.09,13.76l-1.86,1.07c-0.84,0.49-0.84,2.07,0,3.53l9.97,17.27
			c0.84,1.46,2.21,2.25,3.06,1.77l1.85-1.07c3.04,3.84,6.35,7.36,9.87,10.42v3.02c0,1.38,0.97,3.06,2.16,3.75l14.1,8.14
			c1.19,0.69,2.16,0.13,2.16-1.25v-3.02c3.51,1,6.83,1.31,9.87,0.97l1.86,3.21c0.84,1.46,2.21,2.25,3.06,1.77l9.97-5.76
			c0.84-0.49,0.84-2.07,0-3.53l-1.86-3.21c1.81-2.46,3.2-5.49,4.09-9.03l2.62,1.51c1.19,0.69,2.16,0.13,2.16-1.25l0-16.28
			C2008.92,965.12,2007.95,963.45,2006.75,962.76z M1967.93,973.12c-10.59-6.11-19.17-20.97-19.17-33.2
			c0-12.22,8.58-17.18,19.17-11.07c10.59,6.11,19.17,20.97,19.17,33.2C1987.1,974.27,1978.52,979.23,1967.93,973.12z"/>
	</g>
</g>
</svg>
