<svg xmlns="http://www.w3.org/2000/svg" version="1.1" xmlns:xlink="http://www.w3.org/1999/xlink" xmlns:svgjs="http://svgjs.com/svgjs" width="1895" height="300" transform="matrix(1,0,0,1,0,0)">
  <text font-family="DM Sans" font-size="260" text-anchor="left" x="310" charspacing="20px">
    <tspan dy="239.20000000000002" x="310">JDUONLINE</tspan>
  </text>
  <path transform="matrix(6.123233995736766e-17,1,-1,6.123233995736766e-17,250,70)" d="M0,0A0,0,-90,0,0,0,0L0,50L50,0ZM0,50L50,50L50,0ZM50,0L50,50L100,50ZM50,0L100,0L100,50ZM100,0L100,50L150,50ZM100,0L150,0A0,0,90,0,1,150,0L150,50ZM0,140A0,0,-90,0,0,0,140L0,190L50,140ZM0,190L50,190A0,0,270,0,0,50,190L50,140Z"/>
</svg>